# MagicaVoxel @ Ephtracy

# group
o 

# material
mtllib industrial-2.mtl
usemtl palette

# normals
vn -1 0 0
vn 1 0 0
vn 0 0 1
vn 0 0 -1
vn 0 -1 0
vn 0 1 0

# texcoords
vt 0.228516 0.5
vt 0.232422 0.5
vt 0.369141 0.5
vt 0.966797 0.5
vt 0.978516 0.5
vt 0.982422 0.5

# verts
v -3.2 0 3.2
v -3.2 0 -3.2
v -3.2 0.1 3.2
v -3.2 0.1 -3.2
v -2.2 0.1 2.8
v -2.2 0.1 1.8
v -2.2 0.1 0.8
v -2.2 0.1 -0.2
v -2.2 0.2 2.7
v -2.2 0.2 1.9
v -2.2 0.2 0.7
v -2.2 0.2 -0.1
v -2.2 3.5 2.7
v -2.2 3.5 1.9
v -2.2 3.5 0.7
v -2.2 3.5 -0.1
v -2.2 3.6 2.8
v -2.2 3.6 1.8
v -2.2 3.6 0.8
v -2.2 3.6 -0.2
v -2.1 0.2 2.7
v -2.1 0.2 1.9
v -2.1 0.2 0.7
v -2.1 0.2 -0.1
v -2.1 3.5 2.7
v -2.1 3.5 1.9
v -2.1 3.5 0.7
v -2.1 3.5 -0.1
v -2 3.6 2.6
v -2 3.6 2
v -2 3.6 0.6
v -2 3.6 0
v -2 6.4 2.6
v -2 6.4 2
v -2 6.4 0.6
v -2 6.4 0
v -1.7 0.1 1.8
v -1.7 0.1 0.7
v -1.7 0.2 1.9
v -1.7 0.2 1.8
v -1.7 0.2 1.7
v -1.7 0.2 0.9
v -1.7 2.1 1.7
v -1.7 2.1 0.9
v -1.7 2.2 1.9
v -1.7 2.2 0.7
v -1.6 0.2 1.7
v -1.6 0.2 0.9
v -1.6 2.1 1.7
v -1.6 2.1 0.9
v -1.3 0.2 2.8
v -1.3 0.2 2.7
v -1.3 0.2 -0.1
v -1.3 0.2 -0.2
v -1.3 2.2 1.9
v -1.3 2.2 1.8
v -1.3 2.2 0.8
v -1.3 2.2 0.7
v -1.3 3.5 2.8
v -1.3 3.5 2.7
v -1.3 3.5 1.9
v -1.3 3.5 1.8
v -1.3 3.5 0.8
v -1.3 3.5 0.7
v -1.3 3.5 -0.1
v -1.3 3.5 -0.2
v -1.2 0.1 -0.2
v -1.2 0.1 -1
v -1.2 0.1 -2.4
v -1.2 0.1 -2.7
v -1.2 0.1 -2.8
v -1.2 2 -1
v -1.2 2 -2.4
v -1.2 2.2 1.8
v -1.2 2.2 0.8
v -1.2 2.7 1.8
v -1.2 2.7 0.8
v -1.2 2.7 -0.2
v -1.2 2.7 -2.7
v -1.2 2.7 -2.8
v -1.1 0.1 -1
v -1.1 0.1 -2.4
v -1.1 0.2 -1
v -1.1 0.2 -2.4
v -1.1 0.3 -1
v -1.1 0.3 -2.4
v -1.1 0.4 -1
v -1.1 0.4 -2.4
v -1.1 0.5 -1
v -1.1 0.5 -2.4
v -1.1 0.6 -1
v -1.1 0.6 -2.4
v -1.1 0.7 -1
v -1.1 0.7 -2.4
v -1.1 0.8 -1
v -1.1 0.8 -2.4
v -1.1 0.9 -1
v -1.1 0.9 -2.4
v -1.1 1 -1
v -1.1 1 -2.4
v -1.1 1.1 -1
v -1.1 1.1 -2.4
v -1.1 1.2 -1
v -1.1 1.2 -2.4
v -1.1 1.3 -1
v -1.1 1.3 -2.4
v -1.1 1.4 -1
v -1.1 1.4 -2.4
v -1.1 1.5 -1
v -1.1 1.5 -2.4
v -1.1 1.6 -1
v -1.1 1.6 -2.4
v -1.1 1.7 -1
v -1.1 1.7 -2.4
v -1.1 1.8 -1
v -1.1 1.8 -2.4
v -1.1 1.9 -1
v -1.1 1.9 -2.4
v -1.1 2 -1
v -1.1 2 -2.4
v 0.1 2.7 2.8
v 0.1 2.7 2.7
v 0.1 2.7 0.9
v 0.1 2.7 0.6
v 0.1 2.7 -1.7
v 0.1 2.7 -1.9
v 0.1 3.5 2.7
v 0.1 3.5 0.9
v 0.1 3.7 2.8
v 0.1 3.7 0.8
v 0.1 5.6 0.6
v 0.1 5.6 -1.7
v 0.1 5.8 0.8
v 0.1 5.8 -1.9
v 0.2 2.7 2.7
v 0.2 2.7 0.9
v 0.2 2.7 0.6
v 0.2 2.7 -1.7
v 0.2 3.5 2.7
v 0.2 3.5 0.9
v 0.2 5.6 0.6
v 0.2 5.6 -1.7
v 2.5 2.7 2.8
v 2.5 2.7 2.7
v 2.5 3.5 2.8
v 2.5 3.5 2.7
v 2.6 0.1 -2.7
v 2.6 0.1 -2.8
v 2.6 0.2 2.8
v 2.6 0.2 2.7
v 2.6 2.5 2.8
v 2.6 2.5 2.7
v 2.6 2.5 -2.7
v 2.6 2.5 -2.8
v 2.6 2.7 -1.8
v 2.6 2.7 -1.9
v 2.6 3.7 0.8
v 2.6 3.7 0.7
v 2.6 5.6 0.8
v 2.6 5.6 0.7
v 2.6 5.6 -1.8
v 2.6 5.6 -1.9
v -2.1 0.1 0.8
v -2.1 0.1 0.7
v -2.1 0.2 2.8
v -2.1 0.2 2.7
v -2.1 0.2 1.9
v -2.1 0.2 1.8
v -2.1 0.2 -0.1
v -2.1 0.2 -0.2
v -2.1 3.5 2.8
v -2.1 3.5 2.7
v -2.1 3.5 1.9
v -2.1 3.5 1.8
v -2.1 3.5 0.8
v -2.1 3.5 0.7
v -2.1 3.5 -0.1
v -2.1 3.5 -0.2
v -1.4 3.6 2.6
v -1.4 3.6 2
v -1.4 3.6 0.6
v -1.4 3.6 0
v -1.4 6.4 2.6
v -1.4 6.4 2
v -1.4 6.4 0.6
v -1.4 6.4 0
v -1.2 2.7 2.8
v -1.2 2.7 2.7
v -1.2 2.7 1.9
v -1.2 2.7 1.8
v -1.2 2.7 0.8
v -1.2 2.7 -0.1
v -1.2 2.7 -0.2
v -1.2 3.6 2.8
v -1.2 3.6 2.7
v -1.2 3.6 1.9
v -1.2 3.6 1.8
v -1.2 3.6 0.8
v -1.2 3.6 -0.1
v -1.2 3.6 -0.2
v -1 0.1 -2.7
v -1 0.1 -2.8
v -1 0.2 2.8
v -1 0.2 2.7
v -1 2.5 2.8
v -1 2.5 2.7
v -1 2.5 -2.7
v -1 2.5 -2.8
v 0.3 2.7 2.8
v 0.3 2.7 2.7
v 0.3 2.7 -1.8
v 0.3 2.7 -1.9
v 0.3 3.5 2.8
v 0.3 3.5 2.7
v 0.3 3.7 0.8
v 0.3 3.7 0.7
v 0.3 5.6 0.8
v 0.3 5.6 0.7
v 0.3 5.6 -1.8
v 0.3 5.6 -1.9
v 2.7 0.1 2.6
v 2.7 0.1 -2.6
v 2.7 2.5 2.6
v 2.7 2.5 -2.6
v 2.7 2.7 2.7
v 2.7 2.7 1
v 2.7 3.5 2.7
v 2.7 3.5 1
v 2.7 3.8 0.6
v 2.7 3.8 -1.7
v 2.7 5.6 0.6
v 2.7 5.6 -1.7
v 2.8 0.1 2.8
v 2.8 0.1 2.6
v 2.8 0.1 -2.6
v 2.8 0.1 -2.8
v 2.8 2.5 2.6
v 2.8 2.5 -2.6
v 2.8 2.7 2.7
v 2.8 2.7 1
v 2.8 2.7 -1.9
v 2.8 2.7 -2.8
v 2.8 3.5 2.7
v 2.8 3.5 1
v 2.8 3.7 2.8
v 2.8 3.7 0.8
v 2.8 3.8 0.6
v 2.8 3.8 -1.7
v 2.8 5.6 0.6
v 2.8 5.6 -1.7
v 2.8 5.8 0.8
v 2.8 5.8 -1.9
v 3.2 0 3.2
v 3.2 0 -3.2
v 3.2 0.1 3.2
v 3.2 0.1 -3.2
v -3.2 0 3.2
v -3.2 0.1 3.2
v 3.2 0 3.2
v 3.2 0.1 3.2
v -2.2 0.1 2.8
v -2.2 3.6 2.8
v -2.1 0.2 2.8
v -2.1 3.5 2.8
v -1.3 0.2 2.8
v -1.3 3.5 2.8
v -1.2 2.7 2.8
v -1.2 3.6 2.8
v -1 0.2 2.8
v -1 2.5 2.8
v 0.1 2.7 2.8
v 0.1 3.7 2.8
v 0.3 2.7 2.8
v 0.3 3.5 2.8
v 2.5 2.7 2.8
v 2.5 3.5 2.8
v 2.6 0.2 2.8
v 2.6 2.5 2.8
v 2.8 0.1 2.8
v 2.8 3.7 2.8
v -2.1 0.2 2.7
v -2.1 3.5 2.7
v -1.3 0.2 2.7
v -1.3 3.5 2.7
v -1 0.2 2.7
v -1 2.5 2.7
v 0.3 2.7 2.7
v 0.3 3.5 2.7
v 2.5 2.7 2.7
v 2.5 3.5 2.7
v 2.6 0.2 2.7
v 2.6 2.5 2.7
v -2 3.6 2.6
v -2 6.4 2.6
v -1.4 3.6 2.6
v -1.4 6.4 2.6
v -2.2 0.2 1.9
v -2.2 3.5 1.9
v -2.1 0.2 1.9
v -2.1 3.5 1.9
v 2.7 2.7 1
v 2.7 3.5 1
v 2.8 2.7 1
v 2.8 3.5 1
v -1.7 0.2 0.9
v -1.7 2.1 0.9
v -1.6 0.2 0.9
v -1.6 2.1 0.9
v 0.1 2.7 0.9
v 0.1 3.5 0.9
v 0.2 2.7 0.9
v 0.2 3.5 0.9
v -2.2 0.1 0.8
v -2.2 3.6 0.8
v -2.1 0.1 0.8
v -2.1 3.5 0.8
v -2.1 3.6 0.8
v -1.3 2.2 0.8
v -1.3 3.5 0.8
v -1.2 2.2 0.8
v -1.2 2.7 0.8
v -1.2 3.6 0.8
v 0.1 3.7 0.8
v 0.1 5.8 0.8
v 0.2 3.7 0.8
v 0.3 3.7 0.8
v 0.3 5.6 0.8
v 2.6 3.7 0.8
v 2.6 5.6 0.8
v 2.7 3.7 0.8
v 2.8 3.7 0.8
v 2.8 5.8 0.8
v -2.1 0.1 0.7
v -2.1 3.5 0.7
v -1.7 0.1 0.7
v -1.7 2.2 0.7
v -1.6 2.2 0.7
v -1.3 2.2 0.7
v -1.3 3.5 0.7
v 0.3 3.7 0.7
v 0.3 5.6 0.7
v 2.6 3.7 0.7
v 2.6 5.6 0.7
v -2 3.6 0.6
v -2 6.4 0.6
v -1.4 3.6 0.6
v -1.4 6.4 0.6
v -2.2 0.2 -0.1
v -2.2 3.5 -0.1
v -2.1 0.2 -0.1
v -2.1 3.5 -0.1
v 0.1 2.7 -1.7
v 0.1 5.6 -1.7
v 0.2 2.7 -1.7
v 0.2 5.6 -1.7
v 2.7 3.8 -1.7
v 2.7 5.6 -1.7
v 2.8 3.8 -1.7
v 2.8 5.6 -1.7
v -1.2 0.1 -2.4
v -1.2 2 -2.4
v -1.1 0.1 -2.4
v -1.1 0.2 -2.4
v -1.1 0.3 -2.4
v -1.1 0.4 -2.4
v -1.1 0.5 -2.4
v -1.1 0.6 -2.4
v -1.1 0.7 -2.4
v -1.1 0.8 -2.4
v -1.1 0.9 -2.4
v -1.1 1 -2.4
v -1.1 1.1 -2.4
v -1.1 1.2 -2.4
v -1.1 1.3 -2.4
v -1.1 1.4 -2.4
v -1.1 1.5 -2.4
v -1.1 1.6 -2.4
v -1.1 1.7 -2.4
v -1.1 1.8 -2.4
v -1.1 1.9 -2.4
v -1.1 2 -2.4
v 2.7 0.1 -2.6
v 2.7 2.5 -2.6
v 2.8 0.1 -2.6
v 2.8 2.5 -2.6
v -2.2 0.2 2.7
v -2.2 3.5 2.7
v -2.1 0.2 2.7
v -2.1 3.5 2.7
v 0.1 2.7 2.7
v 0.1 3.5 2.7
v 0.2 2.7 2.7
v 0.2 3.5 2.7
v 2.7 2.7 2.7
v 2.7 3.5 2.7
v 2.8 2.7 2.7
v 2.8 3.5 2.7
v 2.7 0.1 2.6
v 2.7 2.5 2.6
v 2.8 0.1 2.6
v 2.8 2.5 2.6
v -2 3.6 2
v -2 6.4 2
v -1.4 3.6 2
v -1.4 6.4 2
v -2.1 0.2 1.9
v -2.1 3.5 1.9
v -1.7 0.2 1.9
v -1.7 2.2 1.9
v -1.6 2.2 1.9
v -1.3 2.2 1.9
v -1.3 3.5 1.9
v -2.2 0.1 1.8
v -2.2 3.6 1.8
v -2.1 0.2 1.8
v -2.1 3.5 1.8
v -1.7 0.1 1.8
v -1.7 0.2 1.8
v -1.3 2.2 1.8
v -1.3 3.5 1.8
v -1.2 2.2 1.8
v -1.2 2.7 1.8
v -1.2 3.6 1.8
v -1.7 0.2 1.7
v -1.7 2.1 1.7
v -1.6 0.2 1.7
v -1.6 2.1 1.7
v -2.2 0.2 0.7
v -2.2 3.5 0.7
v -2.1 0.2 0.7
v -2.1 3.5 0.7
v 0.1 2.7 0.6
v 0.1 5.6 0.6
v 0.2 2.7 0.6
v 0.2 5.6 0.6
v 2.7 3.8 0.6
v 2.7 5.6 0.6
v 2.8 3.8 0.6
v 2.8 5.6 0.6
v -2 3.6 0
v -2 6.4 0
v -1.4 3.6 0
v -1.4 6.4 0
v -2.1 0.2 -0.1
v -2.1 3.5 -0.1
v -1.3 0.2 -0.1
v -1.3 3.5 -0.1
v -2.2 0.1 -0.2
v -2.2 3.6 -0.2
v -2.1 0.2 -0.2
v -2.1 3.5 -0.2
v -1.3 0.2 -0.2
v -1.3 3.5 -0.2
v -1.2 0.1 -0.2
v -1.2 2.7 -0.2
v -1.2 3.6 -0.2
v -1.2 0.1 -1
v -1.2 2 -1
v -1.1 0.1 -1
v -1.1 0.2 -1
v -1.1 0.3 -1
v -1.1 0.4 -1
v -1.1 0.5 -1
v -1.1 0.6 -1
v -1.1 0.7 -1
v -1.1 0.8 -1
v -1.1 0.9 -1
v -1.1 1 -1
v -1.1 1.1 -1
v -1.1 1.2 -1
v -1.1 1.3 -1
v -1.1 1.4 -1
v -1.1 1.5 -1
v -1.1 1.6 -1
v -1.1 1.7 -1
v -1.1 1.8 -1
v -1.1 1.9 -1
v -1.1 2 -1
v 0.3 2.7 -1.8
v 0.3 5.6 -1.8
v 2.6 2.7 -1.8
v 2.6 5.6 -1.8
v 0.1 2.7 -1.9
v 0.1 5.8 -1.9
v 0.3 2.7 -1.9
v 0.3 5.6 -1.9
v 2.6 2.7 -1.9
v 2.6 5.6 -1.9
v 2.7 2.7 -1.9
v 2.8 2.7 -1.9
v 2.8 5.8 -1.9
v -1 0.1 -2.7
v -1 2.5 -2.7
v 2.6 0.1 -2.7
v 2.6 2.5 -2.7
v -1.2 0.1 -2.8
v -1.2 2.7 -2.8
v -1 0.1 -2.8
v -1 2.5 -2.8
v 2.6 0.1 -2.8
v 2.6 2.5 -2.8
v 2.8 0.1 -2.8
v 2.8 2.7 -2.8
v -3.2 0 -3.2
v -3.2 0.1 -3.2
v 3.2 0 -3.2
v 3.2 0.1 -3.2
v -3.2 0 3.2
v 3.2 0 3.2
v -3.2 0 -3.2
v 3.2 0 -3.2
v -1.2 2 -1
v -1.1 2 -1
v -1.2 2 -2.4
v -1.1 2 -2.4
v -1.7 2.1 1.7
v -1.6 2.1 1.7
v -1.7 2.1 0.9
v -1.6 2.1 0.9
v -1 2.5 2.8
v 2.6 2.5 2.8
v -1 2.5 2.7
v 2.6 2.5 2.7
v 2.7 2.5 2.6
v 2.8 2.5 2.6
v 2.7 2.5 -2.6
v 2.8 2.5 -2.6
v -1 2.5 -2.7
v 2.6 2.5 -2.7
v -1 2.5 -2.8
v 2.6 2.5 -2.8
v -2.1 3.5 2.8
v -1.3 3.5 2.8
v 0.3 3.5 2.8
v 2.5 3.5 2.8
v -2.2 3.5 2.7
v -2.1 3.5 2.7
v -1.3 3.5 2.7
v 0.1 3.5 2.7
v 0.2 3.5 2.7
v 0.3 3.5 2.7
v 2.5 3.5 2.7
v 2.7 3.5 2.7
v 2.8 3.5 2.7
v -2.2 3.5 1.9
v -2.1 3.5 1.9
v -1.3 3.5 1.9
v -2.1 3.5 1.8
v -1.3 3.5 1.8
v 2.7 3.5 1
v 2.8 3.5 1
v 0.1 3.5 0.9
v 0.2 3.5 0.9
v -2.1 3.5 0.8
v -1.3 3.5 0.8
v -2.2 3.5 0.7
v -2.1 3.5 0.7
v -1.3 3.5 0.7
v -2.2 3.5 -0.1
v -2.1 3.5 -0.1
v -1.3 3.5 -0.1
v -2.1 3.5 -0.2
v -1.3 3.5 -0.2
v 0.3 5.6 0.8
v 2.6 5.6 0.8
v 0.3 5.6 0.7
v 2.6 5.6 0.7
v 0.1 5.6 0.6
v 0.2 5.6 0.6
v 2.7 5.6 0.6
v 2.8 5.6 0.6
v 0.1 5.6 -1.7
v 0.2 5.6 -1.7
v 2.7 5.6 -1.7
v 2.8 5.6 -1.7
v 0.3 5.6 -1.8
v 2.6 5.6 -1.8
v 0.3 5.6 -1.9
v 2.6 5.6 -1.9
v -3.2 0.1 3.2
v 3.2 0.1 3.2
v -2.2 0.1 2.8
v 2.8 0.1 2.8
v 2.7 0.1 2.6
v 2.8 0.1 2.6
v -2.2 0.1 1.8
v -1.7 0.1 1.8
v -2.2 0.1 0.8
v -2.1 0.1 0.8
v -2.1 0.1 0.7
v -1.7 0.1 0.7
v -2.2 0.1 -0.2
v -1.2 0.1 -0.2
v -1.2 0.1 -1
v -1.1 0.1 -1
v -1.2 0.1 -2.4
v -1.1 0.1 -2.4
v 2.7 0.1 -2.6
v 2.8 0.1 -2.6
v -1.2 0.1 -2.7
v -1 0.1 -2.7
v 2.6 0.1 -2.7
v -1.2 0.1 -2.8
v -1 0.1 -2.8
v 2.6 0.1 -2.8
v 2.8 0.1 -2.8
v -3.2 0.1 -3.2
v 3.2 0.1 -3.2
v -2.1 0.2 2.8
v -1.3 0.2 2.8
v -1 0.2 2.8
v 2.6 0.2 2.8
v -2.2 0.2 2.7
v -2.1 0.2 2.7
v -1.3 0.2 2.7
v -1 0.2 2.7
v 2.6 0.2 2.7
v -2.2 0.2 1.9
v -2.1 0.2 1.9
v -1.7 0.2 1.9
v -2.1 0.2 1.8
v -1.7 0.2 1.8
v -1.7 0.2 1.7
v -1.6 0.2 1.7
v -1.7 0.2 0.9
v -1.6 0.2 0.9
v -2.2 0.2 0.7
v -2.1 0.2 0.7
v -2.2 0.2 -0.1
v -2.1 0.2 -0.1
v -1.3 0.2 -0.1
v -2.1 0.2 -0.2
v -1.3 0.2 -0.2
v -1.7 2.2 1.9
v -1.6 2.2 1.9
v -1.3 2.2 1.9
v -1.3 2.2 1.8
v -1.2 2.2 1.8
v -1.3 2.2 0.8
v -1.2 2.2 0.8
v -1.7 2.2 0.7
v -1.6 2.2 0.7
v -1.3 2.2 0.7
v -1.2 2.7 2.8
v 0.1 2.7 2.8
v 0.3 2.7 2.8
v 2.5 2.7 2.8
v -1.2 2.7 2.7
v 0.1 2.7 2.7
v 0.2 2.7 2.7
v 0.3 2.7 2.7
v 2.5 2.7 2.7
v 2.7 2.7 2.7
v 2.8 2.7 2.7
v -1.2 2.7 1.9
v -1.2 2.7 1.8
v 2.7 2.7 1
v 2.8 2.7 1
v 0.1 2.7 0.9
v 0.2 2.7 0.9
v -1.2 2.7 0.8
v 0.1 2.7 0.6
v 0.2 2.7 0.6
v -1.2 2.7 -0.1
v -1.2 2.7 -0.2
v 0.1 2.7 -1.7
v 0.2 2.7 -1.7
v 0.3 2.7 -1.8
v 2.6 2.7 -1.8
v 0.1 2.7 -1.9
v 0.3 2.7 -1.9
v 2.6 2.7 -1.9
v 2.7 2.7 -1.9
v 2.8 2.7 -1.9
v -1.2 2.7 -2.7
v 2.7 2.7 -2.7
v -1.2 2.7 -2.8
v 2.8 2.7 -2.8
v -2.2 3.6 2.8
v -1.2 3.6 2.8
v -2.1 3.6 2.7
v -1.2 3.6 2.7
v -2 3.6 2.6
v -1.4 3.6 2.6
v -2 3.6 2
v -1.4 3.6 2
v -2.1 3.6 1.9
v -1.2 3.6 1.9
v -2.2 3.6 1.8
v -1.2 3.6 1.8
v -2.2 3.6 0.8
v -2.1 3.6 0.8
v -1.2 3.6 0.8
v -2 3.6 0.6
v -1.4 3.6 0.6
v -2 3.6 0
v -1.4 3.6 0
v -2.1 3.6 -0.1
v -1.2 3.6 -0.1
v -2.2 3.6 -0.2
v -1.2 3.6 -0.2
v 0.1 3.7 2.8
v 2.8 3.7 2.8
v 0.2 3.7 2.7
v 2.7 3.7 2.7
v 0.1 3.7 0.8
v 0.2 3.7 0.8
v 0.3 3.7 0.8
v 2.6 3.7 0.8
v 2.7 3.7 0.8
v 2.8 3.7 0.8
v 0.3 3.7 0.7
v 2.6 3.7 0.7
v 2.7 3.8 0.6
v 2.8 3.8 0.6
v 2.7 3.8 -1.7
v 2.8 3.8 -1.7
v 0.1 5.8 0.8
v 2.8 5.8 0.8
v 0.2 5.8 0.7
v 2.7 5.8 0.7
v 0.2 5.8 -1.8
v 2.7 5.8 -1.8
v 0.1 5.8 -1.9
v 2.8 5.8 -1.9
v -2 6.4 2.6
v -1.4 6.4 2.6
v -2 6.4 2
v -1.4 6.4 2
v -2 6.4 0.6
v -1.4 6.4 0.6
v -2 6.4 0
v -1.4 6.4 0

# faces
f 3/5/1 2/5/1 1/5/1
f 4/5/1 2/5/1 3/5/1
f 9/2/1 6/2/1 5/2/1
f 10/2/1 6/2/1 9/2/1
f 11/2/1 8/2/1 7/2/1
f 12/2/1 8/2/1 11/2/1
f 13/2/1 9/2/1 5/2/1
f 14/2/1 6/2/1 10/2/1
f 15/2/1 11/2/1 7/2/1
f 16/2/1 8/2/1 12/2/1
f 17/2/1 13/2/1 5/2/1
f 17/2/1 14/2/1 13/2/1
f 18/2/1 6/2/1 14/2/1
f 18/2/1 14/2/1 17/2/1
f 19/2/1 16/2/1 15/2/1
f 19/2/1 15/2/1 7/2/1
f 20/2/1 8/2/1 16/2/1
f 20/2/1 16/2/1 19/2/1
f 25/1/1 22/1/1 21/1/1
f 26/1/1 22/1/1 25/1/1
f 27/1/1 24/1/1 23/1/1
f 28/1/1 24/1/1 27/1/1
f 33/3/1 30/3/1 29/3/1
f 34/3/1 30/3/1 33/3/1
f 35/3/1 32/3/1 31/3/1
f 36/3/1 32/3/1 35/3/1
f 40/2/1 38/2/1 37/2/1
f 41/2/1 38/2/1 40/2/1
f 42/2/1 38/2/1 41/2/1
f 43/2/1 40/2/1 39/2/1
f 43/2/1 41/2/1 40/2/1
f 44/2/1 38/2/1 42/2/1
f 45/2/1 43/2/1 39/2/1
f 45/2/1 44/2/1 43/2/1
f 46/2/1 38/2/1 44/2/1
f 46/2/1 44/2/1 45/2/1
f 49/1/1 48/1/1 47/1/1
f 50/1/1 48/1/1 49/1/1
f 59/2/1 52/2/1 51/2/1
f 60/2/1 52/2/1 59/2/1
f 61/2/1 56/2/1 55/2/1
f 62/2/1 56/2/1 61/2/1
f 63/1/1 58/1/1 57/1/1
f 64/1/1 58/1/1 63/1/1
f 65/2/1 54/2/1 53/2/1
f 66/2/1 54/2/1 65/2/1
f 72/1/1 68/1/1 67/1/1
f 73/1/1 70/1/1 69/1/1
f 76/1/1 75/1/1 74/1/1
f 77/1/1 75/1/1 76/1/1
f 78/1/1 72/1/1 67/1/1
f 78/1/1 73/1/1 72/1/1
f 79/2/1 71/2/1 70/2/1
f 79/1/1 73/1/1 78/1/1
f 79/1/1 70/1/1 73/1/1
f 80/2/1 71/2/1 79/2/1
f 83/6/1 82/6/1 81/6/1
f 84/6/1 82/6/1 83/6/1
f 85/4/1 84/4/1 83/4/1
f 86/4/1 84/4/1 85/4/1
f 87/6/1 86/6/1 85/6/1
f 88/6/1 86/6/1 87/6/1
f 89/4/1 88/4/1 87/4/1
f 90/4/1 88/4/1 89/4/1
f 91/6/1 90/6/1 89/6/1
f 92/6/1 90/6/1 91/6/1
f 93/4/1 92/4/1 91/4/1
f 94/4/1 92/4/1 93/4/1
f 95/6/1 94/6/1 93/6/1
f 96/6/1 94/6/1 95/6/1
f 97/4/1 96/4/1 95/4/1
f 98/4/1 96/4/1 97/4/1
f 99/6/1 98/6/1 97/6/1
f 100/6/1 98/6/1 99/6/1
f 101/4/1 100/4/1 99/4/1
f 102/4/1 100/4/1 101/4/1
f 103/6/1 102/6/1 101/6/1
f 104/6/1 102/6/1 103/6/1
f 105/4/1 104/4/1 103/4/1
f 106/4/1 104/4/1 105/4/1
f 107/6/1 106/6/1 105/6/1
f 108/6/1 106/6/1 107/6/1
f 109/4/1 108/4/1 107/4/1
f 110/4/1 108/4/1 109/4/1
f 111/6/1 110/6/1 109/6/1
f 112/6/1 110/6/1 111/6/1
f 113/4/1 112/4/1 111/4/1
f 114/4/1 112/4/1 113/4/1
f 115/6/1 114/6/1 113/6/1
f 116/6/1 114/6/1 115/6/1
f 117/4/1 116/4/1 115/4/1
f 118/4/1 116/4/1 117/4/1
f 119/6/1 118/6/1 117/6/1
f 120/6/1 118/6/1 119/6/1
f 127/2/1 122/2/1 121/2/1
f 128/2/1 124/2/1 123/2/1
f 129/2/1 127/2/1 121/2/1
f 129/2/1 128/2/1 127/2/1
f 130/2/1 124/2/1 128/2/1
f 130/2/1 128/2/1 129/2/1
f 131/2/1 124/2/1 130/2/1
f 132/2/1 126/2/1 125/2/1
f 133/2/1 131/2/1 130/2/1
f 133/2/1 132/2/1 131/2/1
f 134/2/1 126/2/1 132/2/1
f 134/2/1 132/2/1 133/2/1
f 139/1/1 136/1/1 135/1/1
f 140/1/1 136/1/1 139/1/1
f 141/1/1 138/1/1 137/1/1
f 142/1/1 138/1/1 141/1/1
f 145/2/1 144/2/1 143/2/1
f 146/2/1 144/2/1 145/2/1
f 151/2/1 150/2/1 149/2/1
f 152/2/1 150/2/1 151/2/1
f 153/2/1 148/2/1 147/2/1
f 154/2/1 148/2/1 153/2/1
f 159/2/1 158/2/1 157/2/1
f 160/2/1 158/2/1 159/2/1
f 161/2/1 156/2/1 155/2/1
f 162/2/1 156/2/1 161/2/1
f 165/2/2 166/2/2 171/2/2
f 171/2/2 166/2/2 172/2/2
f 167/2/2 168/2/2 173/2/2
f 173/2/2 168/2/2 174/2/2
f 163/2/2 164/2/2 175/2/2
f 175/2/2 164/2/2 176/2/2
f 169/2/2 170/2/2 177/2/2
f 177/2/2 170/2/2 178/2/2
f 179/3/2 180/3/2 183/3/2
f 183/3/2 180/3/2 184/3/2
f 181/3/2 182/3/2 185/3/2
f 185/3/2 182/3/2 186/3/2
f 187/2/2 188/2/2 194/2/2
f 188/1/2 189/1/2 195/1/2
f 194/2/2 188/2/2 195/2/2
f 189/2/2 190/2/2 196/2/2
f 195/1/2 189/1/2 196/1/2
f 196/2/2 190/2/2 197/2/2
f 191/1/2 192/1/2 198/1/2
f 192/2/2 193/2/2 199/2/2
f 198/1/2 192/1/2 199/1/2
f 199/2/2 193/2/2 200/2/2
f 203/2/2 204/2/2 205/2/2
f 205/2/2 204/2/2 206/2/2
f 201/2/2 202/2/2 207/2/2
f 207/2/2 202/2/2 208/2/2
f 209/2/2 210/2/2 213/2/2
f 213/2/2 210/2/2 214/2/2
f 215/2/2 216/2/2 217/2/2
f 217/2/2 216/2/2 218/2/2
f 211/2/2 212/2/2 219/2/2
f 219/2/2 212/2/2 220/2/2
f 221/1/2 222/1/2 223/1/2
f 223/1/2 222/1/2 224/1/2
f 225/1/2 226/1/2 227/1/2
f 227/1/2 226/1/2 228/1/2
f 229/1/2 230/1/2 231/1/2
f 231/1/2 230/1/2 232/1/2
f 233/2/2 234/2/2 237/2/2
f 235/2/2 236/2/2 238/2/2
f 233/2/2 237/2/2 239/2/2
f 237/2/2 238/2/2 239/2/2
f 239/2/2 238/2/2 240/2/2
f 240/2/2 238/2/2 241/2/2
f 238/2/2 236/2/2 242/2/2
f 241/2/2 238/2/2 242/2/2
f 233/2/2 239/2/2 243/2/2
f 240/2/2 241/2/2 244/2/2
f 233/2/2 243/2/2 245/2/2
f 243/2/2 244/2/2 245/2/2
f 244/2/2 241/2/2 246/2/2
f 245/2/2 244/2/2 246/2/2
f 246/2/2 241/2/2 247/2/2
f 247/2/2 241/2/2 248/2/2
f 246/2/2 247/2/2 249/2/2
f 248/2/2 241/2/2 250/2/2
f 246/2/2 249/2/2 251/2/2
f 249/2/2 250/2/2 251/2/2
f 250/2/2 241/2/2 252/2/2
f 251/2/2 250/2/2 252/2/2
f 253/5/2 254/5/2 255/5/2
f 255/5/2 254/5/2 256/5/2
f 259/5/3 258/5/3 257/5/3
f 260/5/3 258/5/3 259/5/3
f 263/2/3 262/2/3 261/2/3
f 264/2/3 262/2/3 263/2/3
f 265/2/3 263/2/3 261/2/3
f 266/2/3 262/2/3 264/2/3
f 267/2/3 266/2/3 265/2/3
f 268/2/3 262/2/3 266/2/3
f 268/2/3 266/2/3 267/2/3
f 269/2/3 265/2/3 261/2/3
f 269/2/3 267/2/3 265/2/3
f 270/2/3 267/2/3 269/2/3
f 271/2/3 267/2/3 270/2/3
f 273/2/3 271/2/3 270/2/3
f 273/2/3 272/2/3 271/2/3
f 274/2/3 272/2/3 273/2/3
f 275/2/3 273/2/3 270/2/3
f 276/2/3 272/2/3 274/2/3
f 277/2/3 269/2/3 261/2/3
f 278/2/3 276/2/3 275/2/3
f 278/2/3 275/2/3 270/2/3
f 279/2/3 277/2/3 261/2/3
f 279/2/3 278/2/3 277/2/3
f 280/2/3 276/2/3 278/2/3
f 280/2/3 278/2/3 279/2/3
f 280/2/3 272/2/3 276/2/3
f 283/1/3 282/1/3 281/1/3
f 284/1/3 282/1/3 283/1/3
f 289/1/3 288/1/3 287/1/3
f 290/1/3 288/1/3 289/1/3
f 291/1/3 286/1/3 285/1/3
f 292/1/3 286/1/3 291/1/3
f 295/3/3 294/3/3 293/3/3
f 296/3/3 294/3/3 295/3/3
f 299/2/3 298/2/3 297/2/3
f 300/2/3 298/2/3 299/2/3
f 303/2/3 302/2/3 301/2/3
f 304/2/3 302/2/3 303/2/3
f 307/2/3 306/2/3 305/2/3
f 308/2/3 306/2/3 307/2/3
f 311/2/3 310/2/3 309/2/3
f 312/2/3 310/2/3 311/2/3
f 315/2/3 314/2/3 313/2/3
f 316/2/3 314/2/3 315/2/3
f 317/2/3 314/2/3 316/2/3
f 319/1/3 317/1/3 316/1/3
f 320/1/3 319/1/3 318/1/3
f 321/1/3 319/1/3 320/1/3
f 322/1/3 317/1/3 319/1/3
f 322/1/3 319/1/3 321/1/3
f 325/2/3 324/2/3 323/2/3
f 326/2/3 324/2/3 325/2/3
f 327/2/3 324/2/3 326/2/3
f 329/2/3 324/2/3 327/2/3
f 330/2/3 329/2/3 328/2/3
f 331/2/3 329/2/3 330/2/3
f 332/2/3 324/2/3 329/2/3
f 332/2/3 329/2/3 331/2/3
f 335/1/3 334/1/3 333/1/3
f 336/1/3 334/1/3 335/1/3
f 337/1/3 334/1/3 336/1/3
f 338/1/3 334/1/3 337/1/3
f 339/1/3 334/1/3 338/1/3
f 342/1/3 341/1/3 340/1/3
f 343/1/3 341/1/3 342/1/3
f 346/3/3 345/3/3 344/3/3
f 347/3/3 345/3/3 346/3/3
f 350/2/3 349/2/3 348/2/3
f 351/2/3 349/2/3 350/2/3
f 354/2/3 353/2/3 352/2/3
f 355/2/3 353/2/3 354/2/3
f 358/2/3 357/2/3 356/2/3
f 359/2/3 357/2/3 358/2/3
f 362/1/3 361/1/3 360/1/3
f 363/1/3 361/1/3 362/1/3
f 364/1/3 361/1/3 363/1/3
f 365/1/3 361/1/3 364/1/3
f 366/1/3 361/1/3 365/1/3
f 367/1/3 361/1/3 366/1/3
f 368/1/3 361/1/3 367/1/3
f 369/1/3 361/1/3 368/1/3
f 370/1/3 361/1/3 369/1/3
f 371/1/3 361/1/3 370/1/3
f 372/1/3 361/1/3 371/1/3
f 373/1/3 361/1/3 372/1/3
f 374/1/3 361/1/3 373/1/3
f 375/1/3 361/1/3 374/1/3
f 376/1/3 361/1/3 375/1/3
f 377/1/3 361/1/3 376/1/3
f 378/1/3 361/1/3 377/1/3
f 379/1/3 361/1/3 378/1/3
f 380/1/3 361/1/3 379/1/3
f 381/1/3 361/1/3 380/1/3
f 384/2/3 383/2/3 382/2/3
f 385/2/3 383/2/3 384/2/3
f 386/2/4 387/2/4 388/2/4
f 388/2/4 387/2/4 389/2/4
f 390/2/4 391/2/4 392/2/4
f 392/2/4 391/2/4 393/2/4
f 394/2/4 395/2/4 396/2/4
f 396/2/4 395/2/4 397/2/4
f 398/2/4 399/2/4 400/2/4
f 400/2/4 399/2/4 401/2/4
f 402/3/4 403/3/4 404/3/4
f 404/3/4 403/3/4 405/3/4
f 406/1/4 407/1/4 408/1/4
f 408/1/4 407/1/4 409/1/4
f 409/1/4 407/1/4 410/1/4
f 410/1/4 407/1/4 411/1/4
f 411/1/4 407/1/4 412/1/4
f 413/2/4 414/2/4 415/2/4
f 415/2/4 414/2/4 416/2/4
f 413/2/4 415/2/4 417/2/4
f 417/2/4 415/2/4 418/2/4
f 416/2/4 414/2/4 420/2/4
f 419/2/4 420/2/4 421/2/4
f 421/2/4 420/2/4 422/2/4
f 420/2/4 414/2/4 423/2/4
f 422/2/4 420/2/4 423/2/4
f 424/2/4 425/2/4 426/2/4
f 426/2/4 425/2/4 427/2/4
f 428/2/4 429/2/4 430/2/4
f 430/2/4 429/2/4 431/2/4
f 432/2/4 433/2/4 434/2/4
f 434/2/4 433/2/4 435/2/4
f 436/2/4 437/2/4 438/2/4
f 438/2/4 437/2/4 439/2/4
f 440/3/4 441/3/4 442/3/4
f 442/3/4 441/3/4 443/3/4
f 444/1/4 445/1/4 446/1/4
f 446/1/4 445/1/4 447/1/4
f 448/2/4 449/2/4 450/2/4
f 450/2/4 449/2/4 451/2/4
f 448/2/4 450/2/4 452/2/4
f 451/2/4 449/2/4 453/2/4
f 448/2/4 452/2/4 454/2/4
f 452/2/4 453/2/4 454/2/4
f 454/2/4 453/2/4 455/2/4
f 453/2/4 449/2/4 456/2/4
f 455/2/4 453/2/4 456/2/4
f 457/1/4 458/1/4 459/1/4
f 459/1/4 458/1/4 460/1/4
f 460/1/4 458/1/4 461/1/4
f 461/1/4 458/1/4 462/1/4
f 462/1/4 458/1/4 463/1/4
f 463/1/4 458/1/4 464/1/4
f 464/1/4 458/1/4 465/1/4
f 465/1/4 458/1/4 466/1/4
f 466/1/4 458/1/4 467/1/4
f 467/1/4 458/1/4 468/1/4
f 468/1/4 458/1/4 469/1/4
f 469/1/4 458/1/4 470/1/4
f 470/1/4 458/1/4 471/1/4
f 471/1/4 458/1/4 472/1/4
f 472/1/4 458/1/4 473/1/4
f 473/1/4 458/1/4 474/1/4
f 474/1/4 458/1/4 475/1/4
f 475/1/4 458/1/4 476/1/4
f 476/1/4 458/1/4 477/1/4
f 477/1/4 458/1/4 478/1/4
f 479/1/4 480/1/4 481/1/4
f 481/1/4 480/1/4 482/1/4
f 483/2/4 484/2/4 485/2/4
f 485/2/4 484/2/4 486/2/4
f 486/2/4 484/2/4 488/2/4
f 487/2/4 488/2/4 489/2/4
f 489/2/4 488/2/4 490/2/4
f 488/2/4 484/2/4 491/2/4
f 490/2/4 488/2/4 491/2/4
f 492/1/4 493/1/4 494/1/4
f 494/1/4 493/1/4 495/1/4
f 496/2/4 497/2/4 498/2/4
f 498/2/4 497/2/4 499/2/4
f 499/2/4 497/2/4 501/2/4
f 500/2/4 501/2/4 502/2/4
f 501/2/4 497/2/4 503/2/4
f 502/2/4 501/2/4 503/2/4
f 504/5/4 505/5/4 506/5/4
f 506/5/4 505/5/4 507/5/4
f 510/5/5 509/5/5 508/5/5
f 511/5/5 509/5/5 510/5/5
f 514/1/5 513/1/5 512/1/5
f 515/1/5 513/1/5 514/1/5
f 518/2/5 517/2/5 516/2/5
f 519/2/5 517/2/5 518/2/5
f 522/2/5 521/2/5 520/2/5
f 523/2/5 521/2/5 522/2/5
f 526/2/5 525/2/5 524/2/5
f 527/2/5 525/2/5 526/2/5
f 530/2/5 529/2/5 528/2/5
f 531/2/5 529/2/5 530/2/5
f 537/2/5 533/2/5 532/2/5
f 538/2/5 533/2/5 537/2/5
f 541/2/5 535/2/5 534/2/5
f 542/2/5 535/2/5 541/2/5
f 545/2/5 537/2/5 536/2/5
f 546/2/5 537/2/5 545/2/5
f 548/2/5 547/2/5 546/2/5
f 549/2/5 547/2/5 548/2/5
f 550/2/5 544/2/5 543/2/5
f 551/2/5 544/2/5 550/2/5
f 552/2/5 540/2/5 539/2/5
f 553/2/5 540/2/5 552/2/5
f 557/1/5 555/1/5 554/1/5
f 558/1/5 555/1/5 557/1/5
f 559/2/5 557/2/5 556/2/5
f 560/2/5 557/2/5 559/2/5
f 562/2/5 561/2/5 560/2/5
f 563/2/5 561/2/5 562/2/5
f 566/2/5 565/2/5 564/2/5
f 567/2/5 565/2/5 566/2/5
f 572/2/5 569/2/5 568/2/5
f 573/2/5 569/2/5 572/2/5
f 574/2/5 571/2/5 570/2/5
f 575/2/5 571/2/5 574/2/5
f 578/2/5 577/2/5 576/2/5
f 579/2/5 577/2/5 578/2/5
f 580/5/6 581/5/6 582/5/6
f 582/5/6 581/5/6 583/5/6
f 583/5/6 581/5/6 585/5/6
f 580/5/6 582/5/6 586/5/6
f 580/5/6 586/5/6 588/5/6
f 586/5/6 587/5/6 588/5/6
f 588/5/6 587/5/6 589/5/6
f 589/5/6 587/5/6 590/5/6
f 590/5/6 587/5/6 591/5/6
f 580/5/6 588/5/6 592/5/6
f 592/5/6 593/5/6 594/5/6
f 592/5/6 594/5/6 596/5/6
f 594/5/6 595/5/6 596/5/6
f 596/5/6 595/5/6 597/5/6
f 584/5/6 585/5/6 598/5/6
f 585/5/6 581/5/6 599/5/6
f 598/5/6 585/5/6 599/5/6
f 592/5/6 596/5/6 600/5/6
f 592/5/6 600/5/6 603/5/6
f 601/5/6 602/5/6 604/5/6
f 604/5/6 602/5/6 605/5/6
f 599/5/6 581/5/6 606/5/6
f 604/5/6 605/5/6 607/5/6
f 605/5/6 606/5/6 607/5/6
f 580/5/6 592/5/6 607/5/6
f 592/5/6 603/5/6 607/5/6
f 603/5/6 604/5/6 607/5/6
f 606/5/6 581/5/6 608/5/6
f 607/5/6 606/5/6 608/5/6
f 609/2/6 610/2/6 614/2/6
f 614/2/6 610/2/6 615/2/6
f 611/2/6 612/2/6 616/2/6
f 616/2/6 612/2/6 617/2/6
f 613/2/6 614/2/6 618/2/6
f 618/2/6 614/2/6 619/2/6
f 619/2/6 620/2/6 621/2/6
f 621/2/6 620/2/6 622/2/6
f 623/2/6 624/2/6 625/2/6
f 625/2/6 624/2/6 626/2/6
f 627/2/6 628/2/6 629/2/6
f 629/2/6 628/2/6 630/2/6
f 630/2/6 631/2/6 632/2/6
f 632/2/6 631/2/6 633/2/6
f 635/1/6 636/1/6 637/1/6
f 635/1/6 637/1/6 639/1/6
f 637/1/6 638/1/6 639/1/6
f 639/1/6 638/1/6 640/1/6
f 634/2/6 635/2/6 641/2/6
f 635/1/6 639/1/6 642/1/6
f 641/2/6 635/2/6 642/2/6
f 642/1/6 639/1/6 643/1/6
f 644/2/6 645/2/6 648/2/6
f 648/2/6 645/2/6 649/2/6
f 646/2/6 647/2/6 651/2/6
f 651/2/6 647/2/6 652/2/6
f 649/1/6 650/1/6 655/1/6
f 648/1/6 649/1/6 655/1/6
f 655/1/6 650/1/6 656/1/6
f 653/2/6 654/2/6 657/2/6
f 657/2/6 654/2/6 658/2/6
f 656/1/6 650/1/6 659/1/6
f 659/1/6 650/1/6 660/1/6
f 656/1/6 659/1/6 661/1/6
f 661/1/6 659/1/6 662/1/6
f 661/1/6 662/1/6 664/1/6
f 662/1/6 663/1/6 664/1/6
f 664/1/6 663/1/6 665/1/6
f 665/1/6 663/1/6 666/1/6
f 666/1/6 663/1/6 667/1/6
f 665/1/6 666/1/6 670/1/6
f 668/1/6 669/1/6 671/1/6
f 671/1/6 669/1/6 672/1/6
f 665/1/6 670/1/6 675/1/6
f 670/1/6 671/1/6 675/1/6
f 672/1/6 673/1/6 675/1/6
f 671/1/6 672/1/6 675/1/6
f 673/2/6 674/2/6 676/2/6
f 675/1/6 673/1/6 676/1/6
f 675/2/6 676/2/6 677/2/6
f 676/2/6 674/2/6 678/2/6
f 677/2/6 676/2/6 678/2/6
f 679/2/6 680/2/6 681/2/6
f 681/2/6 680/2/6 682/2/6
f 681/1/6 682/1/6 683/1/6
f 683/1/6 682/1/6 684/1/6
f 681/1/6 683/1/6 685/1/6
f 684/1/6 682/1/6 686/1/6
f 679/2/6 681/2/6 687/2/6
f 685/1/6 686/1/6 687/1/6
f 681/1/6 685/1/6 687/1/6
f 686/1/6 682/1/6 688/1/6
f 687/1/6 686/1/6 688/1/6
f 679/2/6 687/2/6 689/2/6
f 687/2/6 688/2/6 689/2/6
f 689/2/6 688/2/6 690/2/6
f 692/1/6 693/1/6 694/1/6
f 694/1/6 693/1/6 695/1/6
f 692/1/6 694/1/6 696/1/6
f 695/1/6 693/1/6 697/1/6
f 691/2/6 692/2/6 698/2/6
f 696/1/6 697/1/6 698/1/6
f 692/1/6 696/1/6 698/1/6
f 697/1/6 693/1/6 699/1/6
f 698/1/6 697/1/6 699/1/6
f 691/2/6 698/2/6 700/2/6
f 698/2/6 699/2/6 700/2/6
f 700/2/6 699/2/6 701/2/6
f 702/2/6 703/2/6 704/2/6
f 704/2/6 703/2/6 705/2/6
f 702/2/6 704/2/6 706/2/6
f 704/1/6 705/1/6 707/1/6
f 706/2/6 704/2/6 707/2/6
f 707/1/6 705/1/6 708/1/6
f 708/1/6 705/1/6 709/1/6
f 705/2/6 703/2/6 710/2/6
f 709/1/6 705/1/6 710/1/6
f 710/2/6 703/2/6 711/2/6
f 708/1/6 709/1/6 712/1/6
f 712/1/6 709/1/6 713/1/6
f 714/2/6 715/2/6 716/2/6
f 716/2/6 715/2/6 717/2/6
f 718/2/6 719/2/6 720/2/6
f 720/2/6 719/2/6 721/2/6
f 718/2/6 720/2/6 722/2/6
f 720/1/6 721/1/6 722/1/6
f 721/2/6 719/2/6 723/2/6
f 722/1/6 721/1/6 723/1/6
f 718/2/6 722/2/6 724/2/6
f 722/2/6 723/2/6 724/2/6
f 723/2/6 719/2/6 725/2/6
f 724/2/6 723/2/6 725/2/6
f 726/3/6 727/3/6 728/3/6
f 728/3/6 727/3/6 729/3/6
f 730/3/6 731/3/6 732/3/6
f 732/3/6 731/3/6 733/3/6
