# MagicaVoxel @ Ephtracy

# group
o 

# material
mtllib BIKE3.mtl
usemtl palette

# normals
vn -1 0 0
vn 1 0 0
vn 0 0 1
vn 0 0 -1
vn 0 -1 0
vn 0 1 0

# texcoords
vt 0.0214844 0.5
vt 0.115234 0.5
vt 0.876953 0.5
vt 0.982422 0.5
vt 0.986328 0.5
vt 0.990234 0.5

# verts
v -0.2 0.4 0.4
v -0.2 0.4 0.2
v -0.2 0.5 0.4
v -0.2 0.5 0.2
v -0.0999999 0.1 0.5
v -0.0999999 0.1 0.3
v -0.0999999 0.1 -0.3
v -0.0999999 0.1 -0.5
v -0.0999999 0.2 0.5
v -0.0999999 0.2 0.4
v -0.0999999 0.2 0.3
v -0.0999999 0.2 -5.96046e-08
v -0.0999999 0.2 -0.2
v -0.0999999 0.2 -0.3
v -0.0999999 0.2 -0.5
v -0.0999999 0.2 -0.6
v -0.0999999 0.3 0.1
v -0.0999999 0.3 -5.96046e-08
v -0.0999999 0.3 -0.2
v -0.0999999 0.3 -0.3
v -0.0999999 0.3 -0.6
v -0.0999999 0.3 -0.7
v -0.0999999 0.4 0.4
v -0.0999999 0.4 0.2
v -0.0999999 0.4 0.1
v -0.0999999 0.4 -0.3
v -0.0999999 0.4 -0.7
v 5.96046e-08 0 0.6
v 5.96046e-08 0 0.3
v 5.96046e-08 0 -0.3
v 5.96046e-08 0 -0.6
v 5.96046e-08 0.1 0.7
v 5.96046e-08 0.1 0.6
v 5.96046e-08 0.1 0.5
v 5.96046e-08 0.1 0.3
v 5.96046e-08 0.1 -0.3
v 5.96046e-08 0.1 -0.5
v 5.96046e-08 0.2 0.5
v 5.96046e-08 0.2 0.4
v 5.96046e-08 0.2 -5.96046e-08
v 5.96046e-08 0.2 -0.2
v 5.96046e-08 0.2 -0.5
v 5.96046e-08 0.2 -0.6
v 5.96046e-08 0.3 0.7
v 5.96046e-08 0.3 0.6
v 5.96046e-08 0.3 0.4
v 5.96046e-08 0.3 -5.96046e-08
v 5.96046e-08 0.3 -0.2
v 5.96046e-08 0.4 0.6
v 5.96046e-08 0.4 0.5
v 5.96046e-08 0.4 0.4
v 5.96046e-08 0.4 0.3
v 5.96046e-08 0.4 0.2
v 5.96046e-08 0.4 -0.4
v 5.96046e-08 0.4 -0.7
v 5.96046e-08 0.5 0.5
v 5.96046e-08 0.5 0.4
v 5.96046e-08 0.5 0.3
v 5.96046e-08 0.5 0.2
v 5.96046e-08 0.5 -0.4
v 5.96046e-08 0.5 -0.7
v 0.2 0.4 0.3
v 0.2 0.4 0.2
v 0.2 0.5 0.3
v 0.2 0.5 0.2
v -0.0999999 0.4 0.3
v -0.0999999 0.4 0.2
v -0.0999999 0.5 0.3
v -0.0999999 0.5 0.2
v 0.1 0 0.6
v 0.1 0 0.3
v 0.1 0 -0.3
v 0.1 0 -0.6
v 0.1 0.1 0.7
v 0.1 0.1 0.6
v 0.1 0.1 0.5
v 0.1 0.1 0.3
v 0.1 0.1 0.1
v 0.1 0.1 -0.3
v 0.1 0.1 -0.5
v 0.1 0.2 0.5
v 0.1 0.2 0.4
v 0.1 0.2 0.3
v 0.1 0.2 0.1
v 0.1 0.2 -5.96046e-08
v 0.1 0.2 -0.2
v 0.1 0.2 -0.5
v 0.1 0.2 -0.6
v 0.1 0.3 0.7
v 0.1 0.3 0.6
v 0.1 0.3 0.4
v 0.1 0.3 -5.96046e-08
v 0.1 0.3 -0.2
v 0.1 0.4 0.6
v 0.1 0.4 0.5
v 0.1 0.4 0.4
v 0.1 0.4 0.3
v 0.1 0.4 0.2
v 0.1 0.4 -0.4
v 0.1 0.4 -0.7
v 0.1 0.5 0.5
v 0.1 0.5 0.4
v 0.1 0.5 0.3
v 0.1 0.5 0.2
v 0.1 0.5 -0.4
v 0.1 0.5 -0.7
v 0.2 0.1 0.5
v 0.2 0.1 0.3
v 0.2 0.1 0.1
v 0.2 0.1 -0.3
v 0.2 0.1 -0.5
v 0.2 0.2 0.5
v 0.2 0.2 0.4
v 0.2 0.2 0.3
v 0.2 0.2 0.1
v 0.2 0.2 -5.96046e-08
v 0.2 0.2 -0.2
v 0.2 0.2 -0.3
v 0.2 0.2 -0.5
v 0.2 0.2 -0.6
v 0.2 0.3 0.1
v 0.2 0.3 -5.96046e-08
v 0.2 0.3 -0.2
v 0.2 0.3 -0.3
v 0.2 0.3 -0.6
v 0.2 0.3 -0.7
v 0.2 0.4 0.4
v 0.2 0.4 0.2
v 0.2 0.4 0.1
v 0.2 0.4 -0.3
v 0.2 0.4 -0.7
v 0.3 0.4 0.4
v 0.3 0.4 0.2
v 0.3 0.5 0.4
v 0.3 0.5 0.2
v 5.96046e-08 0.1 0.7
v 5.96046e-08 0.3 0.7
v 0.1 0.1 0.7
v 0.1 0.3 0.7
v 5.96046e-08 0 0.6
v 5.96046e-08 0.1 0.6
v 5.96046e-08 0.3 0.6
v 5.96046e-08 0.4 0.6
v 0.1 0 0.6
v 0.1 0.1 0.6
v 0.1 0.3 0.6
v 0.1 0.4 0.6
v -0.0999999 0.1 0.5
v -0.0999999 0.2 0.5
v 5.96046e-08 0.1 0.5
v 5.96046e-08 0.2 0.5
v 5.96046e-08 0.4 0.5
v 5.96046e-08 0.5 0.5
v 0.1 0.1 0.5
v 0.1 0.2 0.5
v 0.1 0.4 0.5
v 0.1 0.5 0.5
v 0.2 0.1 0.5
v 0.2 0.2 0.5
v -0.2 0.4 0.4
v -0.2 0.5 0.4
v -0.0999999 0.2 0.4
v -0.0999999 0.4 0.4
v 5.96046e-08 0.2 0.4
v 5.96046e-08 0.3 0.4
v 5.96046e-08 0.4 0.4
v 5.96046e-08 0.5 0.4
v 0.1 0.2 0.4
v 0.1 0.3 0.4
v 0.1 0.4 0.4
v 0.1 0.5 0.4
v 0.2 0.2 0.4
v 0.2 0.4 0.4
v 0.3 0.4 0.4
v 0.3 0.5 0.4
v 0.1 0.1 0.1
v 0.1 0.2 0.1
v 0.2 0.1 0.1
v 0.2 0.2 0.1
v -0.0999999 0.2 -0.2
v -0.0999999 0.3 -0.2
v 5.96046e-08 0.2 -0.2
v 5.96046e-08 0.3 -0.2
v 0.1 0.2 -0.2
v 0.1 0.3 -0.2
v 0.2 0.2 -0.2
v 0.2 0.3 -0.2
v -0.0999999 0.3 -0.3
v -0.0999999 0.4 -0.3
v 5.96046e-08 0 -0.3
v 5.96046e-08 0.1 -0.3
v 0.1 0 -0.3
v 0.1 0.1 -0.3
v 0.2 0.3 -0.3
v 0.2 0.4 -0.3
v 5.96046e-08 0.4 -0.4
v 5.96046e-08 0.5 -0.4
v 0.1 0.4 -0.4
v 0.1 0.5 -0.4
v -0.0999999 0.4 0.3
v -0.0999999 0.5 0.3
v 5.96046e-08 0 0.3
v 5.96046e-08 0.1 0.3
v 5.96046e-08 0.4 0.3
v 5.96046e-08 0.5 0.3
v 0.1 0 0.3
v 0.1 0.1 0.3
v 0.1 0.2 0.3
v 0.1 0.4 0.3
v 0.1 0.5 0.3
v 0.2 0.1 0.3
v 0.2 0.2 0.3
v 0.2 0.4 0.3
v 0.2 0.5 0.3
v -0.2 0.4 0.2
v -0.2 0.5 0.2
v -0.0999999 0.4 0.2
v -0.0999999 0.5 0.2
v 5.96046e-08 0.4 0.2
v 5.96046e-08 0.5 0.2
v 0.1 0.4 0.2
v 0.1 0.5 0.2
v 0.2 0.4 0.2
v 0.2 0.5 0.2
v 0.3 0.4 0.2
v 0.3 0.5 0.2
v -0.0999999 0.3 0.1
v -0.0999999 0.4 0.1
v 0.2 0.3 0.1
v 0.2 0.4 0.1
v -0.0999999 0.2 -5.96046e-08
v -0.0999999 0.3 -5.96046e-08
v 5.96046e-08 0.2 -5.96046e-08
v 5.96046e-08 0.3 -5.96046e-08
v 0.1 0.2 -5.96046e-08
v 0.1 0.3 -5.96046e-08
v 0.2 0.2 -5.96046e-08
v 0.2 0.3 -5.96046e-08
v -0.0999999 0.1 -0.5
v -0.0999999 0.2 -0.5
v 5.96046e-08 0.1 -0.5
v 5.96046e-08 0.2 -0.5
v 0.1 0.1 -0.5
v 0.1 0.2 -0.5
v 0.2 0.1 -0.5
v 0.2 0.2 -0.5
v -0.0999999 0.2 -0.6
v -0.0999999 0.3 -0.6
v 5.96046e-08 0 -0.6
v 5.96046e-08 0.2 -0.6
v 5.96046e-08 0.3 -0.6
v 0.1 0 -0.6
v 0.1 0.2 -0.6
v 0.1 0.3 -0.6
v 0.2 0.2 -0.6
v 0.2 0.3 -0.6
v -0.0999999 0.3 -0.7
v -0.0999999 0.4 -0.7
v 5.96046e-08 0.3 -0.7
v 5.96046e-08 0.4 -0.7
v 5.96046e-08 0.5 -0.7
v 0.1 0.3 -0.7
v 0.1 0.4 -0.7
v 0.1 0.5 -0.7
v 0.2 0.3 -0.7
v 0.2 0.4 -0.7
v 5.96046e-08 0 0.6
v 0.1 0 0.6
v 5.96046e-08 0 0.3
v 0.1 0 0.3
v 5.96046e-08 0 -0.3
v 0.1 0 -0.3
v 5.96046e-08 0 -0.6
v 0.1 0 -0.6
v 5.96046e-08 0.1 0.7
v 0.1 0.1 0.7
v 5.96046e-08 0.1 0.6
v 0.1 0.1 0.6
v -0.0999999 0.1 0.5
v 5.96046e-08 0.1 0.5
v 0.1 0.1 0.5
v 0.2 0.1 0.5
v -0.0999999 0.1 0.3
v 5.96046e-08 0.1 0.3
v 0.1 0.1 0.3
v 0.2 0.1 0.3
v 0.1 0.1 0.1
v 0.2 0.1 0.1
v -0.0999999 0.1 -0.3
v 5.96046e-08 0.1 -0.3
v 0.1 0.1 -0.3
v 0.2 0.1 -0.3
v -0.0999999 0.1 -0.5
v 5.96046e-08 0.1 -0.5
v 0.1 0.1 -0.5
v 0.2 0.1 -0.5
v 0.1 0.2 0.3
v 0.2 0.2 0.3
v 0.1 0.2 0.1
v 0.2 0.2 0.1
v -0.0999999 0.2 -0.5
v 5.96046e-08 0.2 -0.5
v 0.1 0.2 -0.5
v 0.2 0.2 -0.5
v -0.0999999 0.2 -0.6
v 5.96046e-08 0.2 -0.6
v 0.1 0.2 -0.6
v 0.2 0.2 -0.6
v -0.0999999 0.3 -0.6
v 5.96046e-08 0.3 -0.6
v 0.1 0.3 -0.6
v 0.2 0.3 -0.6
v -0.0999999 0.3 -0.7
v 5.96046e-08 0.3 -0.7
v 0.1 0.3 -0.7
v 0.2 0.3 -0.7
v -0.2 0.4 0.4
v -0.0999999 0.4 0.4
v 0.2 0.4 0.4
v 0.3 0.4 0.4
v -0.2 0.4 0.2
v -0.0999999 0.4 0.2
v 0.2 0.4 0.2
v 0.3 0.4 0.2
v -0.0999999 0.2 0.5
v 5.96046e-08 0.2 0.5
v 0.1 0.2 0.5
v 0.2 0.2 0.5
v -0.0999999 0.2 0.4
v 5.96046e-08 0.2 0.4
v 0.1 0.2 0.4
v 0.2 0.2 0.4
v -0.0999999 0.2 -5.96046e-08
v 5.96046e-08 0.2 -5.96046e-08
v 0.1 0.2 -5.96046e-08
v 0.2 0.2 -5.96046e-08
v -0.0999999 0.2 -0.2
v 5.96046e-08 0.2 -0.2
v 0.1 0.2 -0.2
v 0.2 0.2 -0.2
v 5.96046e-08 0.3 0.7
v 0.1 0.3 0.7
v 5.96046e-08 0.3 0.6
v 0.1 0.3 0.6
v -0.0999999 0.3 0.1
v 0.2 0.3 0.1
v -0.0999999 0.3 -5.96046e-08
v 5.96046e-08 0.3 -5.96046e-08
v 0.1 0.3 -5.96046e-08
v 0.2 0.3 -5.96046e-08
v -0.0999999 0.3 -0.2
v 5.96046e-08 0.3 -0.2
v 0.1 0.3 -0.2
v 0.2 0.3 -0.2
v -0.0999999 0.3 -0.3
v 0.2 0.3 -0.3
v 5.96046e-08 0.4 0.6
v 0.1 0.4 0.6
v 5.96046e-08 0.4 0.5
v 0.1 0.4 0.5
v -0.0999999 0.4 0.3
v 5.96046e-08 0.4 0.3
v 0.1 0.4 0.3
v 0.2 0.4 0.3
v -0.0999999 0.4 0.2
v 5.96046e-08 0.4 0.2
v 0.1 0.4 0.2
v 0.2 0.4 0.2
v -0.0999999 0.4 0.1
v 0.2 0.4 0.1
v -0.0999999 0.4 -0.3
v 0.2 0.4 -0.3
v 5.96046e-08 0.4 -0.4
v 0.1 0.4 -0.4
v -0.0999999 0.4 -0.7
v 5.96046e-08 0.4 -0.7
v 0.1 0.4 -0.7
v 0.2 0.4 -0.7
v 5.96046e-08 0.5 0.5
v 0.1 0.5 0.5
v -0.2 0.5 0.4
v 5.96046e-08 0.5 0.4
v 0.1 0.5 0.4
v 0.3 0.5 0.4
v -0.0999999 0.5 0.3
v 5.96046e-08 0.5 0.3
v 0.1 0.5 0.3
v 0.2 0.5 0.3
v -0.2 0.5 0.2
v -0.0999999 0.5 0.2
v 5.96046e-08 0.5 0.2
v 0.1 0.5 0.2
v 0.2 0.5 0.2
v 0.3 0.5 0.2
v 5.96046e-08 0.5 -0.4
v 0.1 0.5 -0.4
v 5.96046e-08 0.5 -0.7
v 0.1 0.5 -0.7

# faces
f 3/5/1 2/5/1 1/5/1
f 4/5/1 2/5/1 3/5/1
f 9/4/1 6/4/1 5/4/1
f 10/4/1 6/4/1 9/4/1
f 11/6/1 7/6/1 6/6/1
f 11/4/1 6/4/1 10/4/1
f 12/6/1 7/6/1 11/6/1
f 13/6/1 7/6/1 12/6/1
f 14/4/1 8/4/1 7/4/1
f 14/6/1 7/6/1 13/6/1
f 15/4/1 8/4/1 14/4/1
f 17/6/1 11/6/1 10/6/1
f 17/6/1 12/6/1 11/6/1
f 18/6/1 12/6/1 17/6/1
f 19/6/1 16/6/1 15/6/1
f 19/6/1 15/6/1 14/6/1
f 19/6/1 14/6/1 13/6/1
f 20/6/1 16/6/1 19/6/1
f 21/6/1 16/6/1 20/6/1
f 23/6/1 17/6/1 10/6/1
f 24/6/1 17/6/1 23/6/1
f 25/6/1 17/6/1 24/6/1
f 26/6/1 22/6/1 21/6/1
f 26/6/1 21/6/1 20/6/1
f 27/6/1 22/6/1 26/6/1
f 33/3/1 29/3/1 28/3/1
f 34/3/1 29/3/1 33/3/1
f 35/3/1 29/3/1 34/3/1
f 36/3/1 31/3/1 30/3/1
f 37/3/1 31/3/1 36/3/1
f 38/3/1 34/3/1 33/3/1
f 42/3/1 31/3/1 37/3/1
f 43/3/1 31/3/1 42/3/1
f 44/6/1 33/6/1 32/6/1
f 45/3/1 38/3/1 33/3/1
f 45/6/1 33/6/1 44/6/1
f 45/3/1 39/3/1 38/3/1
f 46/3/1 39/3/1 45/3/1
f 47/6/1 41/6/1 40/6/1
f 48/6/1 41/6/1 47/6/1
f 49/6/1 46/6/1 45/6/1
f 50/6/1 46/6/1 49/6/1
f 51/6/1 46/6/1 50/6/1
f 56/1/1 51/1/1 50/1/1
f 57/1/1 51/1/1 56/1/1
f 58/6/1 53/6/1 52/6/1
f 59/6/1 53/6/1 58/6/1
f 60/6/1 55/6/1 54/6/1
f 61/6/1 55/6/1 60/6/1
f 64/5/1 63/5/1 62/5/1
f 65/5/1 63/5/1 64/5/1
f 66/5/2 67/5/2 68/5/2
f 68/5/2 67/5/2 69/5/2
f 70/3/2 71/3/2 75/3/2
f 75/3/2 71/3/2 76/3/2
f 76/3/2 71/3/2 77/3/2
f 72/3/2 73/3/2 79/3/2
f 79/3/2 73/3/2 80/3/2
f 75/3/2 76/3/2 81/3/2
f 77/4/2 78/4/2 83/4/2
f 83/4/2 78/4/2 84/4/2
f 80/3/2 73/3/2 87/3/2
f 87/3/2 73/3/2 88/3/2
f 74/6/2 75/6/2 89/6/2
f 81/3/2 82/3/2 90/3/2
f 89/6/2 75/6/2 90/6/2
f 75/3/2 81/3/2 90/3/2
f 90/3/2 82/3/2 91/3/2
f 85/6/2 86/6/2 92/6/2
f 92/6/2 86/6/2 93/6/2
f 90/6/2 91/6/2 94/6/2
f 94/6/2 91/6/2 95/6/2
f 95/6/2 91/6/2 96/6/2
f 95/1/2 96/1/2 101/1/2
f 101/1/2 96/1/2 102/1/2
f 97/6/2 98/6/2 103/6/2
f 103/6/2 98/6/2 104/6/2
f 99/6/2 100/6/2 105/6/2
f 105/6/2 100/6/2 106/6/2
f 107/4/2 108/4/2 112/4/2
f 112/4/2 108/4/2 113/4/2
f 113/4/2 108/4/2 114/4/2
f 109/6/2 110/6/2 115/6/2
f 115/6/2 110/6/2 116/6/2
f 116/6/2 110/6/2 117/6/2
f 110/4/2 111/4/2 118/4/2
f 117/6/2 110/6/2 118/6/2
f 118/4/2 111/4/2 119/4/2
f 113/6/2 114/6/2 121/6/2
f 114/6/2 115/6/2 121/6/2
f 115/6/2 116/6/2 121/6/2
f 121/6/2 116/6/2 122/6/2
f 119/6/2 120/6/2 123/6/2
f 118/6/2 119/6/2 123/6/2
f 117/6/2 118/6/2 123/6/2
f 123/6/2 120/6/2 124/6/2
f 124/6/2 120/6/2 125/6/2
f 113/6/2 121/6/2 127/6/2
f 127/6/2 121/6/2 128/6/2
f 128/6/2 121/6/2 129/6/2
f 125/6/2 126/6/2 130/6/2
f 124/6/2 125/6/2 130/6/2
f 130/6/2 126/6/2 131/6/2
f 132/5/2 133/5/2 134/5/2
f 134/5/2 133/5/2 135/5/2
f 138/6/3 137/6/3 136/6/3
f 139/6/3 137/6/3 138/6/3
f 144/3/3 141/3/3 140/3/3
f 145/3/3 141/3/3 144/3/3
f 146/6/3 143/6/3 142/6/3
f 147/6/3 143/6/3 146/6/3
f 150/4/3 149/4/3 148/4/3
f 151/4/3 149/4/3 150/4/3
f 156/1/3 153/1/3 152/1/3
f 157/1/3 153/1/3 156/1/3
f 158/4/3 155/4/3 154/4/3
f 159/4/3 155/4/3 158/4/3
f 163/5/3 161/5/3 160/5/3
f 164/6/3 163/6/3 162/6/3
f 165/6/3 163/6/3 164/6/3
f 166/5/3 161/5/3 163/5/3
f 166/6/3 163/6/3 165/6/3
f 167/5/3 161/5/3 166/5/3
f 172/6/3 169/6/3 168/6/3
f 172/6/3 170/6/3 169/6/3
f 173/5/3 171/5/3 170/5/3
f 173/6/3 170/6/3 172/6/3
f 174/5/3 171/5/3 173/5/3
f 175/5/3 171/5/3 174/5/3
f 178/6/3 177/6/3 176/6/3
f 179/6/3 177/6/3 178/6/3
f 182/6/3 181/6/3 180/6/3
f 183/6/3 181/6/3 182/6/3
f 186/6/3 185/6/3 184/6/3
f 187/6/3 185/6/3 186/6/3
f 192/3/3 191/3/3 190/3/3
f 193/3/3 191/3/3 192/3/3
f 194/6/3 189/6/3 188/6/3
f 195/6/3 189/6/3 194/6/3
f 198/6/3 197/6/3 196/6/3
f 199/6/3 197/6/3 198/6/3
f 200/5/4 201/5/4 204/5/4
f 204/5/4 201/5/4 205/5/4
f 202/3/4 203/3/4 206/3/4
f 206/3/4 203/3/4 207/3/4
f 207/4/4 208/4/4 211/4/4
f 211/4/4 208/4/4 212/4/4
f 209/5/4 210/5/4 213/5/4
f 213/5/4 210/5/4 214/5/4
f 215/5/4 216/5/4 217/5/4
f 217/5/4 216/5/4 218/5/4
f 219/6/4 220/6/4 221/6/4
f 221/6/4 220/6/4 222/6/4
f 223/5/4 224/5/4 225/5/4
f 225/5/4 224/5/4 226/5/4
f 227/6/4 228/6/4 229/6/4
f 229/6/4 228/6/4 230/6/4
f 231/6/4 232/6/4 233/6/4
f 233/6/4 232/6/4 234/6/4
f 235/6/4 236/6/4 237/6/4
f 237/6/4 236/6/4 238/6/4
f 239/4/4 240/4/4 241/4/4
f 241/4/4 240/4/4 242/4/4
f 243/4/4 244/4/4 245/4/4
f 245/4/4 244/4/4 246/4/4
f 247/6/4 248/6/4 250/6/4
f 250/6/4 248/6/4 251/6/4
f 249/3/4 250/3/4 252/3/4
f 250/3/4 251/3/4 252/3/4
f 252/3/4 251/3/4 253/3/4
f 253/3/4 251/3/4 254/3/4
f 253/6/4 254/6/4 255/6/4
f 255/6/4 254/6/4 256/6/4
f 257/6/4 258/6/4 259/6/4
f 259/6/4 258/6/4 260/6/4
f 259/2/4 260/2/4 262/2/4
f 260/6/4 261/6/4 263/6/4
f 262/2/4 260/2/4 263/2/4
f 263/6/4 261/6/4 264/6/4
f 262/6/4 263/6/4 265/6/4
f 265/6/4 263/6/4 266/6/4
f 269/3/5 268/3/5 267/3/5
f 270/3/5 268/3/5 269/3/5
f 273/3/5 272/3/5 271/3/5
f 274/3/5 272/3/5 273/3/5
f 277/6/5 276/6/5 275/6/5
f 278/6/5 276/6/5 277/6/5
f 283/4/5 280/4/5 279/4/5
f 284/4/5 280/4/5 283/4/5
f 285/4/5 282/4/5 281/4/5
f 286/4/5 282/4/5 285/4/5
f 287/4/5 285/4/5 284/4/5
f 289/6/5 284/6/5 283/6/5
f 290/4/5 287/4/5 284/4/5
f 290/6/5 284/6/5 289/6/5
f 291/6/5 288/6/5 287/6/5
f 291/4/5 287/4/5 290/4/5
f 292/6/5 288/6/5 291/6/5
f 293/4/5 290/4/5 289/4/5
f 294/4/5 290/4/5 293/4/5
f 295/4/5 292/4/5 291/4/5
f 296/4/5 292/4/5 295/4/5
f 299/6/5 298/6/5 297/6/5
f 300/6/5 298/6/5 299/6/5
f 305/6/5 302/6/5 301/6/5
f 306/6/5 302/6/5 305/6/5
f 307/6/5 304/6/5 303/6/5
f 308/6/5 304/6/5 307/6/5
f 313/6/5 310/6/5 309/6/5
f 314/2/5 311/2/5 310/2/5
f 314/6/5 310/6/5 313/6/5
f 315/6/5 312/6/5 311/6/5
f 315/2/5 311/2/5 314/2/5
f 316/6/5 312/6/5 315/6/5
f 321/5/5 318/5/5 317/5/5
f 322/5/5 318/5/5 321/5/5
f 323/5/5 320/5/5 319/5/5
f 324/5/5 320/5/5 323/5/5
f 325/4/6 326/4/6 329/4/6
f 329/4/6 326/4/6 330/4/6
f 327/4/6 328/4/6 331/4/6
f 331/4/6 328/4/6 332/4/6
f 333/6/6 334/6/6 337/6/6
f 337/6/6 334/6/6 338/6/6
f 335/6/6 336/6/6 339/6/6
f 339/6/6 336/6/6 340/6/6
f 341/6/6 342/6/6 343/6/6
f 343/6/6 342/6/6 344/6/6
f 345/6/6 346/6/6 347/6/6
f 347/6/6 346/6/6 348/6/6
f 348/6/6 346/6/6 349/6/6
f 349/6/6 346/6/6 350/6/6
f 348/6/6 349/6/6 352/6/6
f 352/6/6 349/6/6 353/6/6
f 351/6/6 352/6/6 355/6/6
f 353/6/6 354/6/6 355/6/6
f 352/6/6 353/6/6 355/6/6
f 355/6/6 354/6/6 356/6/6
f 357/6/6 358/6/6 359/6/6
f 359/6/6 358/6/6 360/6/6
f 361/6/6 362/6/6 365/6/6
f 365/6/6 362/6/6 366/6/6
f 363/6/6 364/6/6 367/6/6
f 367/6/6 364/6/6 368/6/6
f 365/6/6 366/6/6 369/6/6
f 366/6/6 367/6/6 369/6/6
f 367/6/6 368/6/6 369/6/6
f 369/6/6 368/6/6 370/6/6
f 371/6/6 372/6/6 373/6/6
f 373/6/6 372/6/6 374/6/6
f 371/6/6 373/6/6 375/6/6
f 375/6/6 373/6/6 376/6/6
f 374/6/6 372/6/6 377/6/6
f 377/6/6 372/6/6 378/6/6
f 379/1/6 380/1/6 382/1/6
f 382/1/6 380/1/6 383/1/6
f 381/5/6 382/5/6 385/5/6
f 383/5/6 384/5/6 385/5/6
f 382/5/6 383/5/6 385/5/6
f 385/5/6 384/5/6 386/5/6
f 386/5/6 384/5/6 387/5/6
f 387/5/6 384/5/6 388/5/6
f 381/5/6 385/5/6 389/5/6
f 389/5/6 385/5/6 390/5/6
f 386/6/6 387/6/6 391/6/6
f 391/6/6 387/6/6 392/6/6
f 388/5/6 384/5/6 393/5/6
f 393/5/6 384/5/6 394/5/6
f 395/6/6 396/6/6 397/6/6
f 397/6/6 396/6/6 398/6/6
