# MagicaVoxel @ Ephtracy

# group
o 

# material
mtllib BIKE4.mtl
usemtl palette

# normals
vn -1 0 0
vn 1 0 0
vn 0 0 1
vn 0 0 -1
vn 0 -1 0
vn 0 1 0

# texcoords
vt 0.0214844 0.5
vt 0.115234 0.5
vt 0.865234 0.5
vt 0.876953 0.5
vt 0.982422 0.5
vt 0.986328 0.5

# verts
v -0.2 0.4 0.4
v -0.2 0.4 0.2
v -0.2 0.5 0.4
v -0.2 0.5 0.2
v -0.0999999 0.1 0.5
v -0.0999999 0.1 0.3
v -0.0999999 0.1 -0.3
v -0.0999999 0.1 -0.5
v -0.0999999 0.2 0.5
v -0.0999999 0.2 0.4
v -0.0999999 0.2 0.3
v -0.0999999 0.2 -5.96046e-08
v -0.0999999 0.2 -0.2
v -0.0999999 0.2 -0.3
v -0.0999999 0.2 -0.5
v -0.0999999 0.2 -0.6
v -0.0999999 0.3 0.1
v -0.0999999 0.3 -5.96046e-08
v -0.0999999 0.3 -0.2
v -0.0999999 0.3 -0.3
v -0.0999999 0.3 -0.6
v -0.0999999 0.3 -0.7
v -0.0999999 0.4 0.4
v -0.0999999 0.4 0.2
v -0.0999999 0.4 0.1
v -0.0999999 0.4 -0.3
v -0.0999999 0.4 -0.7
v 5.96046e-08 0 0.6
v 5.96046e-08 0 0.3
v 5.96046e-08 0 -0.3
v 5.96046e-08 0 -0.6
v 5.96046e-08 0.1 0.7
v 5.96046e-08 0.1 0.6
v 5.96046e-08 0.1 0.5
v 5.96046e-08 0.1 0.3
v 5.96046e-08 0.1 -0.3
v 5.96046e-08 0.1 -0.5
v 5.96046e-08 0.2 0.5
v 5.96046e-08 0.2 0.4
v 5.96046e-08 0.2 -5.96046e-08
v 5.96046e-08 0.2 -0.2
v 5.96046e-08 0.2 -0.5
v 5.96046e-08 0.2 -0.6
v 5.96046e-08 0.3 0.7
v 5.96046e-08 0.3 0.6
v 5.96046e-08 0.3 0.4
v 5.96046e-08 0.3 -5.96046e-08
v 5.96046e-08 0.3 -0.2
v 5.96046e-08 0.4 0.6
v 5.96046e-08 0.4 0.5
v 5.96046e-08 0.4 0.4
v 5.96046e-08 0.4 0.3
v 5.96046e-08 0.4 0.2
v 5.96046e-08 0.4 -0.4
v 5.96046e-08 0.4 -0.7
v 5.96046e-08 0.5 0.5
v 5.96046e-08 0.5 0.4
v 5.96046e-08 0.5 0.3
v 5.96046e-08 0.5 0.2
v 5.96046e-08 0.5 -0.4
v 5.96046e-08 0.5 -0.7
v 0.2 0.4 0.3
v 0.2 0.4 0.2
v 0.2 0.5 0.3
v 0.2 0.5 0.2
v -0.0999999 0.4 0.3
v -0.0999999 0.4 0.2
v -0.0999999 0.5 0.3
v -0.0999999 0.5 0.2
v 0.1 0 0.6
v 0.1 0 0.3
v 0.1 0 -0.3
v 0.1 0 -0.6
v 0.1 0.1 0.7
v 0.1 0.1 0.6
v 0.1 0.1 0.5
v 0.1 0.1 0.3
v 0.1 0.1 0.1
v 0.1 0.1 -0.3
v 0.1 0.1 -0.5
v 0.1 0.2 0.5
v 0.1 0.2 0.4
v 0.1 0.2 0.3
v 0.1 0.2 0.1
v 0.1 0.2 -5.96046e-08
v 0.1 0.2 -0.2
v 0.1 0.2 -0.5
v 0.1 0.2 -0.6
v 0.1 0.3 0.7
v 0.1 0.3 0.6
v 0.1 0.3 0.4
v 0.1 0.3 -5.96046e-08
v 0.1 0.3 -0.2
v 0.1 0.4 0.6
v 0.1 0.4 0.5
v 0.1 0.4 0.4
v 0.1 0.4 0.3
v 0.1 0.4 0.2
v 0.1 0.4 -0.4
v 0.1 0.4 -0.7
v 0.1 0.5 0.5
v 0.1 0.5 0.4
v 0.1 0.5 0.3
v 0.1 0.5 0.2
v 0.1 0.5 -0.4
v 0.1 0.5 -0.7
v 0.2 0.1 0.5
v 0.2 0.1 0.3
v 0.2 0.1 0.1
v 0.2 0.1 -0.3
v 0.2 0.1 -0.5
v 0.2 0.2 0.5
v 0.2 0.2 0.4
v 0.2 0.2 0.3
v 0.2 0.2 0.1
v 0.2 0.2 -5.96046e-08
v 0.2 0.2 -0.2
v 0.2 0.2 -0.3
v 0.2 0.2 -0.5
v 0.2 0.2 -0.6
v 0.2 0.3 0.1
v 0.2 0.3 -5.96046e-08
v 0.2 0.3 -0.2
v 0.2 0.3 -0.3
v 0.2 0.3 -0.6
v 0.2 0.3 -0.7
v 0.2 0.4 0.4
v 0.2 0.4 0.2
v 0.2 0.4 0.1
v 0.2 0.4 -0.3
v 0.2 0.4 -0.7
v 0.3 0.4 0.4
v 0.3 0.4 0.2
v 0.3 0.5 0.4
v 0.3 0.5 0.2
v 5.96046e-08 0.1 0.7
v 5.96046e-08 0.3 0.7
v 0.1 0.1 0.7
v 0.1 0.3 0.7
v 5.96046e-08 0 0.6
v 5.96046e-08 0.1 0.6
v 5.96046e-08 0.3 0.6
v 5.96046e-08 0.4 0.6
v 0.1 0 0.6
v 0.1 0.1 0.6
v 0.1 0.3 0.6
v 0.1 0.4 0.6
v -0.0999999 0.1 0.5
v -0.0999999 0.2 0.5
v 5.96046e-08 0.1 0.5
v 5.96046e-08 0.2 0.5
v 5.96046e-08 0.4 0.5
v 5.96046e-08 0.5 0.5
v 0.1 0.1 0.5
v 0.1 0.2 0.5
v 0.1 0.4 0.5
v 0.1 0.5 0.5
v 0.2 0.1 0.5
v 0.2 0.2 0.5
v -0.2 0.4 0.4
v -0.2 0.5 0.4
v -0.0999999 0.2 0.4
v -0.0999999 0.4 0.4
v 5.96046e-08 0.2 0.4
v 5.96046e-08 0.3 0.4
v 5.96046e-08 0.4 0.4
v 5.96046e-08 0.5 0.4
v 0.1 0.2 0.4
v 0.1 0.3 0.4
v 0.1 0.4 0.4
v 0.1 0.5 0.4
v 0.2 0.2 0.4
v 0.2 0.4 0.4
v 0.3 0.4 0.4
v 0.3 0.5 0.4
v 0.1 0.1 0.1
v 0.1 0.2 0.1
v 0.2 0.1 0.1
v 0.2 0.2 0.1
v -0.0999999 0.2 -0.2
v -0.0999999 0.3 -0.2
v 5.96046e-08 0.2 -0.2
v 5.96046e-08 0.3 -0.2
v 0.1 0.2 -0.2
v 0.1 0.3 -0.2
v 0.2 0.2 -0.2
v 0.2 0.3 -0.2
v -0.0999999 0.3 -0.3
v -0.0999999 0.4 -0.3
v 5.96046e-08 0 -0.3
v 5.96046e-08 0.1 -0.3
v 0.1 0 -0.3
v 0.1 0.1 -0.3
v 0.2 0.3 -0.3
v 0.2 0.4 -0.3
v 5.96046e-08 0.4 -0.4
v 5.96046e-08 0.5 -0.4
v 0.1 0.4 -0.4
v 0.1 0.5 -0.4
v -0.0999999 0.4 0.3
v -0.0999999 0.5 0.3
v 5.96046e-08 0 0.3
v 5.96046e-08 0.1 0.3
v 5.96046e-08 0.4 0.3
v 5.96046e-08 0.5 0.3
v 0.1 0 0.3
v 0.1 0.1 0.3
v 0.1 0.2 0.3
v 0.1 0.4 0.3
v 0.1 0.5 0.3
v 0.2 0.1 0.3
v 0.2 0.2 0.3
v 0.2 0.4 0.3
v 0.2 0.5 0.3
v -0.2 0.4 0.2
v -0.2 0.5 0.2
v -0.0999999 0.4 0.2
v -0.0999999 0.5 0.2
v 5.96046e-08 0.4 0.2
v 5.96046e-08 0.5 0.2
v 0.1 0.4 0.2
v 0.1 0.5 0.2
v 0.2 0.4 0.2
v 0.2 0.5 0.2
v 0.3 0.4 0.2
v 0.3 0.5 0.2
v -0.0999999 0.3 0.1
v -0.0999999 0.4 0.1
v 0.2 0.3 0.1
v 0.2 0.4 0.1
v -0.0999999 0.2 -5.96046e-08
v -0.0999999 0.3 -5.96046e-08
v 5.96046e-08 0.2 -5.96046e-08
v 5.96046e-08 0.3 -5.96046e-08
v 0.1 0.2 -5.96046e-08
v 0.1 0.3 -5.96046e-08
v 0.2 0.2 -5.96046e-08
v 0.2 0.3 -5.96046e-08
v -0.0999999 0.1 -0.5
v -0.0999999 0.2 -0.5
v 5.96046e-08 0.1 -0.5
v 5.96046e-08 0.2 -0.5
v 0.1 0.1 -0.5
v 0.1 0.2 -0.5
v 0.2 0.1 -0.5
v 0.2 0.2 -0.5
v -0.0999999 0.2 -0.6
v -0.0999999 0.3 -0.6
v 5.96046e-08 0 -0.6
v 5.96046e-08 0.2 -0.6
v 5.96046e-08 0.3 -0.6
v 0.1 0 -0.6
v 0.1 0.2 -0.6
v 0.1 0.3 -0.6
v 0.2 0.2 -0.6
v 0.2 0.3 -0.6
v -0.0999999 0.3 -0.7
v -0.0999999 0.4 -0.7
v 5.96046e-08 0.3 -0.7
v 5.96046e-08 0.4 -0.7
v 5.96046e-08 0.5 -0.7
v 0.1 0.3 -0.7
v 0.1 0.4 -0.7
v 0.1 0.5 -0.7
v 0.2 0.3 -0.7
v 0.2 0.4 -0.7
v 5.96046e-08 0 0.6
v 0.1 0 0.6
v 5.96046e-08 0 0.3
v 0.1 0 0.3
v 5.96046e-08 0 -0.3
v 0.1 0 -0.3
v 5.96046e-08 0 -0.6
v 0.1 0 -0.6
v 5.96046e-08 0.1 0.7
v 0.1 0.1 0.7
v 5.96046e-08 0.1 0.6
v 0.1 0.1 0.6
v -0.0999999 0.1 0.5
v 5.96046e-08 0.1 0.5
v 0.1 0.1 0.5
v 0.2 0.1 0.5
v -0.0999999 0.1 0.3
v 5.96046e-08 0.1 0.3
v 0.1 0.1 0.3
v 0.2 0.1 0.3
v 0.1 0.1 0.1
v 0.2 0.1 0.1
v -0.0999999 0.1 -0.3
v 5.96046e-08 0.1 -0.3
v 0.1 0.1 -0.3
v 0.2 0.1 -0.3
v -0.0999999 0.1 -0.5
v 5.96046e-08 0.1 -0.5
v 0.1 0.1 -0.5
v 0.2 0.1 -0.5
v 0.1 0.2 0.3
v 0.2 0.2 0.3
v 0.1 0.2 0.1
v 0.2 0.2 0.1
v -0.0999999 0.2 -0.5
v 5.96046e-08 0.2 -0.5
v 0.1 0.2 -0.5
v 0.2 0.2 -0.5
v -0.0999999 0.2 -0.6
v 5.96046e-08 0.2 -0.6
v 0.1 0.2 -0.6
v 0.2 0.2 -0.6
v -0.0999999 0.3 -0.6
v 5.96046e-08 0.3 -0.6
v 0.1 0.3 -0.6
v 0.2 0.3 -0.6
v -0.0999999 0.3 -0.7
v 5.96046e-08 0.3 -0.7
v 0.1 0.3 -0.7
v 0.2 0.3 -0.7
v -0.2 0.4 0.4
v -0.0999999 0.4 0.4
v 0.2 0.4 0.4
v 0.3 0.4 0.4
v -0.2 0.4 0.2
v -0.0999999 0.4 0.2
v 0.2 0.4 0.2
v 0.3 0.4 0.2
v -0.0999999 0.2 0.5
v 5.96046e-08 0.2 0.5
v 0.1 0.2 0.5
v 0.2 0.2 0.5
v -0.0999999 0.2 0.4
v 5.96046e-08 0.2 0.4
v 0.1 0.2 0.4
v 0.2 0.2 0.4
v -0.0999999 0.2 -5.96046e-08
v 5.96046e-08 0.2 -5.96046e-08
v 0.1 0.2 -5.96046e-08
v 0.2 0.2 -5.96046e-08
v -0.0999999 0.2 -0.2
v 5.96046e-08 0.2 -0.2
v 0.1 0.2 -0.2
v 0.2 0.2 -0.2
v 5.96046e-08 0.3 0.7
v 0.1 0.3 0.7
v 5.96046e-08 0.3 0.6
v 0.1 0.3 0.6
v -0.0999999 0.3 0.1
v 0.2 0.3 0.1
v -0.0999999 0.3 -5.96046e-08
v 5.96046e-08 0.3 -5.96046e-08
v 0.1 0.3 -5.96046e-08
v 0.2 0.3 -5.96046e-08
v -0.0999999 0.3 -0.2
v 5.96046e-08 0.3 -0.2
v 0.1 0.3 -0.2
v 0.2 0.3 -0.2
v -0.0999999 0.3 -0.3
v 0.2 0.3 -0.3
v 5.96046e-08 0.4 0.6
v 0.1 0.4 0.6
v 5.96046e-08 0.4 0.5
v 0.1 0.4 0.5
v -0.0999999 0.4 0.3
v 5.96046e-08 0.4 0.3
v 0.1 0.4 0.3
v 0.2 0.4 0.3
v -0.0999999 0.4 0.2
v 5.96046e-08 0.4 0.2
v 0.1 0.4 0.2
v 0.2 0.4 0.2
v -0.0999999 0.4 0.1
v 0.2 0.4 0.1
v -0.0999999 0.4 -0.3
v 0.2 0.4 -0.3
v 5.96046e-08 0.4 -0.4
v 0.1 0.4 -0.4
v -0.0999999 0.4 -0.7
v 5.96046e-08 0.4 -0.7
v 0.1 0.4 -0.7
v 0.2 0.4 -0.7
v 5.96046e-08 0.5 0.5
v 0.1 0.5 0.5
v -0.2 0.5 0.4
v 5.96046e-08 0.5 0.4
v 0.1 0.5 0.4
v 0.3 0.5 0.4
v -0.0999999 0.5 0.3
v 5.96046e-08 0.5 0.3
v 0.1 0.5 0.3
v 0.2 0.5 0.3
v -0.2 0.5 0.2
v -0.0999999 0.5 0.2
v 5.96046e-08 0.5 0.2
v 0.1 0.5 0.2
v 0.2 0.5 0.2
v 0.3 0.5 0.2
v 5.96046e-08 0.5 -0.4
v 0.1 0.5 -0.4
v 5.96046e-08 0.5 -0.7
v 0.1 0.5 -0.7

# faces
f 3/6/1 2/6/1 1/6/1
f 4/6/1 2/6/1 3/6/1
f 9/5/1 6/5/1 5/5/1
f 10/5/1 6/5/1 9/5/1
f 11/3/1 7/3/1 6/3/1
f 11/5/1 6/5/1 10/5/1
f 12/3/1 7/3/1 11/3/1
f 13/3/1 7/3/1 12/3/1
f 14/5/1 8/5/1 7/5/1
f 14/3/1 7/3/1 13/3/1
f 15/5/1 8/5/1 14/5/1
f 17/3/1 11/3/1 10/3/1
f 17/3/1 12/3/1 11/3/1
f 18/3/1 12/3/1 17/3/1
f 19/3/1 16/3/1 15/3/1
f 19/3/1 15/3/1 14/3/1
f 19/3/1 14/3/1 13/3/1
f 20/3/1 16/3/1 19/3/1
f 21/3/1 16/3/1 20/3/1
f 23/3/1 17/3/1 10/3/1
f 24/3/1 17/3/1 23/3/1
f 25/3/1 17/3/1 24/3/1
f 26/3/1 22/3/1 21/3/1
f 26/3/1 21/3/1 20/3/1
f 27/3/1 22/3/1 26/3/1
f 33/4/1 29/4/1 28/4/1
f 34/4/1 29/4/1 33/4/1
f 35/4/1 29/4/1 34/4/1
f 36/4/1 31/4/1 30/4/1
f 37/4/1 31/4/1 36/4/1
f 38/4/1 34/4/1 33/4/1
f 42/4/1 31/4/1 37/4/1
f 43/4/1 31/4/1 42/4/1
f 44/3/1 33/3/1 32/3/1
f 45/4/1 38/4/1 33/4/1
f 45/3/1 33/3/1 44/3/1
f 45/4/1 39/4/1 38/4/1
f 46/4/1 39/4/1 45/4/1
f 47/3/1 41/3/1 40/3/1
f 48/3/1 41/3/1 47/3/1
f 49/3/1 46/3/1 45/3/1
f 50/3/1 46/3/1 49/3/1
f 51/3/1 46/3/1 50/3/1
f 56/1/1 51/1/1 50/1/1
f 57/1/1 51/1/1 56/1/1
f 58/3/1 53/3/1 52/3/1
f 59/3/1 53/3/1 58/3/1
f 60/3/1 55/3/1 54/3/1
f 61/3/1 55/3/1 60/3/1
f 64/6/1 63/6/1 62/6/1
f 65/6/1 63/6/1 64/6/1
f 66/6/2 67/6/2 68/6/2
f 68/6/2 67/6/2 69/6/2
f 70/4/2 71/4/2 75/4/2
f 75/4/2 71/4/2 76/4/2
f 76/4/2 71/4/2 77/4/2
f 72/4/2 73/4/2 79/4/2
f 79/4/2 73/4/2 80/4/2
f 75/4/2 76/4/2 81/4/2
f 77/5/2 78/5/2 83/5/2
f 83/5/2 78/5/2 84/5/2
f 80/4/2 73/4/2 87/4/2
f 87/4/2 73/4/2 88/4/2
f 74/3/2 75/3/2 89/3/2
f 81/4/2 82/4/2 90/4/2
f 89/3/2 75/3/2 90/3/2
f 75/4/2 81/4/2 90/4/2
f 90/4/2 82/4/2 91/4/2
f 85/3/2 86/3/2 92/3/2
f 92/3/2 86/3/2 93/3/2
f 90/3/2 91/3/2 94/3/2
f 94/3/2 91/3/2 95/3/2
f 95/3/2 91/3/2 96/3/2
f 95/1/2 96/1/2 101/1/2
f 101/1/2 96/1/2 102/1/2
f 97/3/2 98/3/2 103/3/2
f 103/3/2 98/3/2 104/3/2
f 99/3/2 100/3/2 105/3/2
f 105/3/2 100/3/2 106/3/2
f 107/5/2 108/5/2 112/5/2
f 112/5/2 108/5/2 113/5/2
f 113/5/2 108/5/2 114/5/2
f 109/3/2 110/3/2 115/3/2
f 115/3/2 110/3/2 116/3/2
f 116/3/2 110/3/2 117/3/2
f 110/5/2 111/5/2 118/5/2
f 117/3/2 110/3/2 118/3/2
f 118/5/2 111/5/2 119/5/2
f 113/3/2 114/3/2 121/3/2
f 114/3/2 115/3/2 121/3/2
f 115/3/2 116/3/2 121/3/2
f 121/3/2 116/3/2 122/3/2
f 119/3/2 120/3/2 123/3/2
f 118/3/2 119/3/2 123/3/2
f 117/3/2 118/3/2 123/3/2
f 123/3/2 120/3/2 124/3/2
f 124/3/2 120/3/2 125/3/2
f 113/3/2 121/3/2 127/3/2
f 127/3/2 121/3/2 128/3/2
f 128/3/2 121/3/2 129/3/2
f 125/3/2 126/3/2 130/3/2
f 124/3/2 125/3/2 130/3/2
f 130/3/2 126/3/2 131/3/2
f 132/6/2 133/6/2 134/6/2
f 134/6/2 133/6/2 135/6/2
f 138/3/3 137/3/3 136/3/3
f 139/3/3 137/3/3 138/3/3
f 144/4/3 141/4/3 140/4/3
f 145/4/3 141/4/3 144/4/3
f 146/3/3 143/3/3 142/3/3
f 147/3/3 143/3/3 146/3/3
f 150/5/3 149/5/3 148/5/3
f 151/5/3 149/5/3 150/5/3
f 156/1/3 153/1/3 152/1/3
f 157/1/3 153/1/3 156/1/3
f 158/5/3 155/5/3 154/5/3
f 159/5/3 155/5/3 158/5/3
f 163/6/3 161/6/3 160/6/3
f 164/3/3 163/3/3 162/3/3
f 165/3/3 163/3/3 164/3/3
f 166/6/3 161/6/3 163/6/3
f 166/3/3 163/3/3 165/3/3
f 167/6/3 161/6/3 166/6/3
f 172/3/3 169/3/3 168/3/3
f 172/3/3 170/3/3 169/3/3
f 173/6/3 171/6/3 170/6/3
f 173/3/3 170/3/3 172/3/3
f 174/6/3 171/6/3 173/6/3
f 175/6/3 171/6/3 174/6/3
f 178/3/3 177/3/3 176/3/3
f 179/3/3 177/3/3 178/3/3
f 182/3/3 181/3/3 180/3/3
f 183/3/3 181/3/3 182/3/3
f 186/3/3 185/3/3 184/3/3
f 187/3/3 185/3/3 186/3/3
f 192/4/3 191/4/3 190/4/3
f 193/4/3 191/4/3 192/4/3
f 194/3/3 189/3/3 188/3/3
f 195/3/3 189/3/3 194/3/3
f 198/3/3 197/3/3 196/3/3
f 199/3/3 197/3/3 198/3/3
f 200/6/4 201/6/4 204/6/4
f 204/6/4 201/6/4 205/6/4
f 202/4/4 203/4/4 206/4/4
f 206/4/4 203/4/4 207/4/4
f 207/5/4 208/5/4 211/5/4
f 211/5/4 208/5/4 212/5/4
f 209/6/4 210/6/4 213/6/4
f 213/6/4 210/6/4 214/6/4
f 215/6/4 216/6/4 217/6/4
f 217/6/4 216/6/4 218/6/4
f 219/3/4 220/3/4 221/3/4
f 221/3/4 220/3/4 222/3/4
f 223/6/4 224/6/4 225/6/4
f 225/6/4 224/6/4 226/6/4
f 227/3/4 228/3/4 229/3/4
f 229/3/4 228/3/4 230/3/4
f 231/3/4 232/3/4 233/3/4
f 233/3/4 232/3/4 234/3/4
f 235/3/4 236/3/4 237/3/4
f 237/3/4 236/3/4 238/3/4
f 239/5/4 240/5/4 241/5/4
f 241/5/4 240/5/4 242/5/4
f 243/5/4 244/5/4 245/5/4
f 245/5/4 244/5/4 246/5/4
f 247/3/4 248/3/4 250/3/4
f 250/3/4 248/3/4 251/3/4
f 249/4/4 250/4/4 252/4/4
f 250/4/4 251/4/4 252/4/4
f 252/4/4 251/4/4 253/4/4
f 253/4/4 251/4/4 254/4/4
f 253/3/4 254/3/4 255/3/4
f 255/3/4 254/3/4 256/3/4
f 257/3/4 258/3/4 259/3/4
f 259/3/4 258/3/4 260/3/4
f 259/2/4 260/2/4 262/2/4
f 260/3/4 261/3/4 263/3/4
f 262/2/4 260/2/4 263/2/4
f 263/3/4 261/3/4 264/3/4
f 262/3/4 263/3/4 265/3/4
f 265/3/4 263/3/4 266/3/4
f 269/4/5 268/4/5 267/4/5
f 270/4/5 268/4/5 269/4/5
f 273/4/5 272/4/5 271/4/5
f 274/4/5 272/4/5 273/4/5
f 277/3/5 276/3/5 275/3/5
f 278/3/5 276/3/5 277/3/5
f 283/5/5 280/5/5 279/5/5
f 284/5/5 280/5/5 283/5/5
f 285/5/5 282/5/5 281/5/5
f 286/5/5 282/5/5 285/5/5
f 287/5/5 285/5/5 284/5/5
f 289/3/5 284/3/5 283/3/5
f 290/5/5 287/5/5 284/5/5
f 290/3/5 284/3/5 289/3/5
f 291/3/5 288/3/5 287/3/5
f 291/5/5 287/5/5 290/5/5
f 292/3/5 288/3/5 291/3/5
f 293/5/5 290/5/5 289/5/5
f 294/5/5 290/5/5 293/5/5
f 295/5/5 292/5/5 291/5/5
f 296/5/5 292/5/5 295/5/5
f 299/3/5 298/3/5 297/3/5
f 300/3/5 298/3/5 299/3/5
f 305/3/5 302/3/5 301/3/5
f 306/3/5 302/3/5 305/3/5
f 307/3/5 304/3/5 303/3/5
f 308/3/5 304/3/5 307/3/5
f 313/3/5 310/3/5 309/3/5
f 314/2/5 311/2/5 310/2/5
f 314/3/5 310/3/5 313/3/5
f 315/3/5 312/3/5 311/3/5
f 315/2/5 311/2/5 314/2/5
f 316/3/5 312/3/5 315/3/5
f 321/6/5 318/6/5 317/6/5
f 322/6/5 318/6/5 321/6/5
f 323/6/5 320/6/5 319/6/5
f 324/6/5 320/6/5 323/6/5
f 325/5/6 326/5/6 329/5/6
f 329/5/6 326/5/6 330/5/6
f 327/5/6 328/5/6 331/5/6
f 331/5/6 328/5/6 332/5/6
f 333/3/6 334/3/6 337/3/6
f 337/3/6 334/3/6 338/3/6
f 335/3/6 336/3/6 339/3/6
f 339/3/6 336/3/6 340/3/6
f 341/3/6 342/3/6 343/3/6
f 343/3/6 342/3/6 344/3/6
f 345/3/6 346/3/6 347/3/6
f 347/3/6 346/3/6 348/3/6
f 348/3/6 346/3/6 349/3/6
f 349/3/6 346/3/6 350/3/6
f 348/3/6 349/3/6 352/3/6
f 352/3/6 349/3/6 353/3/6
f 351/3/6 352/3/6 355/3/6
f 353/3/6 354/3/6 355/3/6
f 352/3/6 353/3/6 355/3/6
f 355/3/6 354/3/6 356/3/6
f 357/3/6 358/3/6 359/3/6
f 359/3/6 358/3/6 360/3/6
f 361/3/6 362/3/6 365/3/6
f 365/3/6 362/3/6 366/3/6
f 363/3/6 364/3/6 367/3/6
f 367/3/6 364/3/6 368/3/6
f 365/3/6 366/3/6 369/3/6
f 366/3/6 367/3/6 369/3/6
f 367/3/6 368/3/6 369/3/6
f 369/3/6 368/3/6 370/3/6
f 371/3/6 372/3/6 373/3/6
f 373/3/6 372/3/6 374/3/6
f 371/3/6 373/3/6 375/3/6
f 375/3/6 373/3/6 376/3/6
f 374/3/6 372/3/6 377/3/6
f 377/3/6 372/3/6 378/3/6
f 379/1/6 380/1/6 382/1/6
f 382/1/6 380/1/6 383/1/6
f 381/6/6 382/6/6 385/6/6
f 383/6/6 384/6/6 385/6/6
f 382/6/6 383/6/6 385/6/6
f 385/6/6 384/6/6 386/6/6
f 386/6/6 384/6/6 387/6/6
f 387/6/6 384/6/6 388/6/6
f 381/6/6 385/6/6 389/6/6
f 389/6/6 385/6/6 390/6/6
f 386/3/6 387/3/6 391/3/6
f 391/3/6 387/3/6 392/3/6
f 388/6/6 384/6/6 393/6/6
f 393/6/6 384/6/6 394/6/6
f 395/3/6 396/3/6 397/3/6
f 397/3/6 396/3/6 398/3/6
