# MagicaVoxel @ Ephtracy

# group
o 

# material
mtllib BIKE6.mtl
usemtl palette

# normals
vn -1 0 0
vn 1 0 0
vn 0 0 1
vn 0 0 -1
vn 0 -1 0
vn 0 1 0

# texcoords
vt 0.0214844 0.5
vt 0.0917969 0.5
vt 0.115234 0.5
vt 0.876953 0.5
vt 0.982422 0.5
vt 0.986328 0.5

# verts
v -0.2 0.4 0.4
v -0.2 0.4 0.2
v -0.2 0.5 0.4
v -0.2 0.5 0.2
v -0.0999999 0.1 0.5
v -0.0999999 0.1 0.3
v -0.0999999 0.1 -0.3
v -0.0999999 0.1 -0.5
v -0.0999999 0.2 0.5
v -0.0999999 0.2 0.4
v -0.0999999 0.2 0.3
v -0.0999999 0.2 -5.96046e-08
v -0.0999999 0.2 -0.2
v -0.0999999 0.2 -0.3
v -0.0999999 0.2 -0.5
v -0.0999999 0.2 -0.6
v -0.0999999 0.3 0.1
v -0.0999999 0.3 -5.96046e-08
v -0.0999999 0.3 -0.2
v -0.0999999 0.3 -0.3
v -0.0999999 0.3 -0.6
v -0.0999999 0.3 -0.7
v -0.0999999 0.4 0.4
v -0.0999999 0.4 0.2
v -0.0999999 0.4 0.1
v -0.0999999 0.4 -0.3
v -0.0999999 0.4 -0.7
v 5.96046e-08 0 0.6
v 5.96046e-08 0 0.3
v 5.96046e-08 0 -0.3
v 5.96046e-08 0 -0.6
v 5.96046e-08 0.1 0.7
v 5.96046e-08 0.1 0.6
v 5.96046e-08 0.1 0.5
v 5.96046e-08 0.1 0.3
v 5.96046e-08 0.1 -0.3
v 5.96046e-08 0.1 -0.5
v 5.96046e-08 0.2 0.5
v 5.96046e-08 0.2 0.4
v 5.96046e-08 0.2 -5.96046e-08
v 5.96046e-08 0.2 -0.2
v 5.96046e-08 0.2 -0.5
v 5.96046e-08 0.2 -0.6
v 5.96046e-08 0.3 0.7
v 5.96046e-08 0.3 0.6
v 5.96046e-08 0.3 0.4
v 5.96046e-08 0.3 -5.96046e-08
v 5.96046e-08 0.3 -0.2
v 5.96046e-08 0.4 0.6
v 5.96046e-08 0.4 0.5
v 5.96046e-08 0.4 0.4
v 5.96046e-08 0.4 0.3
v 5.96046e-08 0.4 0.2
v 5.96046e-08 0.4 -0.4
v 5.96046e-08 0.4 -0.7
v 5.96046e-08 0.5 0.5
v 5.96046e-08 0.5 0.4
v 5.96046e-08 0.5 0.3
v 5.96046e-08 0.5 0.2
v 5.96046e-08 0.5 -0.4
v 5.96046e-08 0.5 -0.7
v 0.2 0.4 0.3
v 0.2 0.4 0.2
v 0.2 0.5 0.3
v 0.2 0.5 0.2
v -0.0999999 0.4 0.3
v -0.0999999 0.4 0.2
v -0.0999999 0.5 0.3
v -0.0999999 0.5 0.2
v 0.1 0 0.6
v 0.1 0 0.3
v 0.1 0 -0.3
v 0.1 0 -0.6
v 0.1 0.1 0.7
v 0.1 0.1 0.6
v 0.1 0.1 0.5
v 0.1 0.1 0.3
v 0.1 0.1 0.1
v 0.1 0.1 -0.3
v 0.1 0.1 -0.5
v 0.1 0.2 0.5
v 0.1 0.2 0.4
v 0.1 0.2 0.3
v 0.1 0.2 0.1
v 0.1 0.2 -5.96046e-08
v 0.1 0.2 -0.2
v 0.1 0.2 -0.5
v 0.1 0.2 -0.6
v 0.1 0.3 0.7
v 0.1 0.3 0.6
v 0.1 0.3 0.4
v 0.1 0.3 -5.96046e-08
v 0.1 0.3 -0.2
v 0.1 0.4 0.6
v 0.1 0.4 0.5
v 0.1 0.4 0.4
v 0.1 0.4 0.3
v 0.1 0.4 0.2
v 0.1 0.4 -0.4
v 0.1 0.4 -0.7
v 0.1 0.5 0.5
v 0.1 0.5 0.4
v 0.1 0.5 0.3
v 0.1 0.5 0.2
v 0.1 0.5 -0.4
v 0.1 0.5 -0.7
v 0.2 0.1 0.5
v 0.2 0.1 0.3
v 0.2 0.1 0.1
v 0.2 0.1 -0.3
v 0.2 0.1 -0.5
v 0.2 0.2 0.5
v 0.2 0.2 0.4
v 0.2 0.2 0.3
v 0.2 0.2 0.1
v 0.2 0.2 -5.96046e-08
v 0.2 0.2 -0.2
v 0.2 0.2 -0.3
v 0.2 0.2 -0.5
v 0.2 0.2 -0.6
v 0.2 0.3 0.1
v 0.2 0.3 -5.96046e-08
v 0.2 0.3 -0.2
v 0.2 0.3 -0.3
v 0.2 0.3 -0.6
v 0.2 0.3 -0.7
v 0.2 0.4 0.4
v 0.2 0.4 0.2
v 0.2 0.4 0.1
v 0.2 0.4 -0.3
v 0.2 0.4 -0.7
v 0.3 0.4 0.4
v 0.3 0.4 0.2
v 0.3 0.5 0.4
v 0.3 0.5 0.2
v 5.96046e-08 0.1 0.7
v 5.96046e-08 0.3 0.7
v 0.1 0.1 0.7
v 0.1 0.3 0.7
v 5.96046e-08 0 0.6
v 5.96046e-08 0.1 0.6
v 5.96046e-08 0.3 0.6
v 5.96046e-08 0.4 0.6
v 0.1 0 0.6
v 0.1 0.1 0.6
v 0.1 0.3 0.6
v 0.1 0.4 0.6
v -0.0999999 0.1 0.5
v -0.0999999 0.2 0.5
v 5.96046e-08 0.1 0.5
v 5.96046e-08 0.2 0.5
v 5.96046e-08 0.4 0.5
v 5.96046e-08 0.5 0.5
v 0.1 0.1 0.5
v 0.1 0.2 0.5
v 0.1 0.4 0.5
v 0.1 0.5 0.5
v 0.2 0.1 0.5
v 0.2 0.2 0.5
v -0.2 0.4 0.4
v -0.2 0.5 0.4
v -0.0999999 0.2 0.4
v -0.0999999 0.4 0.4
v 5.96046e-08 0.2 0.4
v 5.96046e-08 0.3 0.4
v 5.96046e-08 0.4 0.4
v 5.96046e-08 0.5 0.4
v 0.1 0.2 0.4
v 0.1 0.3 0.4
v 0.1 0.4 0.4
v 0.1 0.5 0.4
v 0.2 0.2 0.4
v 0.2 0.4 0.4
v 0.3 0.4 0.4
v 0.3 0.5 0.4
v 0.1 0.1 0.1
v 0.1 0.2 0.1
v 0.2 0.1 0.1
v 0.2 0.2 0.1
v -0.0999999 0.2 -0.2
v -0.0999999 0.3 -0.2
v 5.96046e-08 0.2 -0.2
v 5.96046e-08 0.3 -0.2
v 0.1 0.2 -0.2
v 0.1 0.3 -0.2
v 0.2 0.2 -0.2
v 0.2 0.3 -0.2
v -0.0999999 0.3 -0.3
v -0.0999999 0.4 -0.3
v 5.96046e-08 0 -0.3
v 5.96046e-08 0.1 -0.3
v 0.1 0 -0.3
v 0.1 0.1 -0.3
v 0.2 0.3 -0.3
v 0.2 0.4 -0.3
v 5.96046e-08 0.4 -0.4
v 5.96046e-08 0.5 -0.4
v 0.1 0.4 -0.4
v 0.1 0.5 -0.4
v -0.0999999 0.4 0.3
v -0.0999999 0.5 0.3
v 5.96046e-08 0 0.3
v 5.96046e-08 0.1 0.3
v 5.96046e-08 0.4 0.3
v 5.96046e-08 0.5 0.3
v 0.1 0 0.3
v 0.1 0.1 0.3
v 0.1 0.2 0.3
v 0.1 0.4 0.3
v 0.1 0.5 0.3
v 0.2 0.1 0.3
v 0.2 0.2 0.3
v 0.2 0.4 0.3
v 0.2 0.5 0.3
v -0.2 0.4 0.2
v -0.2 0.5 0.2
v -0.0999999 0.4 0.2
v -0.0999999 0.5 0.2
v 5.96046e-08 0.4 0.2
v 5.96046e-08 0.5 0.2
v 0.1 0.4 0.2
v 0.1 0.5 0.2
v 0.2 0.4 0.2
v 0.2 0.5 0.2
v 0.3 0.4 0.2
v 0.3 0.5 0.2
v -0.0999999 0.3 0.1
v -0.0999999 0.4 0.1
v 0.2 0.3 0.1
v 0.2 0.4 0.1
v -0.0999999 0.2 -5.96046e-08
v -0.0999999 0.3 -5.96046e-08
v 5.96046e-08 0.2 -5.96046e-08
v 5.96046e-08 0.3 -5.96046e-08
v 0.1 0.2 -5.96046e-08
v 0.1 0.3 -5.96046e-08
v 0.2 0.2 -5.96046e-08
v 0.2 0.3 -5.96046e-08
v -0.0999999 0.1 -0.5
v -0.0999999 0.2 -0.5
v 5.96046e-08 0.1 -0.5
v 5.96046e-08 0.2 -0.5
v 0.1 0.1 -0.5
v 0.1 0.2 -0.5
v 0.2 0.1 -0.5
v 0.2 0.2 -0.5
v -0.0999999 0.2 -0.6
v -0.0999999 0.3 -0.6
v 5.96046e-08 0 -0.6
v 5.96046e-08 0.2 -0.6
v 5.96046e-08 0.3 -0.6
v 0.1 0 -0.6
v 0.1 0.2 -0.6
v 0.1 0.3 -0.6
v 0.2 0.2 -0.6
v 0.2 0.3 -0.6
v -0.0999999 0.3 -0.7
v -0.0999999 0.4 -0.7
v 5.96046e-08 0.3 -0.7
v 5.96046e-08 0.4 -0.7
v 5.96046e-08 0.5 -0.7
v 0.1 0.3 -0.7
v 0.1 0.4 -0.7
v 0.1 0.5 -0.7
v 0.2 0.3 -0.7
v 0.2 0.4 -0.7
v 5.96046e-08 0 0.6
v 0.1 0 0.6
v 5.96046e-08 0 0.3
v 0.1 0 0.3
v 5.96046e-08 0 -0.3
v 0.1 0 -0.3
v 5.96046e-08 0 -0.6
v 0.1 0 -0.6
v 5.96046e-08 0.1 0.7
v 0.1 0.1 0.7
v 5.96046e-08 0.1 0.6
v 0.1 0.1 0.6
v -0.0999999 0.1 0.5
v 5.96046e-08 0.1 0.5
v 0.1 0.1 0.5
v 0.2 0.1 0.5
v -0.0999999 0.1 0.3
v 5.96046e-08 0.1 0.3
v 0.1 0.1 0.3
v 0.2 0.1 0.3
v 0.1 0.1 0.1
v 0.2 0.1 0.1
v -0.0999999 0.1 -0.3
v 5.96046e-08 0.1 -0.3
v 0.1 0.1 -0.3
v 0.2 0.1 -0.3
v -0.0999999 0.1 -0.5
v 5.96046e-08 0.1 -0.5
v 0.1 0.1 -0.5
v 0.2 0.1 -0.5
v 0.1 0.2 0.3
v 0.2 0.2 0.3
v 0.1 0.2 0.1
v 0.2 0.2 0.1
v -0.0999999 0.2 -0.5
v 5.96046e-08 0.2 -0.5
v 0.1 0.2 -0.5
v 0.2 0.2 -0.5
v -0.0999999 0.2 -0.6
v 5.96046e-08 0.2 -0.6
v 0.1 0.2 -0.6
v 0.2 0.2 -0.6
v -0.0999999 0.3 -0.6
v 5.96046e-08 0.3 -0.6
v 0.1 0.3 -0.6
v 0.2 0.3 -0.6
v -0.0999999 0.3 -0.7
v 5.96046e-08 0.3 -0.7
v 0.1 0.3 -0.7
v 0.2 0.3 -0.7
v -0.2 0.4 0.4
v -0.0999999 0.4 0.4
v 0.2 0.4 0.4
v 0.3 0.4 0.4
v -0.2 0.4 0.2
v -0.0999999 0.4 0.2
v 0.2 0.4 0.2
v 0.3 0.4 0.2
v -0.0999999 0.2 0.5
v 5.96046e-08 0.2 0.5
v 0.1 0.2 0.5
v 0.2 0.2 0.5
v -0.0999999 0.2 0.4
v 5.96046e-08 0.2 0.4
v 0.1 0.2 0.4
v 0.2 0.2 0.4
v -0.0999999 0.2 -5.96046e-08
v 5.96046e-08 0.2 -5.96046e-08
v 0.1 0.2 -5.96046e-08
v 0.2 0.2 -5.96046e-08
v -0.0999999 0.2 -0.2
v 5.96046e-08 0.2 -0.2
v 0.1 0.2 -0.2
v 0.2 0.2 -0.2
v 5.96046e-08 0.3 0.7
v 0.1 0.3 0.7
v 5.96046e-08 0.3 0.6
v 0.1 0.3 0.6
v -0.0999999 0.3 0.1
v 0.2 0.3 0.1
v -0.0999999 0.3 -5.96046e-08
v 5.96046e-08 0.3 -5.96046e-08
v 0.1 0.3 -5.96046e-08
v 0.2 0.3 -5.96046e-08
v -0.0999999 0.3 -0.2
v 5.96046e-08 0.3 -0.2
v 0.1 0.3 -0.2
v 0.2 0.3 -0.2
v -0.0999999 0.3 -0.3
v 0.2 0.3 -0.3
v 5.96046e-08 0.4 0.6
v 0.1 0.4 0.6
v 5.96046e-08 0.4 0.5
v 0.1 0.4 0.5
v -0.0999999 0.4 0.3
v 5.96046e-08 0.4 0.3
v 0.1 0.4 0.3
v 0.2 0.4 0.3
v -0.0999999 0.4 0.2
v 5.96046e-08 0.4 0.2
v 0.1 0.4 0.2
v 0.2 0.4 0.2
v -0.0999999 0.4 0.1
v 0.2 0.4 0.1
v -0.0999999 0.4 -0.3
v 0.2 0.4 -0.3
v 5.96046e-08 0.4 -0.4
v 0.1 0.4 -0.4
v -0.0999999 0.4 -0.7
v 5.96046e-08 0.4 -0.7
v 0.1 0.4 -0.7
v 0.2 0.4 -0.7
v 5.96046e-08 0.5 0.5
v 0.1 0.5 0.5
v -0.2 0.5 0.4
v 5.96046e-08 0.5 0.4
v 0.1 0.5 0.4
v 0.3 0.5 0.4
v -0.0999999 0.5 0.3
v 5.96046e-08 0.5 0.3
v 0.1 0.5 0.3
v 0.2 0.5 0.3
v -0.2 0.5 0.2
v -0.0999999 0.5 0.2
v 5.96046e-08 0.5 0.2
v 0.1 0.5 0.2
v 0.2 0.5 0.2
v 0.3 0.5 0.2
v 5.96046e-08 0.5 -0.4
v 0.1 0.5 -0.4
v 5.96046e-08 0.5 -0.7
v 0.1 0.5 -0.7

# faces
f 3/6/1 2/6/1 1/6/1
f 4/6/1 2/6/1 3/6/1
f 9/5/1 6/5/1 5/5/1
f 10/5/1 6/5/1 9/5/1
f 11/2/1 7/2/1 6/2/1
f 11/5/1 6/5/1 10/5/1
f 12/2/1 7/2/1 11/2/1
f 13/2/1 7/2/1 12/2/1
f 14/5/1 8/5/1 7/5/1
f 14/2/1 7/2/1 13/2/1
f 15/5/1 8/5/1 14/5/1
f 17/2/1 11/2/1 10/2/1
f 17/2/1 12/2/1 11/2/1
f 18/2/1 12/2/1 17/2/1
f 19/2/1 16/2/1 15/2/1
f 19/2/1 15/2/1 14/2/1
f 19/2/1 14/2/1 13/2/1
f 20/2/1 16/2/1 19/2/1
f 21/2/1 16/2/1 20/2/1
f 23/2/1 17/2/1 10/2/1
f 24/2/1 17/2/1 23/2/1
f 25/2/1 17/2/1 24/2/1
f 26/2/1 22/2/1 21/2/1
f 26/2/1 21/2/1 20/2/1
f 27/2/1 22/2/1 26/2/1
f 33/4/1 29/4/1 28/4/1
f 34/4/1 29/4/1 33/4/1
f 35/4/1 29/4/1 34/4/1
f 36/4/1 31/4/1 30/4/1
f 37/4/1 31/4/1 36/4/1
f 38/4/1 34/4/1 33/4/1
f 42/4/1 31/4/1 37/4/1
f 43/4/1 31/4/1 42/4/1
f 44/2/1 33/2/1 32/2/1
f 45/4/1 38/4/1 33/4/1
f 45/2/1 33/2/1 44/2/1
f 45/4/1 39/4/1 38/4/1
f 46/4/1 39/4/1 45/4/1
f 47/2/1 41/2/1 40/2/1
f 48/2/1 41/2/1 47/2/1
f 49/2/1 46/2/1 45/2/1
f 50/2/1 46/2/1 49/2/1
f 51/2/1 46/2/1 50/2/1
f 56/1/1 51/1/1 50/1/1
f 57/1/1 51/1/1 56/1/1
f 58/2/1 53/2/1 52/2/1
f 59/2/1 53/2/1 58/2/1
f 60/2/1 55/2/1 54/2/1
f 61/2/1 55/2/1 60/2/1
f 64/6/1 63/6/1 62/6/1
f 65/6/1 63/6/1 64/6/1
f 66/6/2 67/6/2 68/6/2
f 68/6/2 67/6/2 69/6/2
f 70/4/2 71/4/2 75/4/2
f 75/4/2 71/4/2 76/4/2
f 76/4/2 71/4/2 77/4/2
f 72/4/2 73/4/2 79/4/2
f 79/4/2 73/4/2 80/4/2
f 75/4/2 76/4/2 81/4/2
f 77/5/2 78/5/2 83/5/2
f 83/5/2 78/5/2 84/5/2
f 80/4/2 73/4/2 87/4/2
f 87/4/2 73/4/2 88/4/2
f 74/2/2 75/2/2 89/2/2
f 81/4/2 82/4/2 90/4/2
f 89/2/2 75/2/2 90/2/2
f 75/4/2 81/4/2 90/4/2
f 90/4/2 82/4/2 91/4/2
f 85/2/2 86/2/2 92/2/2
f 92/2/2 86/2/2 93/2/2
f 90/2/2 91/2/2 94/2/2
f 94/2/2 91/2/2 95/2/2
f 95/2/2 91/2/2 96/2/2
f 95/1/2 96/1/2 101/1/2
f 101/1/2 96/1/2 102/1/2
f 97/2/2 98/2/2 103/2/2
f 103/2/2 98/2/2 104/2/2
f 99/2/2 100/2/2 105/2/2
f 105/2/2 100/2/2 106/2/2
f 107/5/2 108/5/2 112/5/2
f 112/5/2 108/5/2 113/5/2
f 113/5/2 108/5/2 114/5/2
f 109/2/2 110/2/2 115/2/2
f 115/2/2 110/2/2 116/2/2
f 116/2/2 110/2/2 117/2/2
f 110/5/2 111/5/2 118/5/2
f 117/2/2 110/2/2 118/2/2
f 118/5/2 111/5/2 119/5/2
f 113/2/2 114/2/2 121/2/2
f 114/2/2 115/2/2 121/2/2
f 115/2/2 116/2/2 121/2/2
f 121/2/2 116/2/2 122/2/2
f 119/2/2 120/2/2 123/2/2
f 118/2/2 119/2/2 123/2/2
f 117/2/2 118/2/2 123/2/2
f 123/2/2 120/2/2 124/2/2
f 124/2/2 120/2/2 125/2/2
f 113/2/2 121/2/2 127/2/2
f 127/2/2 121/2/2 128/2/2
f 128/2/2 121/2/2 129/2/2
f 125/2/2 126/2/2 130/2/2
f 124/2/2 125/2/2 130/2/2
f 130/2/2 126/2/2 131/2/2
f 132/6/2 133/6/2 134/6/2
f 134/6/2 133/6/2 135/6/2
f 138/2/3 137/2/3 136/2/3
f 139/2/3 137/2/3 138/2/3
f 144/4/3 141/4/3 140/4/3
f 145/4/3 141/4/3 144/4/3
f 146/2/3 143/2/3 142/2/3
f 147/2/3 143/2/3 146/2/3
f 150/5/3 149/5/3 148/5/3
f 151/5/3 149/5/3 150/5/3
f 156/1/3 153/1/3 152/1/3
f 157/1/3 153/1/3 156/1/3
f 158/5/3 155/5/3 154/5/3
f 159/5/3 155/5/3 158/5/3
f 163/6/3 161/6/3 160/6/3
f 164/2/3 163/2/3 162/2/3
f 165/2/3 163/2/3 164/2/3
f 166/6/3 161/6/3 163/6/3
f 166/2/3 163/2/3 165/2/3
f 167/6/3 161/6/3 166/6/3
f 172/2/3 169/2/3 168/2/3
f 172/2/3 170/2/3 169/2/3
f 173/6/3 171/6/3 170/6/3
f 173/2/3 170/2/3 172/2/3
f 174/6/3 171/6/3 173/6/3
f 175/6/3 171/6/3 174/6/3
f 178/2/3 177/2/3 176/2/3
f 179/2/3 177/2/3 178/2/3
f 182/2/3 181/2/3 180/2/3
f 183/2/3 181/2/3 182/2/3
f 186/2/3 185/2/3 184/2/3
f 187/2/3 185/2/3 186/2/3
f 192/4/3 191/4/3 190/4/3
f 193/4/3 191/4/3 192/4/3
f 194/2/3 189/2/3 188/2/3
f 195/2/3 189/2/3 194/2/3
f 198/2/3 197/2/3 196/2/3
f 199/2/3 197/2/3 198/2/3
f 200/6/4 201/6/4 204/6/4
f 204/6/4 201/6/4 205/6/4
f 202/4/4 203/4/4 206/4/4
f 206/4/4 203/4/4 207/4/4
f 207/5/4 208/5/4 211/5/4
f 211/5/4 208/5/4 212/5/4
f 209/6/4 210/6/4 213/6/4
f 213/6/4 210/6/4 214/6/4
f 215/6/4 216/6/4 217/6/4
f 217/6/4 216/6/4 218/6/4
f 219/2/4 220/2/4 221/2/4
f 221/2/4 220/2/4 222/2/4
f 223/6/4 224/6/4 225/6/4
f 225/6/4 224/6/4 226/6/4
f 227/2/4 228/2/4 229/2/4
f 229/2/4 228/2/4 230/2/4
f 231/2/4 232/2/4 233/2/4
f 233/2/4 232/2/4 234/2/4
f 235/2/4 236/2/4 237/2/4
f 237/2/4 236/2/4 238/2/4
f 239/5/4 240/5/4 241/5/4
f 241/5/4 240/5/4 242/5/4
f 243/5/4 244/5/4 245/5/4
f 245/5/4 244/5/4 246/5/4
f 247/2/4 248/2/4 250/2/4
f 250/2/4 248/2/4 251/2/4
f 249/4/4 250/4/4 252/4/4
f 250/4/4 251/4/4 252/4/4
f 252/4/4 251/4/4 253/4/4
f 253/4/4 251/4/4 254/4/4
f 253/2/4 254/2/4 255/2/4
f 255/2/4 254/2/4 256/2/4
f 257/2/4 258/2/4 259/2/4
f 259/2/4 258/2/4 260/2/4
f 259/3/4 260/3/4 262/3/4
f 260/2/4 261/2/4 263/2/4
f 262/3/4 260/3/4 263/3/4
f 263/2/4 261/2/4 264/2/4
f 262/2/4 263/2/4 265/2/4
f 265/2/4 263/2/4 266/2/4
f 269/4/5 268/4/5 267/4/5
f 270/4/5 268/4/5 269/4/5
f 273/4/5 272/4/5 271/4/5
f 274/4/5 272/4/5 273/4/5
f 277/2/5 276/2/5 275/2/5
f 278/2/5 276/2/5 277/2/5
f 283/5/5 280/5/5 279/5/5
f 284/5/5 280/5/5 283/5/5
f 285/5/5 282/5/5 281/5/5
f 286/5/5 282/5/5 285/5/5
f 287/5/5 285/5/5 284/5/5
f 289/2/5 284/2/5 283/2/5
f 290/5/5 287/5/5 284/5/5
f 290/2/5 284/2/5 289/2/5
f 291/2/5 288/2/5 287/2/5
f 291/5/5 287/5/5 290/5/5
f 292/2/5 288/2/5 291/2/5
f 293/5/5 290/5/5 289/5/5
f 294/5/5 290/5/5 293/5/5
f 295/5/5 292/5/5 291/5/5
f 296/5/5 292/5/5 295/5/5
f 299/2/5 298/2/5 297/2/5
f 300/2/5 298/2/5 299/2/5
f 305/2/5 302/2/5 301/2/5
f 306/2/5 302/2/5 305/2/5
f 307/2/5 304/2/5 303/2/5
f 308/2/5 304/2/5 307/2/5
f 313/2/5 310/2/5 309/2/5
f 314/3/5 311/3/5 310/3/5
f 314/2/5 310/2/5 313/2/5
f 315/2/5 312/2/5 311/2/5
f 315/3/5 311/3/5 314/3/5
f 316/2/5 312/2/5 315/2/5
f 321/6/5 318/6/5 317/6/5
f 322/6/5 318/6/5 321/6/5
f 323/6/5 320/6/5 319/6/5
f 324/6/5 320/6/5 323/6/5
f 325/5/6 326/5/6 329/5/6
f 329/5/6 326/5/6 330/5/6
f 327/5/6 328/5/6 331/5/6
f 331/5/6 328/5/6 332/5/6
f 333/2/6 334/2/6 337/2/6
f 337/2/6 334/2/6 338/2/6
f 335/2/6 336/2/6 339/2/6
f 339/2/6 336/2/6 340/2/6
f 341/2/6 342/2/6 343/2/6
f 343/2/6 342/2/6 344/2/6
f 345/2/6 346/2/6 347/2/6
f 347/2/6 346/2/6 348/2/6
f 348/2/6 346/2/6 349/2/6
f 349/2/6 346/2/6 350/2/6
f 348/2/6 349/2/6 352/2/6
f 352/2/6 349/2/6 353/2/6
f 351/2/6 352/2/6 355/2/6
f 353/2/6 354/2/6 355/2/6
f 352/2/6 353/2/6 355/2/6
f 355/2/6 354/2/6 356/2/6
f 357/2/6 358/2/6 359/2/6
f 359/2/6 358/2/6 360/2/6
f 361/2/6 362/2/6 365/2/6
f 365/2/6 362/2/6 366/2/6
f 363/2/6 364/2/6 367/2/6
f 367/2/6 364/2/6 368/2/6
f 365/2/6 366/2/6 369/2/6
f 366/2/6 367/2/6 369/2/6
f 367/2/6 368/2/6 369/2/6
f 369/2/6 368/2/6 370/2/6
f 371/2/6 372/2/6 373/2/6
f 373/2/6 372/2/6 374/2/6
f 371/2/6 373/2/6 375/2/6
f 375/2/6 373/2/6 376/2/6
f 374/2/6 372/2/6 377/2/6
f 377/2/6 372/2/6 378/2/6
f 379/1/6 380/1/6 382/1/6
f 382/1/6 380/1/6 383/1/6
f 381/6/6 382/6/6 385/6/6
f 383/6/6 384/6/6 385/6/6
f 382/6/6 383/6/6 385/6/6
f 385/6/6 384/6/6 386/6/6
f 386/6/6 384/6/6 387/6/6
f 387/6/6 384/6/6 388/6/6
f 381/6/6 385/6/6 389/6/6
f 389/6/6 385/6/6 390/6/6
f 386/2/6 387/2/6 391/2/6
f 391/2/6 387/2/6 392/2/6
f 388/6/6 384/6/6 393/6/6
f 393/6/6 384/6/6 394/6/6
f 395/2/6 396/2/6 397/2/6
f 397/2/6 396/2/6 398/2/6
