# MagicaVoxel @ Ephtracy

# group
o 

# material
mtllib CAR1.mtl
usemtl palette

# normals
vn -1 0 0
vn 1 0 0
vn 0 0 1
vn 0 0 -1
vn 0 -1 0
vn 0 1 0

# texcoords
vt 0.0214844 0.5
vt 0.708984 0.5
vt 0.876953 0.5
vt 0.974609 0.5
vt 0.978516 0.5
vt 0.986328 0.5

# verts
v -0.3 0 0.7
v -0.3 0 0.4
v -0.3 0 -0.4
v -0.3 0 -0.7
v -0.3 0.1 0.8
v -0.3 0.1 0.7
v -0.3 0.1 0.4
v -0.3 0.1 -0.4
v -0.3 0.1 -0.7
v -0.3 0.1 -0.8
v -0.3 0.2 0.3
v -0.3 0.2 -0.3
v -0.3 0.3 0.7
v -0.3 0.3 0.4
v -0.3 0.3 0.3
v -0.3 0.3 -0.3
v -0.3 0.3 -0.4
v -0.3 0.3 -0.7
v -0.3 0.4 0.8
v -0.3 0.4 0.4
v -0.3 0.4 0.3
v -0.3 0.4 -0.0999999
v -0.3 0.4 -0.4
v -0.3 0.4 -0.8
v -0.3 0.5 0.8
v -0.3 0.5 0.5
v -0.3 0.6 0.5
v -0.3 0.6 0.4
v -0.3 0.6 0.3
v -0.3 0.6 0.2
v -0.3 0.6 -0.3
v -0.3 0.6 -0.4
v -0.3 0.6 -0.5
v -0.3 0.6 -0.8
v -0.3 0.7 0.4
v -0.3 0.7 0.3
v -0.3 0.7 0.2
v -0.3 0.7 -0.0999999
v -0.3 0.7 -0.3
v -0.3 0.7 -0.4
v -0.3 0.7 -0.5
v -0.3 0.8 0.3
v -0.3 0.8 -0.4
v 0.3 0 0.7
v 0.3 0 0.4
v 0.3 0 -0.4
v 0.3 0 -0.7
v 0.3 0.1 0.7
v 0.3 0.1 0.4
v 0.3 0.1 -0.4
v 0.3 0.1 -0.7
v 0.3 0.2 0.7
v 0.3 0.2 0.4
v 0.3 0.2 -0.3
v 0.3 0.3 0.7
v 0.3 0.3 0.4
v 0.3 0.3 -0.3
v 0.3 0.3 -0.4
v 0.3 0.3 -0.7
v 0.3 0.4 0.7
v 0.3 0.4 0.4
v 0.3 0.4 -0.4
v 0.3 0.4 -0.7
v 0.3 0.5 -0.3
v 0.3 0.5 -0.7
v 0.3 0.6 -0.3
v 0.3 0.6 -0.4
v 0.3 0.6 -0.5
v 0.3 0.6 -0.7
v 0.3 0.7 -0.3
v 0.3 0.7 -0.4
v 0.3 0.7 -0.5
v 0.3 0.8 -0.3
v 0.3 0.8 -0.4
v -0.2 0 0.7
v -0.2 0 0.4
v -0.2 0 -0.4
v -0.2 0 -0.7
v -0.2 0.1 0.7
v -0.2 0.1 0.4
v -0.2 0.1 -0.4
v -0.2 0.1 -0.7
v -0.2 0.2 0.7
v -0.2 0.2 0.4
v -0.2 0.2 -0.3
v -0.2 0.3 0.7
v -0.2 0.3 0.4
v -0.2 0.3 -0.3
v -0.2 0.3 -0.4
v -0.2 0.3 -0.7
v -0.2 0.4 0.7
v -0.2 0.4 0.4
v -0.2 0.4 -0.4
v -0.2 0.4 -0.7
v -0.2 0.5 -0.3
v -0.2 0.5 -0.7
v -0.2 0.6 -0.3
v -0.2 0.6 -0.4
v -0.2 0.6 -0.5
v -0.2 0.6 -0.7
v -0.2 0.7 -0.3
v -0.2 0.7 -0.4
v -0.2 0.7 -0.5
v -0.2 0.8 -0.3
v -0.2 0.8 -0.4
v 0.4 0 0.7
v 0.4 0 0.4
v 0.4 0 -0.4
v 0.4 0 -0.7
v 0.4 0.1 0.8
v 0.4 0.1 0.7
v 0.4 0.1 0.4
v 0.4 0.1 -0.4
v 0.4 0.1 -0.7
v 0.4 0.1 -0.8
v 0.4 0.2 0.3
v 0.4 0.2 -0.3
v 0.4 0.3 0.7
v 0.4 0.3 0.4
v 0.4 0.3 0.3
v 0.4 0.3 -0.3
v 0.4 0.3 -0.4
v 0.4 0.3 -0.7
v 0.4 0.4 0.8
v 0.4 0.4 0.4
v 0.4 0.4 0.3
v 0.4 0.4 -0.0999999
v 0.4 0.4 -0.4
v 0.4 0.4 -0.8
v 0.4 0.5 0.8
v 0.4 0.5 0.5
v 0.4 0.6 0.5
v 0.4 0.6 0.4
v 0.4 0.6 0.3
v 0.4 0.6 0.2
v 0.4 0.6 -0.3
v 0.4 0.6 -0.4
v 0.4 0.6 -0.5
v 0.4 0.6 -0.8
v 0.4 0.7 0.4
v 0.4 0.7 0.3
v 0.4 0.7 0.2
v 0.4 0.7 -0.0999999
v 0.4 0.7 -0.3
v 0.4 0.7 -0.4
v 0.4 0.7 -0.5
v 0.4 0.8 0.3
v 0.4 0.8 -0.4
v -0.3 0.1 0.8
v -0.3 0.4 0.8
v -0.3 0.5 0.8
v -0.2 0.1 0.8
v -0.2 0.2 0.8
v -0.2 0.3 0.8
v -0.2 0.4 0.8
v -0.1 0.2 0.8
v -0.1 0.3 0.8
v 0.2 0.2 0.8
v 0.2 0.3 0.8
v 0.3 0.1 0.8
v 0.3 0.2 0.8
v 0.3 0.3 0.8
v 0.3 0.4 0.8
v 0.4 0.1 0.8
v 0.4 0.4 0.8
v 0.4 0.5 0.8
v -0.3 0 0.7
v -0.3 0.1 0.7
v -0.2 0 0.7
v -0.2 0.1 0.7
v 0.3 0 0.7
v 0.3 0.1 0.7
v 0.4 0 0.7
v 0.4 0.1 0.7
v -0.3 0.5 0.5
v -0.3 0.6 0.5
v -0.2 0.5 0.5
v -0.2 0.6 0.5
v 0.3 0.5 0.5
v 0.3 0.6 0.5
v 0.4 0.5 0.5
v 0.4 0.6 0.5
v -0.3 0.6 0.4
v -0.3 0.7 0.4
v -0.2 0.2 0.4
v -0.2 0.3 0.4
v -0.2 0.4 0.4
v -0.2 0.6 0.4
v -0.2 0.7 0.4
v 0.3 0.2 0.4
v 0.3 0.3 0.4
v 0.3 0.4 0.4
v 0.3 0.6 0.4
v 0.3 0.7 0.4
v 0.4 0.6 0.4
v 0.4 0.7 0.4
v -0.3 0.7 0.3
v -0.3 0.8 0.3
v -0.2 0.7 0.3
v -0.2 0.8 0.3
v 0.3 0.7 0.3
v 0.3 0.8 0.3
v 0.4 0.7 0.3
v 0.4 0.8 0.3
v -0.3 0 -0.4
v -0.3 0.1 -0.4
v -0.3 0.6 -0.4
v -0.3 0.7 -0.4
v -0.2 0 -0.4
v -0.2 0.1 -0.4
v -0.2 0.6 -0.4
v -0.2 0.7 -0.4
v 0.3 0 -0.4
v 0.3 0.1 -0.4
v 0.3 0.6 -0.4
v 0.3 0.7 -0.4
v 0.4 0 -0.4
v 0.4 0.1 -0.4
v 0.4 0.6 -0.4
v 0.4 0.7 -0.4
v -0.2 0.1 -0.7
v -0.2 0.3 -0.7
v -0.2 0.4 -0.7
v -0.2 0.5 -0.7
v -0.2 0.6 -0.7
v -0.1 0.2 -0.7
v -0.1 0.4 -0.7
v 0.2 0.2 -0.7
v 0.2 0.4 -0.7
v 0.3 0.1 -0.7
v 0.3 0.3 -0.7
v 0.3 0.4 -0.7
v 0.3 0.5 -0.7
v 0.3 0.6 -0.7
v -0.2 0.1 0.7
v -0.2 0.2 0.7
v -0.2 0.3 0.7
v -0.2 0.4 0.7
v -0.1 0.2 0.7
v -0.1 0.3 0.7
v 0.2 0.2 0.7
v 0.2 0.3 0.7
v 0.3 0.1 0.7
v 0.3 0.2 0.7
v 0.3 0.3 0.7
v 0.3 0.4 0.7
v -0.3 0 0.4
v -0.3 0.1 0.4
v -0.2 0 0.4
v -0.2 0.1 0.4
v 0.3 0 0.4
v 0.3 0.1 0.4
v 0.4 0 0.4
v 0.4 0.1 0.4
v -0.3 0.6 -0.3
v -0.3 0.7 -0.3
v -0.2 0.2 -0.3
v -0.2 0.3 -0.3
v -0.2 0.5 -0.3
v -0.2 0.6 -0.3
v -0.2 0.7 -0.3
v -0.2 0.8 -0.3
v 0.3 0.2 -0.3
v 0.3 0.3 -0.3
v 0.3 0.5 -0.3
v 0.3 0.6 -0.3
v 0.3 0.7 -0.3
v 0.3 0.8 -0.3
v 0.4 0.6 -0.3
v 0.4 0.7 -0.3
v -0.3 0.7 -0.4
v -0.3 0.8 -0.4
v -0.2 0.3 -0.4
v -0.2 0.4 -0.4
v -0.2 0.7 -0.4
v -0.2 0.8 -0.4
v 0.3 0.3 -0.4
v 0.3 0.4 -0.4
v 0.3 0.7 -0.4
v 0.3 0.8 -0.4
v 0.4 0.7 -0.4
v 0.4 0.8 -0.4
v -0.3 0.6 -0.5
v -0.3 0.7 -0.5
v -0.2 0.6 -0.5
v -0.2 0.7 -0.5
v 0.3 0.6 -0.5
v 0.3 0.7 -0.5
v 0.4 0.6 -0.5
v 0.4 0.7 -0.5
v -0.3 0 -0.7
v -0.3 0.1 -0.7
v -0.2 0 -0.7
v -0.2 0.1 -0.7
v 0.3 0 -0.7
v 0.3 0.1 -0.7
v 0.4 0 -0.7
v 0.4 0.1 -0.7
v -0.3 0.1 -0.8
v -0.3 0.4 -0.8
v -0.3 0.6 -0.8
v -0.1 0.2 -0.8
v -0.1 0.4 -0.8
v -0.1 0.5 -0.8
v 0.2 0.2 -0.8
v 0.2 0.4 -0.8
v 0.2 0.5 -0.8
v 0.4 0.1 -0.8
v 0.4 0.4 -0.8
v 0.4 0.6 -0.8
v -0.3 0 0.7
v -0.2 0 0.7
v 0.3 0 0.7
v 0.4 0 0.7
v -0.3 0 0.4
v -0.2 0 0.4
v 0.3 0 0.4
v 0.4 0 0.4
v -0.3 0 -0.4
v -0.2 0 -0.4
v 0.3 0 -0.4
v 0.4 0 -0.4
v -0.3 0 -0.7
v -0.2 0 -0.7
v 0.3 0 -0.7
v 0.4 0 -0.7
v -0.3 0.1 0.8
v -0.2 0.1 0.8
v 0.3 0.1 0.8
v 0.4 0.1 0.8
v -0.3 0.1 0.7
v -0.2 0.1 0.7
v 0.3 0.1 0.7
v 0.4 0.1 0.7
v -0.3 0.1 0.4
v -0.2 0.1 0.4
v 0.3 0.1 0.4
v 0.4 0.1 0.4
v -0.3 0.1 -0.4
v -0.2 0.1 -0.4
v 0.3 0.1 -0.4
v 0.4 0.1 -0.4
v -0.3 0.1 -0.7
v -0.2 0.1 -0.7
v 0.3 0.1 -0.7
v 0.4 0.1 -0.7
v -0.3 0.1 -0.8
v 0.4 0.1 -0.8
v -0.2 0.2 0.4
v 0.3 0.2 0.4
v -0.2 0.2 -0.3
v 0.3 0.2 -0.3
v -0.2 0.3 -0.3
v 0.3 0.3 -0.3
v -0.2 0.3 -0.4
v 0.3 0.3 -0.4
v -0.2 0.4 0.7
v 0.3 0.4 0.7
v -0.2 0.4 0.4
v 0.3 0.4 0.4
v -0.2 0.4 -0.4
v 0.3 0.4 -0.4
v -0.2 0.4 -0.7
v -0.1 0.4 -0.7
v 0.2 0.4 -0.7
v 0.3 0.4 -0.7
v -0.3 0.7 -0.3
v -0.2 0.7 -0.3
v 0.3 0.7 -0.3
v 0.4 0.7 -0.3
v -0.3 0.7 -0.4
v -0.2 0.7 -0.4
v 0.3 0.7 -0.4
v 0.4 0.7 -0.4
v -0.3 0.5 0.8
v 0.4 0.5 0.8
v -0.3 0.5 0.5
v -0.2 0.5 0.5
v 0.3 0.5 0.5
v 0.4 0.5 0.5
v -0.2 0.5 -0.3
v 0.3 0.5 -0.3
v -0.2 0.5 -0.7
v 0.3 0.5 -0.7
v -0.3 0.6 0.5
v -0.2 0.6 0.5
v 0.3 0.6 0.5
v 0.4 0.6 0.5
v -0.3 0.6 0.4
v -0.2 0.6 0.4
v 0.3 0.6 0.4
v 0.4 0.6 0.4
v -0.3 0.6 -0.3
v -0.2 0.6 -0.3
v 0.3 0.6 -0.3
v 0.4 0.6 -0.3
v -0.3 0.6 -0.4
v -0.2 0.6 -0.4
v 0.3 0.6 -0.4
v 0.4 0.6 -0.4
v -0.3 0.6 -0.5
v -0.2 0.6 -0.5
v 0.3 0.6 -0.5
v 0.4 0.6 -0.5
v -0.2 0.6 -0.7
v 0.3 0.6 -0.7
v -0.3 0.6 -0.8
v 0.4 0.6 -0.8
v -0.3 0.7 0.4
v -0.2 0.7 0.4
v 0.3 0.7 0.4
v 0.4 0.7 0.4
v -0.3 0.7 0.3
v -0.2 0.7 0.3
v 0.3 0.7 0.3
v 0.4 0.7 0.3
v -0.3 0.7 -0.4
v -0.2 0.7 -0.4
v 0.3 0.7 -0.4
v 0.4 0.7 -0.4
v -0.3 0.7 -0.5
v -0.2 0.7 -0.5
v 0.3 0.7 -0.5
v 0.4 0.7 -0.5
v -0.3 0.8 0.3
v -0.2 0.8 0.3
v 0.3 0.8 0.3
v 0.4 0.8 0.3
v -0.2 0.8 0.2
v 0.3 0.8 0.2
v -0.2 0.8 -0.3
v 0.3 0.8 -0.3
v -0.3 0.8 -0.4
v -0.2 0.8 -0.4
v 0.3 0.8 -0.4
v 0.4 0.8 -0.4

# faces
f 6/3/1 2/3/1 1/3/1
f 7/3/1 2/3/1 6/3/1
f 8/3/1 4/3/1 3/3/1
f 9/3/1 4/3/1 8/3/1
f 11/6/1 8/6/1 7/6/1
f 12/6/1 8/6/1 11/6/1
f 13/3/1 7/3/1 6/3/1
f 13/6/1 6/6/1 5/6/1
f 14/6/1 11/6/1 7/6/1
f 14/3/1 7/3/1 13/3/1
f 15/2/1 12/2/1 11/2/1
f 15/6/1 11/6/1 14/6/1
f 16/6/1 8/6/1 12/6/1
f 16/2/1 12/2/1 15/2/1
f 17/3/1 9/3/1 8/3/1
f 17/6/1 8/6/1 16/6/1
f 18/6/1 10/6/1 9/6/1
f 18/3/1 9/3/1 17/3/1
f 19/6/1 14/6/1 13/6/1
f 19/6/1 13/6/1 5/6/1
f 20/2/1 15/2/1 14/2/1
f 20/6/1 14/6/1 19/6/1
f 20/2/1 17/2/1 16/2/1
f 20/2/1 16/2/1 15/2/1
f 21/2/1 17/2/1 20/2/1
f 22/2/1 17/2/1 21/2/1
f 23/6/1 18/6/1 17/6/1
f 23/2/1 17/2/1 22/2/1
f 24/6/1 10/6/1 18/6/1
f 24/6/1 18/6/1 23/6/1
f 25/2/1 20/2/1 19/2/1
f 25/2/1 21/2/1 20/2/1
f 26/2/1 21/2/1 25/2/1
f 27/2/1 21/2/1 26/2/1
f 28/2/1 21/2/1 27/2/1
f 29/5/1 22/5/1 21/5/1
f 29/2/1 21/2/1 28/2/1
f 30/5/1 22/5/1 29/5/1
f 31/2/1 23/2/1 22/2/1
f 31/2/1 24/2/1 23/2/1
f 32/2/1 24/2/1 31/2/1
f 33/2/1 24/2/1 32/2/1
f 34/2/1 24/2/1 33/2/1
f 35/2/1 30/2/1 29/2/1
f 35/2/1 29/2/1 28/2/1
f 36/2/1 30/2/1 35/2/1
f 37/5/1 22/5/1 30/5/1
f 37/2/1 30/2/1 36/2/1
f 38/2/1 31/2/1 22/2/1
f 38/5/1 22/5/1 37/5/1
f 39/2/1 31/2/1 38/2/1
f 40/2/1 33/2/1 32/2/1
f 41/2/1 33/2/1 40/2/1
f 42/2/1 39/2/1 38/2/1
f 42/2/1 40/2/1 39/2/1
f 42/2/1 37/2/1 36/2/1
f 42/2/1 38/2/1 37/2/1
f 43/2/1 40/2/1 42/2/1
f 48/3/1 45/3/1 44/3/1
f 49/3/1 45/3/1 48/3/1
f 50/3/1 47/3/1 46/3/1
f 51/3/1 47/3/1 50/3/1
f 52/3/1 49/3/1 48/3/1
f 53/6/1 50/6/1 49/6/1
f 53/3/1 49/3/1 52/3/1
f 54/6/1 50/6/1 53/6/1
f 55/3/1 53/3/1 52/3/1
f 56/3/1 53/3/1 55/3/1
f 57/6/1 50/6/1 54/6/1
f 58/3/1 51/3/1 50/3/1
f 58/6/1 50/6/1 57/6/1
f 59/3/1 51/3/1 58/3/1
f 60/6/1 56/6/1 55/6/1
f 61/6/1 56/6/1 60/6/1
f 62/6/1 59/6/1 58/6/1
f 63/6/1 59/6/1 62/6/1
f 66/2/1 65/2/1 64/2/1
f 67/2/1 65/2/1 66/2/1
f 68/2/1 65/2/1 67/2/1
f 69/2/1 65/2/1 68/2/1
f 71/2/1 68/2/1 67/2/1
f 72/2/1 68/2/1 71/2/1
f 73/2/1 71/2/1 70/2/1
f 74/2/1 71/2/1 73/2/1
f 75/3/2 76/3/2 79/3/2
f 79/3/2 76/3/2 80/3/2
f 77/3/2 78/3/2 81/3/2
f 81/3/2 78/3/2 82/3/2
f 79/3/2 80/3/2 83/3/2
f 80/6/2 81/6/2 84/6/2
f 83/3/2 80/3/2 84/3/2
f 84/6/2 81/6/2 85/6/2
f 83/3/2 84/3/2 86/3/2
f 86/3/2 84/3/2 87/3/2
f 85/6/2 81/6/2 88/6/2
f 81/3/2 82/3/2 89/3/2
f 88/6/2 81/6/2 89/6/2
f 89/3/2 82/3/2 90/3/2
f 86/6/2 87/6/2 91/6/2
f 91/6/2 87/6/2 92/6/2
f 89/6/2 90/6/2 93/6/2
f 93/6/2 90/6/2 94/6/2
f 95/2/2 96/2/2 97/2/2
f 97/2/2 96/2/2 98/2/2
f 98/2/2 96/2/2 99/2/2
f 99/2/2 96/2/2 100/2/2
f 98/2/2 99/2/2 102/2/2
f 102/2/2 99/2/2 103/2/2
f 101/2/2 102/2/2 104/2/2
f 104/2/2 102/2/2 105/2/2
f 106/3/2 107/3/2 111/3/2
f 111/3/2 107/3/2 112/3/2
f 108/3/2 109/3/2 113/3/2
f 113/3/2 109/3/2 114/3/2
f 112/6/2 113/6/2 116/6/2
f 116/6/2 113/6/2 117/6/2
f 111/3/2 112/3/2 118/3/2
f 110/6/2 111/6/2 118/6/2
f 112/6/2 116/6/2 119/6/2
f 118/3/2 112/3/2 119/3/2
f 116/2/2 117/2/2 120/2/2
f 119/6/2 116/6/2 120/6/2
f 117/6/2 113/6/2 121/6/2
f 120/2/2 117/2/2 121/2/2
f 113/3/2 114/3/2 122/3/2
f 121/6/2 113/6/2 122/6/2
f 114/6/2 115/6/2 123/6/2
f 122/3/2 114/3/2 123/3/2
f 118/6/2 119/6/2 124/6/2
f 110/6/2 118/6/2 124/6/2
f 119/2/2 120/2/2 125/2/2
f 124/6/2 119/6/2 125/6/2
f 121/2/2 122/2/2 125/2/2
f 120/2/2 121/2/2 125/2/2
f 125/2/2 122/2/2 126/2/2
f 126/2/2 122/2/2 127/2/2
f 122/6/2 123/6/2 128/6/2
f 127/2/2 122/2/2 128/2/2
f 123/6/2 115/6/2 129/6/2
f 128/6/2 123/6/2 129/6/2
f 124/2/2 125/2/2 130/2/2
f 125/2/2 126/2/2 130/2/2
f 130/2/2 126/2/2 131/2/2
f 131/2/2 126/2/2 132/2/2
f 132/2/2 126/2/2 133/2/2
f 126/5/2 127/5/2 134/5/2
f 133/2/2 126/2/2 134/2/2
f 134/5/2 127/5/2 135/5/2
f 127/2/2 128/2/2 136/2/2
f 128/2/2 129/2/2 136/2/2
f 136/2/2 129/2/2 137/2/2
f 137/2/2 129/2/2 138/2/2
f 138/2/2 129/2/2 139/2/2
f 134/2/2 135/2/2 140/2/2
f 133/2/2 134/2/2 140/2/2
f 140/2/2 135/2/2 141/2/2
f 135/5/2 127/5/2 142/5/2
f 141/2/2 135/2/2 142/2/2
f 127/2/2 136/2/2 143/2/2
f 142/5/2 127/5/2 143/5/2
f 143/2/2 136/2/2 144/2/2
f 137/2/2 138/2/2 145/2/2
f 145/2/2 138/2/2 146/2/2
f 143/2/2 144/2/2 147/2/2
f 144/2/2 145/2/2 147/2/2
f 141/2/2 142/2/2 147/2/2
f 142/2/2 143/2/2 147/2/2
f 147/2/2 145/2/2 148/2/2
f 152/6/3 150/6/3 149/6/3
f 153/6/3 150/6/3 152/6/3
f 154/6/3 150/6/3 153/6/3
f 155/2/3 151/2/3 150/2/3
f 155/6/3 150/6/3 154/6/3
f 156/1/3 154/1/3 153/1/3
f 156/4/3 153/4/3 152/4/3
f 157/4/3 155/4/3 154/4/3
f 157/1/3 154/1/3 156/1/3
f 158/4/3 156/4/3 152/4/3
f 158/6/3 157/6/3 156/6/3
f 159/4/3 155/4/3 157/4/3
f 159/6/3 157/6/3 158/6/3
f 160/4/3 158/4/3 152/4/3
f 161/1/3 159/1/3 158/1/3
f 161/4/3 158/4/3 160/4/3
f 162/4/3 155/4/3 159/4/3
f 162/1/3 159/1/3 161/1/3
f 163/2/3 151/2/3 155/2/3
f 163/4/3 155/4/3 162/4/3
f 164/6/3 162/6/3 161/6/3
f 164/6/3 161/6/3 160/6/3
f 164/6/3 163/6/3 162/6/3
f 165/2/3 151/2/3 163/2/3
f 165/6/3 163/6/3 164/6/3
f 166/2/3 151/2/3 165/2/3
f 169/3/3 168/3/3 167/3/3
f 170/3/3 168/3/3 169/3/3
f 173/3/3 172/3/3 171/3/3
f 174/3/3 172/3/3 173/3/3
f 177/2/3 176/2/3 175/2/3
f 178/2/3 176/2/3 177/2/3
f 179/5/3 178/5/3 177/5/3
f 180/5/3 178/5/3 179/5/3
f 181/2/3 180/2/3 179/2/3
f 182/2/3 180/2/3 181/2/3
f 188/2/3 184/2/3 183/2/3
f 189/2/3 184/2/3 188/2/3
f 190/2/3 187/2/3 186/2/3
f 190/2/3 186/2/3 185/2/3
f 191/2/3 187/2/3 190/2/3
f 192/2/3 187/2/3 191/2/3
f 193/5/3 189/5/3 188/5/3
f 194/5/3 189/5/3 193/5/3
f 195/2/3 194/2/3 193/2/3
f 196/2/3 194/2/3 195/2/3
f 199/2/3 198/2/3 197/2/3
f 200/2/3 198/2/3 199/2/3
f 201/5/3 200/5/3 199/5/3
f 202/5/3 200/5/3 201/5/3
f 203/2/3 202/2/3 201/2/3
f 204/2/3 202/2/3 203/2/3
f 209/3/3 206/3/3 205/3/3
f 210/3/3 206/3/3 209/3/3
f 211/2/3 208/2/3 207/2/3
f 212/2/3 208/2/3 211/2/3
f 217/3/3 214/3/3 213/3/3
f 218/3/3 214/3/3 217/3/3
f 219/2/3 216/2/3 215/2/3
f 220/2/3 216/2/3 219/2/3
f 226/6/3 222/6/3 221/6/3
f 226/6/3 223/6/3 222/6/3
f 227/6/3 223/6/3 226/6/3
f 228/6/3 226/6/3 221/6/3
f 228/3/3 227/3/3 226/3/3
f 229/3/3 227/3/3 228/3/3
f 230/6/3 228/6/3 221/6/3
f 230/6/3 229/6/3 228/6/3
f 231/6/3 229/6/3 230/6/3
f 232/6/3 229/6/3 231/6/3
f 233/2/3 225/2/3 224/2/3
f 234/2/3 225/2/3 233/2/3
f 235/4/4 236/4/4 239/4/4
f 236/1/4 237/1/4 239/1/4
f 237/4/4 238/4/4 240/4/4
f 239/1/4 237/1/4 240/1/4
f 235/4/4 239/4/4 241/4/4
f 239/6/4 240/6/4 241/6/4
f 240/4/4 238/4/4 242/4/4
f 241/6/4 240/6/4 242/6/4
f 235/4/4 241/4/4 243/4/4
f 241/1/4 242/1/4 244/1/4
f 243/4/4 241/4/4 244/4/4
f 242/4/4 238/4/4 245/4/4
f 244/1/4 242/1/4 245/1/4
f 245/4/4 238/4/4 246/4/4
f 247/3/4 248/3/4 249/3/4
f 249/3/4 248/3/4 250/3/4
f 251/3/4 252/3/4 253/3/4
f 253/3/4 252/3/4 254/3/4
f 255/2/4 256/2/4 260/2/4
f 260/2/4 256/2/4 261/2/4
f 257/2/4 258/2/4 263/2/4
f 263/2/4 258/2/4 264/2/4
f 261/2/4 262/2/4 265/2/4
f 259/2/4 260/2/4 265/2/4
f 260/2/4 261/2/4 265/2/4
f 265/2/4 262/2/4 266/2/4
f 266/2/4 262/2/4 267/2/4
f 267/2/4 262/2/4 268/2/4
f 266/2/4 267/2/4 269/2/4
f 269/2/4 267/2/4 270/2/4
f 271/2/4 272/2/4 275/2/4
f 275/2/4 272/2/4 276/2/4
f 273/2/4 274/2/4 277/2/4
f 277/2/4 274/2/4 278/2/4
f 279/2/4 280/2/4 281/2/4
f 281/2/4 280/2/4 282/2/4
f 283/2/4 284/2/4 285/2/4
f 285/2/4 284/2/4 286/2/4
f 287/2/4 288/2/4 289/2/4
f 289/2/4 288/2/4 290/2/4
f 291/3/4 292/3/4 293/3/4
f 293/3/4 292/3/4 294/3/4
f 295/3/4 296/3/4 297/3/4
f 297/3/4 296/3/4 298/3/4
f 299/6/4 300/6/4 302/6/4
f 300/2/4 301/2/4 303/2/4
f 302/6/4 300/6/4 303/6/4
f 303/2/4 301/2/4 304/2/4
f 299/6/4 302/6/4 305/6/4
f 302/3/4 303/3/4 305/3/4
f 303/3/4 304/3/4 305/3/4
f 305/3/4 304/3/4 306/3/4
f 304/2/4 301/2/4 307/2/4
f 306/3/4 304/3/4 307/3/4
f 305/6/4 306/6/4 308/6/4
f 299/6/4 305/6/4 308/6/4
f 306/2/4 307/2/4 309/2/4
f 308/6/4 306/6/4 309/6/4
f 307/2/4 301/2/4 310/2/4
f 309/2/4 307/2/4 310/2/4
f 315/3/5 312/3/5 311/3/5
f 316/3/5 312/3/5 315/3/5
f 317/3/5 314/3/5 313/3/5
f 318/3/5 314/3/5 317/3/5
f 323/3/5 320/3/5 319/3/5
f 324/3/5 320/3/5 323/3/5
f 325/3/5 322/3/5 321/3/5
f 326/3/5 322/3/5 325/3/5
f 331/6/5 328/6/5 327/6/5
f 332/4/5 329/4/5 328/4/5
f 332/6/5 328/6/5 331/6/5
f 333/6/5 330/6/5 329/6/5
f 333/4/5 329/4/5 332/4/5
f 334/6/5 330/6/5 333/6/5
f 339/6/5 336/6/5 335/6/5
f 340/6/5 336/6/5 339/6/5
f 341/6/5 338/6/5 337/6/5
f 342/6/5 338/6/5 341/6/5
f 347/6/5 344/6/5 343/6/5
f 347/6/5 346/6/5 345/6/5
f 347/6/5 345/6/5 344/6/5
f 348/6/5 346/6/5 347/6/5
f 351/2/5 350/2/5 349/2/5
f 352/2/5 350/2/5 351/2/5
f 355/2/5 354/2/5 353/2/5
f 356/2/5 354/2/5 355/2/5
f 359/2/5 358/2/5 357/2/5
f 360/2/5 358/2/5 359/2/5
f 363/2/5 362/2/5 361/2/5
f 364/2/5 362/2/5 363/2/5
f 365/2/5 362/2/5 364/2/5
f 366/2/5 362/2/5 365/2/5
f 371/2/5 368/2/5 367/2/5
f 372/2/5 368/2/5 371/2/5
f 373/2/5 370/2/5 369/2/5
f 374/2/5 370/2/5 373/2/5
f 375/2/6 376/2/6 377/2/6
f 377/2/6 376/2/6 378/2/6
f 378/2/6 376/2/6 379/2/6
f 379/2/6 376/2/6 380/2/6
f 381/2/6 382/2/6 383/2/6
f 383/2/6 382/2/6 384/2/6
f 385/2/6 386/2/6 389/2/6
f 386/5/6 387/5/6 390/5/6
f 389/2/6 386/2/6 390/2/6
f 387/2/6 388/2/6 391/2/6
f 390/5/6 387/5/6 391/5/6
f 391/2/6 388/2/6 392/2/6
f 393/2/6 394/2/6 397/2/6
f 397/2/6 394/2/6 398/2/6
f 395/2/6 396/2/6 399/2/6
f 399/2/6 396/2/6 400/2/6
f 401/2/6 402/2/6 405/2/6
f 403/2/6 404/2/6 406/2/6
f 401/2/6 405/2/6 407/2/6
f 405/2/6 406/2/6 407/2/6
f 406/2/6 404/2/6 408/2/6
f 407/2/6 406/2/6 408/2/6
f 409/2/6 410/2/6 413/2/6
f 410/5/6 411/5/6 414/5/6
f 413/2/6 410/2/6 414/2/6
f 411/2/6 412/2/6 415/2/6
f 414/5/6 411/5/6 415/5/6
f 415/2/6 412/2/6 416/2/6
f 417/2/6 418/2/6 421/2/6
f 421/2/6 418/2/6 422/2/6
f 419/2/6 420/2/6 423/2/6
f 423/2/6 420/2/6 424/2/6
f 425/2/6 426/2/6 429/2/6
f 426/5/6 427/5/6 429/5/6
f 427/2/6 428/2/6 430/2/6
f 429/5/6 427/5/6 430/5/6
f 425/2/6 429/2/6 431/2/6
f 429/2/6 430/2/6 431/2/6
f 430/2/6 428/2/6 432/2/6
f 431/2/6 430/2/6 432/2/6
f 425/2/6 431/2/6 433/2/6
f 433/2/6 431/2/6 434/2/6
f 432/2/6 428/2/6 435/2/6
f 435/2/6 428/2/6 436/2/6
