# MagicaVoxel @ Ephtracy

# group
o 

# material
mtllib CAR2.mtl
usemtl palette

# normals
vn -1 0 0
vn 1 0 0
vn 0 0 1
vn 0 0 -1
vn 0 -1 0
vn 0 1 0

# texcoords
vt 0.0214844 0.5
vt 0.138672 0.5
vt 0.873047 0.5
vt 0.876953 0.5
vt 0.958984 0.5
vt 0.962891 0.5
vt 0.978516 0.5
vt 0.986328 0.5

# verts
v -0.4 0 0.8
v -0.4 0 0.5
v -0.4 0 -0.3
v -0.4 0 -0.6
v -0.4 0.1 1
v -0.4 0.1 0.8
v -0.4 0.1 0.5
v -0.4 0.1 -0.3
v -0.4 0.1 -0.6
v -0.4 0.1 -0.7
v -0.4 0.2 0.4
v -0.4 0.2 -0.2
v -0.4 0.3 1
v -0.4 0.3 0.9
v -0.4 0.3 0.8
v -0.4 0.3 0.5
v -0.4 0.3 0.4
v -0.4 0.3 -0.2
v -0.4 0.3 -0.3
v -0.4 0.3 -0.6
v -0.4 0.3 -0.7
v -0.4 0.4 0.9
v -0.4 0.4 0.8
v -0.4 0.4 0.5
v -0.4 0.4 -0.3
v -0.4 0.4 -0.6
v -0.3 0.2 0.4
v -0.3 0.2 -0.2
v -0.3 0.3 1
v -0.3 0.3 0.9
v -0.3 0.3 0.5
v -0.3 0.3 0.4
v -0.3 0.3 -0.2
v -0.3 0.3 -0.3
v -0.3 0.3 -0.6
v -0.3 0.3 -0.7
v -0.3 0.4 1
v -0.3 0.4 0.9
v -0.3 0.4 0.8
v -0.3 0.4 0.5
v -0.3 0.4 -0.3
v -0.3 0.4 -0.6
v -0.3 0.4 -0.7
v -0.3 0.5 0.9
v -0.3 0.5 0.5
v -0.3 0.5 0.4
v -0.3 0.5 -0.1
v -0.3 0.5 -0.2
v -0.3 0.5 -0.6
v -0.3 0.6 0.4
v -0.3 0.6 -0.1
v -0.3 0.6 -0.2
v -0.3 0.7 0.5
v -0.3 0.7 -0.1
v 0.2 0.3 1
v 0.2 0.3 0.9
v 0.2 0.4 1
v 0.2 0.4 0.9
v 0.3 0 0.8
v 0.3 0 0.5
v 0.3 0 -0.3
v 0.3 0 -0.6
v 0.3 0.1 0.9
v 0.3 0.1 0.8
v 0.3 0.1 0.5
v 0.3 0.1 -0.3
v 0.3 0.1 -0.6
v 0.3 0.2 0.9
v 0.3 0.2 0.8
v 0.3 0.2 0.5
v 0.3 0.2 -0.3
v 0.3 0.2 -0.6
v -0.3 0 0.8
v -0.3 0 0.5
v -0.3 0 -0.3
v -0.3 0 -0.6
v -0.3 0.1 0.9
v -0.3 0.1 0.8
v -0.3 0.1 0.5
v -0.3 0.1 -0.3
v -0.3 0.1 -0.6
v -0.3 0.2 0.9
v -0.3 0.2 0.8
v -0.3 0.2 0.5
v -0.3 0.2 -0.3
v -0.3 0.2 -0.6
v -0.2 0.3 1
v -0.2 0.3 0.9
v -0.2 0.4 1
v -0.2 0.4 0.9
v 0.3 0.2 0.4
v 0.3 0.2 -0.2
v 0.3 0.3 1
v 0.3 0.3 0.9
v 0.3 0.3 0.5
v 0.3 0.3 0.4
v 0.3 0.3 -0.2
v 0.3 0.3 -0.3
v 0.3 0.3 -0.6
v 0.3 0.3 -0.7
v 0.3 0.4 1
v 0.3 0.4 0.9
v 0.3 0.4 0.8
v 0.3 0.4 0.5
v 0.3 0.4 -0.3
v 0.3 0.4 -0.6
v 0.3 0.4 -0.7
v 0.3 0.5 0.9
v 0.3 0.5 0.5
v 0.3 0.5 0.4
v 0.3 0.5 -0.1
v 0.3 0.5 -0.2
v 0.3 0.5 -0.6
v 0.3 0.6 0.4
v 0.3 0.6 -0.1
v 0.3 0.6 -0.2
v 0.3 0.7 0.5
v 0.3 0.7 -0.1
v 0.4 0 0.8
v 0.4 0 0.5
v 0.4 0 -0.3
v 0.4 0 -0.6
v 0.4 0.1 1
v 0.4 0.1 0.8
v 0.4 0.1 0.5
v 0.4 0.1 -0.3
v 0.4 0.1 -0.6
v 0.4 0.1 -0.7
v 0.4 0.2 0.4
v 0.4 0.2 -0.2
v 0.4 0.3 1
v 0.4 0.3 0.9
v 0.4 0.3 0.8
v 0.4 0.3 0.5
v 0.4 0.3 0.4
v 0.4 0.3 -0.2
v 0.4 0.3 -0.3
v 0.4 0.3 -0.6
v 0.4 0.3 -0.7
v 0.4 0.4 0.9
v 0.4 0.4 0.8
v 0.4 0.4 0.5
v 0.4 0.4 -0.3
v 0.4 0.4 -0.6
v -0.4 0.1 1
v -0.4 0.3 1
v -0.3 0.3 1
v -0.3 0.4 1
v -0.2 0.2 1
v -0.2 0.3 1
v -0.2 0.4 1
v 0.2 0.2 1
v 0.2 0.3 1
v 0.2 0.4 1
v 0.3 0.3 1
v 0.3 0.4 1
v 0.4 0.1 1
v 0.4 0.3 1
v -0.4 0.3 0.9
v -0.4 0.4 0.9
v -0.3 0.3 0.9
v -0.3 0.4 0.9
v -0.3 0.5 0.9
v -0.2 0.3 0.9
v -0.2 0.4 0.9
v -0.1 0.3 0.9
v -0.1 0.5 0.9
v 0.1 0.3 0.9
v 0.1 0.5 0.9
v 0.2 0.3 0.9
v 0.2 0.4 0.9
v 0.3 0.3 0.9
v 0.3 0.4 0.9
v 0.3 0.5 0.9
v 0.4 0.3 0.9
v 0.4 0.4 0.9
v -0.4 0 0.8
v -0.4 0.1 0.8
v -0.3 0 0.8
v -0.3 0.1 0.8
v 0.3 0 0.8
v 0.3 0.1 0.8
v 0.4 0 0.8
v 0.4 0.1 0.8
v -0.3 0.5 0.5
v -0.3 0.7 0.5
v -0.2 0.5 0.5
v -0.2 0.6 0.5
v -0.1 0.5 0.5
v -0.1 0.6 0.5
v -0.1 0.7 0.5
v 0.1 0.5 0.5
v 0.1 0.6 0.5
v 0.1 0.7 0.5
v 0.2 0.5 0.5
v 0.2 0.6 0.5
v 0.3 0.5 0.5
v 0.3 0.7 0.5
v -0.4 0.2 -0.2
v -0.4 0.3 -0.2
v -0.3 0.2 -0.2
v -0.3 0.3 -0.2
v 0.3 0.2 -0.2
v 0.3 0.3 -0.2
v 0.4 0.2 -0.2
v 0.4 0.3 -0.2
v -0.4 0 -0.3
v -0.4 0.1 -0.3
v -0.4 0.3 -0.3
v -0.4 0.4 -0.3
v -0.3 0 -0.3
v -0.3 0.1 -0.3
v -0.3 0.3 -0.3
v -0.3 0.4 -0.3
v 0.3 0 -0.3
v 0.3 0.1 -0.3
v 0.3 0.3 -0.3
v 0.3 0.4 -0.3
v 0.4 0 -0.3
v 0.4 0.1 -0.3
v 0.4 0.3 -0.3
v 0.4 0.4 -0.3
v -0.3 0.1 -0.6
v -0.3 0.2 -0.6
v 0.3 0.1 -0.6
v 0.3 0.2 -0.6
v -0.3 0.1 0.9
v -0.3 0.2 0.9
v 0.3 0.1 0.9
v 0.3 0.2 0.9
v -0.4 0 0.5
v -0.4 0.1 0.5
v -0.4 0.3 0.5
v -0.4 0.4 0.5
v -0.3 0 0.5
v -0.3 0.1 0.5
v -0.3 0.3 0.5
v -0.3 0.4 0.5
v 0.3 0 0.5
v 0.3 0.1 0.5
v 0.3 0.3 0.5
v 0.3 0.4 0.5
v 0.4 0 0.5
v 0.4 0.1 0.5
v 0.4 0.3 0.5
v 0.4 0.4 0.5
v -0.4 0.2 0.4
v -0.4 0.3 0.4
v -0.3 0.2 0.4
v -0.3 0.3 0.4
v 0.3 0.2 0.4
v 0.3 0.3 0.4
v 0.4 0.2 0.4
v 0.4 0.3 0.4
v -0.3 0.6 -0.1
v -0.3 0.7 -0.1
v -0.1 0.6 -0.1
v -0.1 0.7 -0.1
v 0.1 0.6 -0.1
v 0.1 0.7 -0.1
v 0.3 0.6 -0.1
v 0.3 0.7 -0.1
v -0.3 0.5 -0.2
v -0.3 0.6 -0.2
v -0.1 0.5 -0.2
v -0.1 0.6 -0.2
v 0.1 0.5 -0.2
v 0.1 0.6 -0.2
v 0.3 0.5 -0.2
v 0.3 0.6 -0.2
v -0.4 0 -0.6
v -0.4 0.1 -0.6
v -0.4 0.3 -0.6
v -0.4 0.4 -0.6
v -0.3 0 -0.6
v -0.3 0.1 -0.6
v -0.3 0.3 -0.6
v -0.3 0.4 -0.6
v -0.3 0.5 -0.6
v -0.2 0.4 -0.6
v -0.1 0.4 -0.6
v -0.1 0.5 -0.6
v 0.1 0.4 -0.6
v 0.1 0.5 -0.6
v 0.2 0.4 -0.6
v 0.3 0 -0.6
v 0.3 0.1 -0.6
v 0.3 0.3 -0.6
v 0.3 0.4 -0.6
v 0.3 0.5 -0.6
v 0.4 0 -0.6
v 0.4 0.1 -0.6
v 0.4 0.3 -0.6
v 0.4 0.4 -0.6
v -0.4 0.1 -0.7
v -0.4 0.3 -0.7
v -0.3 0.3 -0.7
v -0.3 0.4 -0.7
v -0.2 0.3 -0.7
v -0.2 0.4 -0.7
v -0.1 0.3 -0.7
v -0.1 0.4 -0.7
v 0.1 0.3 -0.7
v 0.1 0.4 -0.7
v 0.2 0.3 -0.7
v 0.2 0.4 -0.7
v 0.3 0.3 -0.7
v 0.3 0.4 -0.7
v 0.4 0.1 -0.7
v 0.4 0.3 -0.7
v -0.4 0 0.8
v -0.3 0 0.8
v 0.3 0 0.8
v 0.4 0 0.8
v -0.4 0 0.5
v -0.3 0 0.5
v 0.3 0 0.5
v 0.4 0 0.5
v -0.4 0 -0.3
v -0.3 0 -0.3
v 0.3 0 -0.3
v 0.4 0 -0.3
v -0.4 0 -0.6
v -0.3 0 -0.6
v 0.3 0 -0.6
v 0.4 0 -0.6
v -0.4 0.1 1
v 0.4 0.1 1
v -0.3 0.1 0.9
v 0.3 0.1 0.9
v -0.4 0.1 0.8
v -0.3 0.1 0.8
v 0.3 0.1 0.8
v 0.4 0.1 0.8
v -0.4 0.1 0.5
v -0.3 0.1 0.5
v 0.3 0.1 0.5
v 0.4 0.1 0.5
v -0.4 0.1 -0.3
v -0.3 0.1 -0.3
v 0.3 0.1 -0.3
v 0.4 0.1 -0.3
v -0.4 0.1 -0.6
v -0.3 0.1 -0.6
v 0.3 0.1 -0.6
v 0.4 0.1 -0.6
v -0.4 0.1 -0.7
v 0.4 0.1 -0.7
v -0.3 0.2 0.9
v 0.3 0.2 0.9
v -0.3 0.2 0.8
v 0.3 0.2 0.8
v -0.3 0.2 0.5
v 0.3 0.2 0.5
v -0.3 0.2 -0.3
v 0.3 0.2 -0.3
v -0.3 0.2 -0.6
v 0.3 0.2 -0.6
v -0.4 0.2 0.4
v -0.3 0.2 0.4
v 0.3 0.2 0.4
v 0.4 0.2 0.4
v -0.4 0.2 -0.2
v -0.3 0.2 -0.2
v 0.3 0.2 -0.2
v 0.4 0.2 -0.2
v -0.4 0.3 1
v -0.3 0.3 1
v -0.2 0.3 1
v 0.2 0.3 1
v 0.3 0.3 1
v 0.4 0.3 1
v -0.4 0.3 0.9
v -0.3 0.3 0.9
v -0.2 0.3 0.9
v -0.1 0.3 0.9
v 0.1 0.3 0.9
v 0.2 0.3 0.9
v 0.3 0.3 0.9
v 0.4 0.3 0.9
v -0.4 0.3 0.5
v -0.3 0.3 0.5
v 0.3 0.3 0.5
v 0.4 0.3 0.5
v -0.4 0.3 0.4
v -0.3 0.3 0.4
v 0.3 0.3 0.4
v 0.4 0.3 0.4
v -0.4 0.3 -0.2
v -0.3 0.3 -0.2
v 0.3 0.3 -0.2
v 0.4 0.3 -0.2
v -0.4 0.3 -0.3
v -0.3 0.3 -0.3
v 0.3 0.3 -0.3
v 0.4 0.3 -0.3
v -0.4 0.3 -0.6
v -0.3 0.3 -0.6
v 0.3 0.3 -0.6
v 0.4 0.3 -0.6
v -0.4 0.3 -0.7
v -0.3 0.3 -0.7
v 0.3 0.3 -0.7
v 0.4 0.3 -0.7
v -0.3 0.4 1
v -0.2 0.4 1
v 0.2 0.4 1
v 0.3 0.4 1
v -0.4 0.4 0.9
v -0.3 0.4 0.9
v -0.2 0.4 0.9
v 0.2 0.4 0.9
v 0.3 0.4 0.9
v 0.4 0.4 0.9
v -0.4 0.4 0.8
v -0.3 0.4 0.8
v 0.3 0.4 0.8
v 0.4 0.4 0.8
v -0.4 0.4 0.5
v -0.3 0.4 0.5
v 0.3 0.4 0.5
v 0.4 0.4 0.5
v -0.4 0.4 -0.3
v -0.3 0.4 -0.3
v 0.3 0.4 -0.3
v 0.4 0.4 -0.3
v -0.4 0.4 -0.6
v -0.3 0.4 -0.6
v -0.2 0.4 -0.6
v -0.1 0.4 -0.6
v 0.1 0.4 -0.6
v 0.2 0.4 -0.6
v 0.3 0.4 -0.6
v 0.4 0.4 -0.6
v -0.3 0.4 -0.7
v -0.2 0.4 -0.7
v -0.1 0.4 -0.7
v 0.1 0.4 -0.7
v 0.2 0.4 -0.7
v 0.3 0.4 -0.7
v -0.3 0.5 0.9
v -0.1 0.5 0.9
v 0.1 0.5 0.9
v 0.3 0.5 0.9
v -0.3 0.5 0.5
v -0.2 0.5 0.5
v -0.1 0.5 0.5
v 0.1 0.5 0.5
v 0.2 0.5 0.5
v 0.3 0.5 0.5
v -0.3 0.5 -0.2
v -0.1 0.5 -0.2
v 0.1 0.5 -0.2
v 0.3 0.5 -0.2
v -0.3 0.5 -0.6
v -0.1 0.5 -0.6
v 0.1 0.5 -0.6
v 0.3 0.5 -0.6
v -0.3 0.6 -0.1
v -0.1 0.6 -0.1
v 0.1 0.6 -0.1
v 0.3 0.6 -0.1
v -0.3 0.6 -0.2
v -0.1 0.6 -0.2
v 0.1 0.6 -0.2
v 0.3 0.6 -0.2
v -0.3 0.7 0.5
v -0.1 0.7 0.5
v 0.1 0.7 0.5
v 0.3 0.7 0.5
v -0.3 0.7 -0.1
v -0.1 0.7 -0.1
v 0.1 0.7 -0.1
v 0.3 0.7 -0.1

# faces
f 6/4/1 2/4/1 1/4/1
f 7/4/1 2/4/1 6/4/1
f 8/4/1 4/4/1 3/4/1
f 9/4/1 4/4/1 8/4/1
f 11/8/1 8/8/1 7/8/1
f 12/8/1 8/8/1 11/8/1
f 13/8/1 6/8/1 5/8/1
f 14/8/1 6/8/1 13/8/1
f 15/4/1 7/4/1 6/4/1
f 15/8/1 6/8/1 14/8/1
f 16/8/1 11/8/1 7/8/1
f 16/4/1 7/4/1 15/4/1
f 17/8/1 11/8/1 16/8/1
f 18/8/1 8/8/1 12/8/1
f 19/4/1 9/4/1 8/4/1
f 19/8/1 8/8/1 18/8/1
f 20/8/1 10/8/1 9/8/1
f 20/4/1 9/4/1 19/4/1
f 21/8/1 10/8/1 20/8/1
f 22/6/1 15/6/1 14/6/1
f 23/8/1 16/8/1 15/8/1
f 23/6/1 15/6/1 22/6/1
f 24/8/1 16/8/1 23/8/1
f 25/8/1 20/8/1 19/8/1
f 26/8/1 20/8/1 25/8/1
f 32/3/1 28/3/1 27/3/1
f 33/3/1 28/3/1 32/3/1
f 37/1/1 30/1/1 29/1/1
f 38/1/1 30/1/1 37/1/1
f 40/4/1 32/4/1 31/4/1
f 40/4/1 33/4/1 32/4/1
f 40/4/1 34/4/1 33/4/1
f 41/4/1 34/4/1 40/4/1
f 42/2/1 36/2/1 35/2/1
f 43/2/1 36/2/1 42/2/1
f 44/3/1 41/3/1 40/3/1
f 44/3/1 39/3/1 38/3/1
f 44/3/1 42/3/1 41/3/1
f 44/3/1 40/3/1 39/3/1
f 45/3/1 42/3/1 44/3/1
f 46/3/1 42/3/1 45/3/1
f 47/3/1 42/3/1 46/3/1
f 48/3/1 42/3/1 47/3/1
f 49/3/1 42/3/1 48/3/1
f 50/3/1 46/3/1 45/3/1
f 50/5/1 47/5/1 46/5/1
f 51/3/1 48/3/1 47/3/1
f 51/5/1 47/5/1 50/5/1
f 52/3/1 48/3/1 51/3/1
f 53/3/1 50/3/1 45/3/1
f 53/3/1 51/3/1 50/3/1
f 54/3/1 51/3/1 53/3/1
f 57/1/1 56/1/1 55/1/1
f 58/1/1 56/1/1 57/1/1
f 64/4/1 60/4/1 59/4/1
f 65/4/1 60/4/1 64/4/1
f 66/4/1 62/4/1 61/4/1
f 67/4/1 62/4/1 66/4/1
f 68/8/1 64/8/1 63/8/1
f 69/4/1 65/4/1 64/4/1
f 69/8/1 64/8/1 68/8/1
f 70/8/1 66/8/1 65/8/1
f 70/4/1 65/4/1 69/4/1
f 71/4/1 67/4/1 66/4/1
f 71/8/1 66/8/1 70/8/1
f 72/4/1 67/4/1 71/4/1
f 73/4/2 74/4/2 78/4/2
f 78/4/2 74/4/2 79/4/2
f 75/4/2 76/4/2 80/4/2
f 80/4/2 76/4/2 81/4/2
f 77/8/2 78/8/2 82/8/2
f 78/4/2 79/4/2 83/4/2
f 82/8/2 78/8/2 83/8/2
f 79/8/2 80/8/2 84/8/2
f 83/4/2 79/4/2 84/4/2
f 80/4/2 81/4/2 85/4/2
f 84/8/2 80/8/2 85/8/2
f 85/4/2 81/4/2 86/4/2
f 87/1/2 88/1/2 89/1/2
f 89/1/2 88/1/2 90/1/2
f 91/3/2 92/3/2 96/3/2
f 96/3/2 92/3/2 97/3/2
f 93/1/2 94/1/2 101/1/2
f 101/1/2 94/1/2 102/1/2
f 95/4/2 96/4/2 104/4/2
f 96/4/2 97/4/2 104/4/2
f 97/4/2 98/4/2 104/4/2
f 104/4/2 98/4/2 105/4/2
f 99/2/2 100/2/2 106/2/2
f 106/2/2 100/2/2 107/2/2
f 104/3/2 105/3/2 108/3/2
f 102/3/2 103/3/2 108/3/2
f 105/3/2 106/3/2 108/3/2
f 103/3/2 104/3/2 108/3/2
f 108/3/2 106/3/2 109/3/2
f 109/3/2 106/3/2 110/3/2
f 110/3/2 106/3/2 111/3/2
f 111/3/2 106/3/2 112/3/2
f 112/3/2 106/3/2 113/3/2
f 109/3/2 110/3/2 114/3/2
f 110/5/2 111/5/2 114/5/2
f 111/3/2 112/3/2 115/3/2
f 114/5/2 111/5/2 115/5/2
f 115/3/2 112/3/2 116/3/2
f 109/3/2 114/3/2 117/3/2
f 114/3/2 115/3/2 117/3/2
f 117/3/2 115/3/2 118/3/2
f 119/4/2 120/4/2 124/4/2
f 124/4/2 120/4/2 125/4/2
f 121/4/2 122/4/2 126/4/2
f 126/4/2 122/4/2 127/4/2
f 125/8/2 126/8/2 129/8/2
f 129/8/2 126/8/2 130/8/2
f 123/8/2 124/8/2 131/8/2
f 131/8/2 124/8/2 132/8/2
f 124/4/2 125/4/2 133/4/2
f 132/8/2 124/8/2 133/8/2
f 125/8/2 129/8/2 134/8/2
f 133/4/2 125/4/2 134/4/2
f 134/8/2 129/8/2 135/8/2
f 130/8/2 126/8/2 136/8/2
f 126/4/2 127/4/2 137/4/2
f 136/8/2 126/8/2 137/8/2
f 127/8/2 128/8/2 138/8/2
f 137/4/2 127/4/2 138/4/2
f 138/8/2 128/8/2 139/8/2
f 132/6/2 133/6/2 140/6/2
f 133/8/2 134/8/2 141/8/2
f 140/6/2 133/6/2 141/6/2
f 141/8/2 134/8/2 142/8/2
f 137/8/2 138/8/2 143/8/2
f 143/8/2 138/8/2 144/8/2
f 147/8/3 146/8/3 145/8/3
f 149/8/3 147/8/3 145/8/3
f 150/1/3 148/1/3 147/1/3
f 150/8/3 147/8/3 149/8/3
f 151/1/3 148/1/3 150/1/3
f 152/8/3 149/8/3 145/8/3
f 152/7/3 150/7/3 149/7/3
f 153/7/3 150/7/3 152/7/3
f 155/8/3 153/8/3 152/8/3
f 155/1/3 154/1/3 153/1/3
f 156/1/3 154/1/3 155/1/3
f 157/8/3 152/8/3 145/8/3
f 157/8/3 155/8/3 152/8/3
f 158/8/3 155/8/3 157/8/3
f 161/6/3 160/6/3 159/6/3
f 162/6/3 160/6/3 161/6/3
f 165/3/3 163/3/3 162/3/3
f 166/3/3 165/3/3 164/3/3
f 167/3/3 163/3/3 165/3/3
f 167/3/3 165/3/3 166/3/3
f 168/4/3 167/4/3 166/4/3
f 169/4/3 167/4/3 168/4/3
f 170/3/3 169/3/3 168/3/3
f 171/3/3 169/3/3 170/3/3
f 173/3/3 169/3/3 171/3/3
f 174/3/3 169/3/3 173/3/3
f 175/6/3 173/6/3 172/6/3
f 176/6/3 173/6/3 175/6/3
f 179/4/3 178/4/3 177/4/3
f 180/4/3 178/4/3 179/4/3
f 183/4/3 182/4/3 181/4/3
f 184/4/3 182/4/3 183/4/3
f 187/3/3 186/3/3 185/3/3
f 188/3/3 186/3/3 187/3/3
f 189/5/3 188/5/3 187/5/3
f 190/3/3 186/3/3 188/3/3
f 190/5/3 188/5/3 189/5/3
f 191/3/3 186/3/3 190/3/3
f 192/5/3 190/5/3 189/5/3
f 193/4/3 191/4/3 190/4/3
f 193/5/3 190/5/3 192/5/3
f 194/4/3 191/4/3 193/4/3
f 195/5/3 193/5/3 192/5/3
f 196/3/3 194/3/3 193/3/3
f 196/5/3 193/5/3 195/5/3
f 197/3/3 196/3/3 195/3/3
f 198/3/3 194/3/3 196/3/3
f 198/3/3 196/3/3 197/3/3
f 201/8/3 200/8/3 199/8/3
f 202/8/3 200/8/3 201/8/3
f 205/8/3 204/8/3 203/8/3
f 206/8/3 204/8/3 205/8/3
f 211/4/3 208/4/3 207/4/3
f 212/4/3 208/4/3 211/4/3
f 213/8/3 210/8/3 209/8/3
f 214/8/3 210/8/3 213/8/3
f 219/4/3 216/4/3 215/4/3
f 220/4/3 216/4/3 219/4/3
f 221/8/3 218/8/3 217/8/3
f 222/8/3 218/8/3 221/8/3
f 225/8/3 224/8/3 223/8/3
f 226/8/3 224/8/3 225/8/3
f 227/8/4 228/8/4 229/8/4
f 229/8/4 228/8/4 230/8/4
f 231/4/4 232/4/4 235/4/4
f 235/4/4 232/4/4 236/4/4
f 233/8/4 234/8/4 237/8/4
f 237/8/4 234/8/4 238/8/4
f 239/4/4 240/4/4 243/4/4
f 243/4/4 240/4/4 244/4/4
f 241/8/4 242/8/4 245/8/4
f 245/8/4 242/8/4 246/8/4
f 247/8/4 248/8/4 249/8/4
f 249/8/4 248/8/4 250/8/4
f 251/8/4 252/8/4 253/8/4
f 253/8/4 252/8/4 254/8/4
f 255/3/4 256/3/4 257/3/4
f 257/3/4 256/3/4 258/3/4
f 257/4/4 258/4/4 259/4/4
f 259/4/4 258/4/4 260/4/4
f 259/3/4 260/3/4 261/3/4
f 261/3/4 260/3/4 262/3/4
f 263/3/4 264/3/4 265/3/4
f 265/3/4 264/3/4 266/3/4
f 265/4/4 266/4/4 267/4/4
f 267/4/4 266/4/4 268/4/4
f 267/3/4 268/3/4 269/3/4
f 269/3/4 268/3/4 270/3/4
f 271/4/4 272/4/4 275/4/4
f 275/4/4 272/4/4 276/4/4
f 273/8/4 274/8/4 277/8/4
f 277/8/4 274/8/4 278/8/4
f 278/3/4 279/3/4 280/3/4
f 280/3/4 279/3/4 281/3/4
f 281/3/4 279/3/4 282/3/4
f 281/4/4 282/4/4 283/4/4
f 283/4/4 282/4/4 284/4/4
f 283/3/4 284/3/4 285/3/4
f 285/3/4 284/3/4 289/3/4
f 289/3/4 284/3/4 290/3/4
f 286/4/4 287/4/4 291/4/4
f 291/4/4 287/4/4 292/4/4
f 288/8/4 289/8/4 293/8/4
f 293/8/4 289/8/4 294/8/4
f 295/8/4 296/8/4 297/8/4
f 295/8/4 297/8/4 299/8/4
f 297/2/4 298/2/4 299/2/4
f 299/2/4 298/2/4 300/2/4
f 295/8/4 299/8/4 301/8/4
f 299/3/4 300/3/4 301/3/4
f 301/3/4 300/3/4 302/3/4
f 295/8/4 301/8/4 303/8/4
f 301/4/4 302/4/4 303/4/4
f 303/4/4 302/4/4 304/4/4
f 295/8/4 303/8/4 305/8/4
f 303/3/4 304/3/4 305/3/4
f 305/3/4 304/3/4 306/3/4
f 295/8/4 305/8/4 307/8/4
f 305/2/4 306/2/4 307/2/4
f 307/2/4 306/2/4 308/2/4
f 295/8/4 307/8/4 309/8/4
f 309/8/4 307/8/4 310/8/4
f 315/4/5 312/4/5 311/4/5
f 316/4/5 312/4/5 315/4/5
f 317/4/5 314/4/5 313/4/5
f 318/4/5 314/4/5 317/4/5
f 323/4/5 320/4/5 319/4/5
f 324/4/5 320/4/5 323/4/5
f 325/4/5 322/4/5 321/4/5
f 326/4/5 322/4/5 325/4/5
f 329/8/5 328/8/5 327/8/5
f 330/8/5 328/8/5 329/8/5
f 331/8/5 329/8/5 327/8/5
f 332/8/5 329/8/5 331/8/5
f 333/8/5 328/8/5 330/8/5
f 334/8/5 328/8/5 333/8/5
f 339/8/5 336/8/5 335/8/5
f 340/8/5 336/8/5 339/8/5
f 341/8/5 338/8/5 337/8/5
f 342/8/5 338/8/5 341/8/5
f 347/8/5 344/8/5 343/8/5
f 347/8/5 346/8/5 345/8/5
f 347/8/5 345/8/5 344/8/5
f 348/8/5 346/8/5 347/8/5
f 351/3/5 350/3/5 349/3/5
f 352/3/5 350/3/5 351/3/5
f 353/3/5 352/3/5 351/3/5
f 354/3/5 352/3/5 353/3/5
f 355/3/5 354/3/5 353/3/5
f 356/3/5 354/3/5 355/3/5
f 357/3/5 356/3/5 355/3/5
f 358/3/5 356/3/5 357/3/5
f 359/8/6 360/8/6 363/8/6
f 363/8/6 360/8/6 364/8/6
f 361/8/6 362/8/6 365/8/6
f 365/8/6 362/8/6 366/8/6
f 367/8/6 368/8/6 373/8/6
f 373/8/6 368/8/6 374/8/6
f 369/7/6 370/7/6 375/7/6
f 375/7/6 370/7/6 376/7/6
f 376/7/6 370/7/6 377/7/6
f 377/7/6 370/7/6 378/7/6
f 371/8/6 372/8/6 379/8/6
f 379/8/6 372/8/6 380/8/6
f 381/8/6 382/8/6 385/8/6
f 385/8/6 382/8/6 386/8/6
f 383/8/6 384/8/6 387/8/6
f 387/8/6 384/8/6 388/8/6
f 389/8/6 390/8/6 393/8/6
f 393/8/6 390/8/6 394/8/6
f 391/8/6 392/8/6 395/8/6
f 395/8/6 392/8/6 396/8/6
f 397/8/6 398/8/6 401/8/6
f 401/8/6 398/8/6 402/8/6
f 399/8/6 400/8/6 403/8/6
f 403/8/6 400/8/6 404/8/6
f 405/1/6 406/1/6 410/1/6
f 410/1/6 406/1/6 411/1/6
f 407/1/6 408/1/6 412/1/6
f 412/1/6 408/1/6 413/1/6
f 409/6/6 410/6/6 415/6/6
f 415/6/6 410/6/6 416/6/6
f 413/6/6 414/6/6 417/6/6
f 417/6/6 414/6/6 418/6/6
f 415/8/6 416/8/6 419/8/6
f 419/8/6 416/8/6 420/8/6
f 417/8/6 418/8/6 421/8/6
f 421/8/6 418/8/6 422/8/6
f 423/8/6 424/8/6 427/8/6
f 427/8/6 424/8/6 428/8/6
f 425/8/6 426/8/6 433/8/6
f 433/8/6 426/8/6 434/8/6
f 428/2/6 429/2/6 435/2/6
f 429/3/6 430/3/6 436/3/6
f 435/2/6 429/2/6 436/2/6
f 430/4/6 431/4/6 437/4/6
f 436/3/6 430/3/6 437/3/6
f 431/3/6 432/3/6 438/3/6
f 437/4/6 431/4/6 438/4/6
f 432/2/6 433/2/6 439/2/6
f 438/3/6 432/3/6 439/3/6
f 439/2/6 433/2/6 440/2/6
f 441/3/6 442/3/6 445/3/6
f 445/3/6 442/3/6 446/3/6
f 442/4/6 443/4/6 447/4/6
f 446/3/6 442/3/6 447/3/6
f 443/3/6 444/3/6 448/3/6
f 447/4/6 443/4/6 448/4/6
f 448/3/6 444/3/6 449/3/6
f 449/3/6 444/3/6 450/3/6
f 451/3/6 452/3/6 455/3/6
f 452/4/6 453/4/6 456/4/6
f 455/3/6 452/3/6 456/3/6
f 453/3/6 454/3/6 457/3/6
f 456/4/6 453/4/6 457/4/6
f 457/3/6 454/3/6 458/3/6
f 459/3/6 460/3/6 463/3/6
f 460/4/6 461/4/6 464/4/6
f 463/3/6 460/3/6 464/3/6
f 461/3/6 462/3/6 465/3/6
f 464/4/6 461/4/6 465/4/6
f 465/3/6 462/3/6 466/3/6
f 467/3/6 468/3/6 471/3/6
f 468/4/6 469/4/6 472/4/6
f 471/3/6 468/3/6 472/3/6
f 469/3/6 470/3/6 473/3/6
f 472/4/6 469/4/6 473/4/6
f 473/3/6 470/3/6 474/3/6
