# MagicaVoxel @ Ephtracy

# group
o 

# material
mtllib CAR4.mtl
usemtl palette

# normals
vn -1 0 0
vn 1 0 0
vn 0 0 1
vn 0 0 -1
vn 0 -1 0
vn 0 1 0

# texcoords
vt 0.0214844 0.5
vt 0.255859 0.5
vt 0.876953 0.5
vt 0.958984 0.5
vt 0.986328 0.5
vt 0.990234 0.5

# verts
v -0.4 0 0.7
v -0.4 0 0.4
v -0.4 0 -0.4
v -0.4 0 -0.7
v -0.4 0.1 0.9
v -0.4 0.1 0.7
v -0.4 0.1 0.4
v -0.4 0.1 -0.4
v -0.4 0.1 -0.7
v -0.4 0.1 -0.9
v -0.4 0.2 0.3
v -0.4 0.2 -0.3
v -0.4 0.3 0.9
v -0.4 0.3 0.8
v -0.4 0.3 0.7
v -0.4 0.3 0.4
v -0.4 0.3 0.3
v -0.4 0.3 -0.3
v -0.4 0.3 -0.4
v -0.4 0.3 -0.7
v -0.4 0.3 -0.9
v -0.4 0.4 0.8
v -0.4 0.4 0.7
v -0.4 0.4 0.6
v -0.4 0.4 0.4
v -0.4 0.4 -0.4
v -0.4 0.4 -0.7
v -0.4 0.5 0.8
v -0.4 0.5 0.6
v -0.3 0.2 0.3
v -0.3 0.2 0
v -0.3 0.2 -0.1
v -0.3 0.2 -0.3
v -0.3 0.3 0.9
v -0.3 0.3 0.8
v -0.3 0.3 0.4
v -0.3 0.3 0.3
v -0.3 0.3 -0.3
v -0.3 0.3 -0.4
v -0.3 0.3 -0.7
v -0.3 0.3 -0.8
v -0.3 0.4 0.9
v -0.3 0.4 0.8
v -0.3 0.4 0.6
v -0.3 0.4 0.4
v -0.3 0.4 -0.4
v -0.3 0.4 -0.6
v -0.3 0.4 -0.7
v -0.3 0.4 -0.8
v -0.3 0.5 0.9
v -0.3 0.5 0.8
v -0.3 0.5 0.6
v -0.3 0.5 0.4
v -0.3 0.5 0.3
v -0.3 0.5 0
v -0.3 0.5 -0.1
v -0.3 0.5 -0.5
v -0.3 0.7 0.3
v -0.3 0.7 0
v -0.3 0.7 -0.1
v -0.3 0.7 -0.5
v -0.3 0.7 -0.6
v -0.3 0.8 0.4
v -0.3 0.8 -0.7
v -0.2 0.8 -0.6
v -0.2 0.8 -0.7
v -0.2 0.9 -0.6
v -0.2 0.9 -0.7
v 0.1 0.3 0.9
v 0.1 0.3 0.8
v 0.1 0.4 0.9
v 0.1 0.4 0.8
v 0.2 0.4 0.9
v 0.2 0.4 0.8
v 0.2 0.4 -0.6
v 0.2 0.4 -0.7
v 0.2 0.5 0.9
v 0.2 0.5 0.8
v 0.2 0.8 -0.6
v 0.2 0.8 -0.7
v 0.3 0 0.7
v 0.3 0 0.4
v 0.3 0 -0.4
v 0.3 0 -0.7
v 0.3 0.1 0.8
v 0.3 0.1 0.7
v 0.3 0.1 0.4
v 0.3 0.1 -0.4
v 0.3 0.1 -0.7
v 0.3 0.1 -0.8
v 0.3 0.2 0.8
v 0.3 0.2 0.7
v 0.3 0.2 0.4
v 0.3 0.2 0
v 0.3 0.2 -0.1
v 0.3 0.2 -0.4
v 0.3 0.2 -0.7
v 0.3 0.2 -0.8
v -0.3 0 0.7
v -0.3 0 0.4
v -0.3 0 -0.4
v -0.3 0 -0.7
v -0.3 0.1 0.8
v -0.3 0.1 0.7
v -0.3 0.1 0.4
v -0.3 0.1 -0.4
v -0.3 0.1 -0.7
v -0.3 0.1 -0.8
v -0.3 0.2 0.8
v -0.3 0.2 0.7
v -0.3 0.2 0.4
v -0.3 0.2 0
v -0.3 0.2 -0.1
v -0.3 0.2 -0.4
v -0.3 0.2 -0.7
v -0.3 0.2 -0.8
v -0.2 0.4 0.9
v -0.2 0.4 0.8
v -0.2 0.4 -0.6
v -0.2 0.4 -0.7
v -0.2 0.5 0.9
v -0.2 0.5 0.8
v -0.2 0.5 -0.6
v -0.2 0.5 -0.7
v -0.1 0.3 0.9
v -0.1 0.3 0.8
v -0.1 0.4 0.9
v -0.1 0.4 0.8
v 0.1 0.5 -0.6
v 0.1 0.5 -0.7
v 0.1 0.8 -0.6
v 0.1 0.8 -0.7
v 0.2 0.8 -0.6
v 0.2 0.8 -0.7
v 0.2 0.9 -0.6
v 0.2 0.9 -0.7
v 0.3 0.2 0.3
v 0.3 0.2 0
v 0.3 0.2 -0.1
v 0.3 0.2 -0.3
v 0.3 0.3 0.9
v 0.3 0.3 0.8
v 0.3 0.3 0.4
v 0.3 0.3 0.3
v 0.3 0.3 -0.3
v 0.3 0.3 -0.4
v 0.3 0.3 -0.7
v 0.3 0.3 -0.8
v 0.3 0.4 0.9
v 0.3 0.4 0.8
v 0.3 0.4 0.6
v 0.3 0.4 0.4
v 0.3 0.4 -0.4
v 0.3 0.4 -0.6
v 0.3 0.4 -0.7
v 0.3 0.4 -0.8
v 0.3 0.5 0.9
v 0.3 0.5 0.8
v 0.3 0.5 0.6
v 0.3 0.5 0.4
v 0.3 0.5 0.3
v 0.3 0.5 0
v 0.3 0.5 -0.1
v 0.3 0.5 -0.5
v 0.3 0.7 0.3
v 0.3 0.7 0
v 0.3 0.7 -0.1
v 0.3 0.7 -0.5
v 0.3 0.7 -0.6
v 0.3 0.8 0.4
v 0.3 0.8 -0.7
v 0.4 0 0.7
v 0.4 0 0.4
v 0.4 0 -0.4
v 0.4 0 -0.7
v 0.4 0.1 0.9
v 0.4 0.1 0.7
v 0.4 0.1 0.4
v 0.4 0.1 -0.4
v 0.4 0.1 -0.7
v 0.4 0.1 -0.9
v 0.4 0.2 0.3
v 0.4 0.2 -0.3
v 0.4 0.3 0.9
v 0.4 0.3 0.8
v 0.4 0.3 0.7
v 0.4 0.3 0.4
v 0.4 0.3 0.3
v 0.4 0.3 -0.3
v 0.4 0.3 -0.4
v 0.4 0.3 -0.7
v 0.4 0.3 -0.9
v 0.4 0.4 0.8
v 0.4 0.4 0.7
v 0.4 0.4 0.6
v 0.4 0.4 0.4
v 0.4 0.4 -0.4
v 0.4 0.4 -0.7
v 0.4 0.5 0.8
v 0.4 0.5 0.6
v -0.4 0.1 0.9
v -0.4 0.3 0.9
v -0.3 0.3 0.9
v -0.3 0.4 0.9
v -0.3 0.5 0.9
v -0.2 0.3 0.9
v -0.2 0.4 0.9
v -0.2 0.5 0.9
v -0.1 0.3 0.9
v -0.1 0.4 0.9
v 0.1 0.3 0.9
v 0.1 0.4 0.9
v 0.2 0.3 0.9
v 0.2 0.4 0.9
v 0.2 0.5 0.9
v 0.3 0.3 0.9
v 0.3 0.4 0.9
v 0.3 0.5 0.9
v 0.4 0.1 0.9
v 0.4 0.3 0.9
v -0.4 0.3 0.8
v -0.4 0.4 0.8
v -0.4 0.5 0.8
v -0.3 0.3 0.8
v -0.3 0.4 0.8
v -0.3 0.5 0.8
v -0.2 0.4 0.8
v -0.2 0.5 0.8
v -0.1 0.3 0.8
v -0.1 0.4 0.8
v 0.1 0.3 0.8
v 0.1 0.4 0.8
v 0.2 0.4 0.8
v 0.2 0.5 0.8
v 0.3 0.3 0.8
v 0.3 0.4 0.8
v 0.3 0.5 0.8
v 0.4 0.3 0.8
v 0.4 0.4 0.8
v 0.4 0.5 0.8
v -0.4 0 0.7
v -0.4 0.1 0.7
v -0.3 0 0.7
v -0.3 0.1 0.7
v 0.3 0 0.7
v 0.3 0.1 0.7
v 0.4 0 0.7
v 0.4 0.1 0.7
v -0.3 0.5 0.4
v -0.3 0.8 0.4
v -0.2 0.5 0.4
v -0.2 0.7 0.4
v -0.2 0.8 0.4
v 0.2 0.5 0.4
v 0.2 0.7 0.4
v 0.2 0.8 0.4
v 0.3 0.5 0.4
v 0.3 0.8 0.4
v -0.4 0.2 -0.3
v -0.4 0.3 -0.3
v -0.3 0.2 -0.3
v -0.3 0.3 -0.3
v 0.3 0.2 -0.3
v 0.3 0.3 -0.3
v 0.4 0.2 -0.3
v 0.4 0.3 -0.3
v -0.4 0 -0.4
v -0.4 0.1 -0.4
v -0.4 0.3 -0.4
v -0.4 0.4 -0.4
v -0.3 0 -0.4
v -0.3 0.1 -0.4
v -0.3 0.3 -0.4
v -0.3 0.4 -0.4
v 0.3 0 -0.4
v 0.3 0.1 -0.4
v 0.3 0.3 -0.4
v 0.3 0.4 -0.4
v 0.4 0 -0.4
v 0.4 0.1 -0.4
v 0.4 0.3 -0.4
v 0.4 0.4 -0.4
v -0.2 0.8 -0.6
v -0.2 0.9 -0.6
v 0.2 0.8 -0.6
v 0.2 0.9 -0.6
v -0.3 0.1 -0.8
v -0.3 0.2 -0.8
v 0.3 0.1 -0.8
v 0.3 0.2 -0.8
v -0.3 0.1 0.8
v -0.3 0.2 0.8
v 0.3 0.1 0.8
v 0.3 0.2 0.8
v -0.4 0.4 0.6
v -0.4 0.5 0.6
v -0.3 0.4 0.6
v -0.3 0.5 0.6
v 0.3 0.4 0.6
v 0.3 0.5 0.6
v 0.4 0.4 0.6
v 0.4 0.5 0.6
v -0.4 0 0.4
v -0.4 0.1 0.4
v -0.4 0.3 0.4
v -0.4 0.4 0.4
v -0.3 0 0.4
v -0.3 0.1 0.4
v -0.3 0.3 0.4
v -0.3 0.4 0.4
v 0.3 0 0.4
v 0.3 0.1 0.4
v 0.3 0.3 0.4
v 0.3 0.4 0.4
v 0.4 0 0.4
v 0.4 0.1 0.4
v 0.4 0.3 0.4
v 0.4 0.4 0.4
v -0.4 0.2 0.3
v -0.4 0.3 0.3
v -0.3 0.2 0.3
v -0.3 0.3 0.3
v 0.3 0.2 0.3
v 0.3 0.3 0.3
v 0.4 0.2 0.3
v 0.4 0.3 0.3
v -0.2 0.4 -0.6
v -0.2 0.5 -0.6
v 0.1 0.5 -0.6
v 0.1 0.8 -0.6
v 0.2 0.4 -0.6
v 0.2 0.8 -0.6
v -0.4 0 -0.7
v -0.4 0.1 -0.7
v -0.4 0.3 -0.7
v -0.4 0.4 -0.7
v -0.3 0 -0.7
v -0.3 0.1 -0.7
v -0.3 0.3 -0.7
v -0.3 0.4 -0.7
v -0.3 0.8 -0.7
v -0.2 0.4 -0.7
v -0.2 0.5 -0.7
v -0.2 0.8 -0.7
v -0.2 0.9 -0.7
v 0.1 0.5 -0.7
v 0.1 0.8 -0.7
v 0.2 0.4 -0.7
v 0.2 0.8 -0.7
v 0.2 0.9 -0.7
v 0.3 0 -0.7
v 0.3 0.1 -0.7
v 0.3 0.3 -0.7
v 0.3 0.4 -0.7
v 0.3 0.8 -0.7
v 0.4 0 -0.7
v 0.4 0.1 -0.7
v 0.4 0.3 -0.7
v 0.4 0.4 -0.7
v -0.3 0.3 -0.8
v -0.3 0.4 -0.8
v 0.3 0.3 -0.8
v 0.3 0.4 -0.8
v -0.4 0.1 -0.9
v -0.4 0.3 -0.9
v 0.4 0.1 -0.9
v 0.4 0.3 -0.9
v -0.4 0 0.7
v -0.3 0 0.7
v 0.3 0 0.7
v 0.4 0 0.7
v -0.4 0 0.4
v -0.3 0 0.4
v 0.3 0 0.4
v 0.4 0 0.4
v -0.4 0 -0.4
v -0.3 0 -0.4
v 0.3 0 -0.4
v 0.4 0 -0.4
v -0.4 0 -0.7
v -0.3 0 -0.7
v 0.3 0 -0.7
v 0.4 0 -0.7
v -0.4 0.1 0.9
v 0.4 0.1 0.9
v -0.3 0.1 0.8
v 0.3 0.1 0.8
v -0.4 0.1 0.7
v -0.3 0.1 0.7
v 0.3 0.1 0.7
v 0.4 0.1 0.7
v -0.4 0.1 0.4
v -0.3 0.1 0.4
v 0.3 0.1 0.4
v 0.4 0.1 0.4
v -0.4 0.1 -0.4
v -0.3 0.1 -0.4
v 0.3 0.1 -0.4
v 0.4 0.1 -0.4
v -0.4 0.1 -0.7
v -0.3 0.1 -0.7
v 0.3 0.1 -0.7
v 0.4 0.1 -0.7
v -0.3 0.1 -0.8
v 0.3 0.1 -0.8
v -0.4 0.1 -0.9
v 0.4 0.1 -0.9
v -0.3 0.2 0.8
v 0.3 0.2 0.8
v -0.3 0.2 0.7
v 0.3 0.2 0.7
v -0.3 0.2 0.4
v 0.3 0.2 0.4
v -0.3 0.2 0
v -0.2 0.2 0
v 0.2 0.2 0
v 0.3 0.2 0
v -0.3 0.2 -0.1
v -0.2 0.2 -0.1
v 0.2 0.2 -0.1
v 0.3 0.2 -0.1
v -0.3 0.2 -0.4
v 0.3 0.2 -0.4
v -0.3 0.2 -0.7
v 0.3 0.2 -0.7
v -0.3 0.2 -0.8
v 0.3 0.2 -0.8
v -0.2 0.5 -0.6
v 0.1 0.5 -0.6
v -0.2 0.5 -0.7
v 0.1 0.5 -0.7
v 0.1 0.8 -0.6
v 0.2 0.8 -0.6
v 0.1 0.8 -0.7
v 0.2 0.8 -0.7
v -0.4 0.2 0.3
v -0.3 0.2 0.3
v 0.3 0.2 0.3
v 0.4 0.2 0.3
v -0.3 0.2 0
v 0.3 0.2 0
v -0.3 0.2 -0.1
v 0.3 0.2 -0.1
v -0.4 0.2 -0.3
v -0.3 0.2 -0.3
v 0.3 0.2 -0.3
v 0.4 0.2 -0.3
v -0.4 0.3 0.9
v -0.3 0.3 0.9
v -0.1 0.3 0.9
v 0.1 0.3 0.9
v 0.3 0.3 0.9
v 0.4 0.3 0.9
v -0.4 0.3 0.8
v -0.3 0.3 0.8
v -0.1 0.3 0.8
v 0.1 0.3 0.8
v 0.3 0.3 0.8
v 0.4 0.3 0.8
v -0.4 0.3 0.4
v -0.3 0.3 0.4
v 0.3 0.3 0.4
v 0.4 0.3 0.4
v -0.4 0.3 0.3
v -0.3 0.3 0.3
v 0.3 0.3 0.3
v 0.4 0.3 0.3
v -0.4 0.3 -0.3
v -0.3 0.3 -0.3
v 0.3 0.3 -0.3
v 0.4 0.3 -0.3
v -0.4 0.3 -0.4
v -0.3 0.3 -0.4
v 0.3 0.3 -0.4
v 0.4 0.3 -0.4
v -0.4 0.3 -0.7
v -0.3 0.3 -0.7
v 0.3 0.3 -0.7
v 0.4 0.3 -0.7
v -0.3 0.3 -0.8
v 0.3 0.3 -0.8
v -0.4 0.3 -0.9
v 0.4 0.3 -0.9
v -0.2 0.4 0.9
v -0.1 0.4 0.9
v 0.1 0.4 0.9
v 0.2 0.4 0.9
v -0.2 0.4 0.8
v -0.1 0.4 0.8
v 0.1 0.4 0.8
v 0.2 0.4 0.8
v -0.4 0.4 0.6
v -0.3 0.4 0.6
v 0.3 0.4 0.6
v 0.4 0.4 0.6
v -0.4 0.4 0.4
v -0.3 0.4 0.4
v 0.3 0.4 0.4
v 0.4 0.4 0.4
v -0.4 0.4 -0.4
v -0.3 0.4 -0.4
v 0.3 0.4 -0.4
v 0.4 0.4 -0.4
v -0.3 0.4 -0.6
v -0.2 0.4 -0.6
v 0.2 0.4 -0.6
v 0.3 0.4 -0.6
v -0.4 0.4 -0.7
v -0.3 0.4 -0.7
v -0.2 0.4 -0.7
v 0.2 0.4 -0.7
v 0.3 0.4 -0.7
v 0.4 0.4 -0.7
v -0.3 0.4 -0.8
v 0.3 0.4 -0.8
v -0.3 0.5 0.9
v -0.2 0.5 0.9
v 0.2 0.5 0.9
v 0.3 0.5 0.9
v -0.4 0.5 0.8
v -0.3 0.5 0.8
v -0.2 0.5 0.8
v 0.2 0.5 0.8
v 0.3 0.5 0.8
v 0.4 0.5 0.8
v -0.4 0.5 0.6
v -0.3 0.5 0.6
v 0.3 0.5 0.6
v 0.4 0.5 0.6
v -0.3 0.5 0.4
v -0.2 0.5 0.4
v 0.2 0.5 0.4
v 0.3 0.5 0.4
v -0.3 0.8 0.4
v -0.2 0.8 0.4
v 0.2 0.8 0.4
v 0.3 0.8 0.4
v -0.2 0.8 -0.6
v 0.2 0.8 -0.6
v -0.3 0.8 -0.7
v -0.2 0.8 -0.7
v 0.2 0.8 -0.7
v 0.3 0.8 -0.7
v -0.2 0.9 -0.6
v 0.2 0.9 -0.6
v -0.2 0.9 -0.7
v 0.2 0.9 -0.7

# faces
f 6/3/1 2/3/1 1/3/1
f 7/3/1 2/3/1 6/3/1
f 8/3/1 4/3/1 3/3/1
f 9/3/1 4/3/1 8/3/1
f 11/6/1 8/6/1 7/6/1
f 12/6/1 8/6/1 11/6/1
f 13/6/1 6/6/1 5/6/1
f 14/6/1 6/6/1 13/6/1
f 15/3/1 7/3/1 6/3/1
f 15/6/1 6/6/1 14/6/1
f 16/6/1 11/6/1 7/6/1
f 16/3/1 7/3/1 15/3/1
f 17/6/1 11/6/1 16/6/1
f 18/6/1 8/6/1 12/6/1
f 19/3/1 9/3/1 8/3/1
f 19/6/1 8/6/1 18/6/1
f 20/6/1 10/6/1 9/6/1
f 20/3/1 9/3/1 19/3/1
f 21/6/1 10/6/1 20/6/1
f 22/1/1 15/1/1 14/1/1
f 23/6/1 16/6/1 15/6/1
f 23/1/1 15/1/1 22/1/1
f 24/6/1 16/6/1 23/6/1
f 25/6/1 16/6/1 24/6/1
f 26/6/1 20/6/1 19/6/1
f 27/6/1 20/6/1 26/6/1
f 28/6/1 23/6/1 22/6/1
f 28/6/1 24/6/1 23/6/1
f 29/6/1 24/6/1 28/6/1
f 37/2/1 31/2/1 30/2/1
f 38/2/1 33/2/1 32/2/1
f 42/1/1 35/1/1 34/1/1
f 43/1/1 35/1/1 42/1/1
f 45/5/1 37/5/1 36/5/1
f 46/2/1 39/2/1 38/2/1
f 48/2/1 41/2/1 40/2/1
f 49/2/1 41/2/1 48/2/1
f 50/6/1 43/6/1 42/6/1
f 51/6/1 43/6/1 50/6/1
f 52/2/1 45/2/1 44/2/1
f 53/5/1 37/5/1 45/5/1
f 53/2/1 45/2/1 52/2/1
f 54/2/1 31/2/1 37/2/1
f 54/5/1 37/5/1 53/5/1
f 55/5/1 32/5/1 31/5/1
f 55/2/1 31/2/1 54/2/1
f 56/2/1 47/2/1 46/2/1
f 56/5/1 32/5/1 55/5/1
f 56/2/1 38/2/1 32/2/1
f 56/2/1 46/2/1 38/2/1
f 57/2/1 47/2/1 56/2/1
f 58/4/1 55/4/1 54/4/1
f 58/5/1 54/5/1 53/5/1
f 59/5/1 56/5/1 55/5/1
f 59/4/1 55/4/1 58/4/1
f 60/4/1 57/4/1 56/4/1
f 60/5/1 56/5/1 59/5/1
f 61/2/1 47/2/1 57/2/1
f 61/4/1 57/4/1 60/4/1
f 62/5/1 48/5/1 47/5/1
f 62/2/1 47/2/1 61/2/1
f 63/5/1 60/5/1 59/5/1
f 63/5/1 59/5/1 58/5/1
f 63/5/1 62/5/1 61/5/1
f 63/5/1 61/5/1 60/5/1
f 63/5/1 58/5/1 53/5/1
f 64/5/1 48/5/1 62/5/1
f 64/5/1 62/5/1 63/5/1
f 67/5/1 66/5/1 65/5/1
f 68/5/1 66/5/1 67/5/1
f 71/6/1 70/6/1 69/6/1
f 72/6/1 70/6/1 71/6/1
f 77/6/1 74/6/1 73/6/1
f 78/6/1 74/6/1 77/6/1
f 79/5/1 76/5/1 75/5/1
f 80/5/1 76/5/1 79/5/1
f 86/3/1 82/3/1 81/3/1
f 87/3/1 82/3/1 86/3/1
f 88/3/1 84/3/1 83/3/1
f 89/3/1 84/3/1 88/3/1
f 91/6/1 86/6/1 85/6/1
f 92/3/1 87/3/1 86/3/1
f 92/6/1 86/6/1 91/6/1
f 93/6/1 88/6/1 87/6/1
f 93/3/1 87/3/1 92/3/1
f 94/6/1 88/6/1 93/6/1
f 95/6/1 88/6/1 94/6/1
f 96/3/1 89/3/1 88/3/1
f 96/6/1 88/6/1 95/6/1
f 97/6/1 90/6/1 89/6/1
f 97/3/1 89/3/1 96/3/1
f 98/6/1 90/6/1 97/6/1
f 99/3/2 100/3/2 104/3/2
f 104/3/2 100/3/2 105/3/2
f 101/3/2 102/3/2 106/3/2
f 106/3/2 102/3/2 107/3/2
f 103/6/2 104/6/2 109/6/2
f 104/3/2 105/3/2 110/3/2
f 109/6/2 104/6/2 110/6/2
f 105/6/2 106/6/2 111/6/2
f 110/3/2 105/3/2 111/3/2
f 111/6/2 106/6/2 112/6/2
f 112/6/2 106/6/2 113/6/2
f 106/3/2 107/3/2 114/3/2
f 113/6/2 106/6/2 114/6/2
f 107/6/2 108/6/2 115/6/2
f 114/3/2 107/3/2 115/3/2
f 115/6/2 108/6/2 116/6/2
f 117/6/2 118/6/2 121/6/2
f 121/6/2 118/6/2 122/6/2
f 119/5/2 120/5/2 123/5/2
f 123/5/2 120/5/2 124/5/2
f 125/6/2 126/6/2 127/6/2
f 127/6/2 126/6/2 128/6/2
f 129/3/2 130/3/2 131/3/2
f 131/3/2 130/3/2 132/3/2
f 133/5/2 134/5/2 135/5/2
f 135/5/2 134/5/2 136/5/2
f 137/2/2 138/2/2 144/2/2
f 139/2/2 140/2/2 145/2/2
f 141/1/2 142/1/2 149/1/2
f 149/1/2 142/1/2 150/1/2
f 143/2/2 144/2/2 152/2/2
f 145/2/2 146/2/2 153/2/2
f 147/2/2 148/2/2 155/2/2
f 155/2/2 148/2/2 156/2/2
f 149/6/2 150/6/2 157/6/2
f 157/6/2 150/6/2 158/6/2
f 151/2/2 152/2/2 159/2/2
f 152/2/2 144/2/2 160/2/2
f 159/2/2 152/2/2 160/2/2
f 144/2/2 138/2/2 161/2/2
f 160/2/2 144/2/2 161/2/2
f 138/5/2 139/5/2 162/5/2
f 161/2/2 138/2/2 162/2/2
f 153/2/2 154/2/2 163/2/2
f 162/5/2 139/5/2 163/5/2
f 139/2/2 145/2/2 163/2/2
f 145/2/2 153/2/2 163/2/2
f 163/2/2 154/2/2 164/2/2
f 161/4/2 162/4/2 165/4/2
f 160/5/2 161/5/2 165/5/2
f 162/5/2 163/5/2 166/5/2
f 165/4/2 162/4/2 166/4/2
f 163/4/2 164/4/2 167/4/2
f 166/5/2 163/5/2 167/5/2
f 164/2/2 154/2/2 168/2/2
f 167/4/2 164/4/2 168/4/2
f 154/5/2 155/5/2 169/5/2
f 168/2/2 154/2/2 169/2/2
f 166/5/2 167/5/2 170/5/2
f 165/5/2 166/5/2 170/5/2
f 168/5/2 169/5/2 170/5/2
f 167/5/2 168/5/2 170/5/2
f 160/5/2 165/5/2 170/5/2
f 169/5/2 155/5/2 171/5/2
f 170/5/2 169/5/2 171/5/2
f 172/3/2 173/3/2 177/3/2
f 177/3/2 173/3/2 178/3/2
f 174/3/2 175/3/2 179/3/2
f 179/3/2 175/3/2 180/3/2
f 178/6/2 179/6/2 182/6/2
f 182/6/2 179/6/2 183/6/2
f 176/6/2 177/6/2 184/6/2
f 184/6/2 177/6/2 185/6/2
f 177/3/2 178/3/2 186/3/2
f 185/6/2 177/6/2 186/6/2
f 178/6/2 182/6/2 187/6/2
f 186/3/2 178/3/2 187/3/2
f 187/6/2 182/6/2 188/6/2
f 183/6/2 179/6/2 189/6/2
f 179/3/2 180/3/2 190/3/2
f 189/6/2 179/6/2 190/6/2
f 180/6/2 181/6/2 191/6/2
f 190/3/2 180/3/2 191/3/2
f 191/6/2 181/6/2 192/6/2
f 185/1/2 186/1/2 193/1/2
f 186/6/2 187/6/2 194/6/2
f 193/1/2 186/1/2 194/1/2
f 194/6/2 187/6/2 195/6/2
f 195/6/2 187/6/2 196/6/2
f 190/6/2 191/6/2 197/6/2
f 197/6/2 191/6/2 198/6/2
f 193/6/2 194/6/2 199/6/2
f 194/6/2 195/6/2 199/6/2
f 199/6/2 195/6/2 200/6/2
f 203/6/3 202/6/3 201/6/3
f 206/6/3 203/6/3 201/6/3
f 206/1/3 204/1/3 203/1/3
f 207/6/3 205/6/3 204/6/3
f 207/1/3 204/1/3 206/1/3
f 208/6/3 205/6/3 207/6/3
f 209/6/3 206/6/3 201/6/3
f 209/6/3 207/6/3 206/6/3
f 210/6/3 207/6/3 209/6/3
f 211/6/3 209/6/3 201/6/3
f 213/6/3 211/6/3 201/6/3
f 213/6/3 212/6/3 211/6/3
f 214/6/3 212/6/3 213/6/3
f 216/1/3 214/1/3 213/1/3
f 216/6/3 213/6/3 201/6/3
f 217/6/3 215/6/3 214/6/3
f 217/1/3 214/1/3 216/1/3
f 218/6/3 215/6/3 217/6/3
f 219/6/3 216/6/3 201/6/3
f 220/6/3 216/6/3 219/6/3
f 224/1/3 222/1/3 221/1/3
f 225/6/3 223/6/3 222/6/3
f 225/1/3 222/1/3 224/1/3
f 226/6/3 223/6/3 225/6/3
f 230/2/3 228/2/3 227/2/3
f 231/2/3 230/2/3 229/2/3
f 232/2/3 228/2/3 230/2/3
f 232/2/3 230/2/3 231/2/3
f 233/2/3 228/2/3 232/2/3
f 234/2/3 228/2/3 233/2/3
f 238/1/3 236/1/3 235/1/3
f 239/6/3 237/6/3 236/6/3
f 239/1/3 236/1/3 238/1/3
f 240/6/3 237/6/3 239/6/3
f 243/3/3 242/3/3 241/3/3
f 244/3/3 242/3/3 243/3/3
f 247/3/3 246/3/3 245/3/3
f 248/3/3 246/3/3 247/3/3
f 251/5/3 250/5/3 249/5/3
f 252/5/3 250/5/3 251/5/3
f 253/5/3 250/5/3 252/5/3
f 254/4/3 252/4/3 251/4/3
f 255/2/3 253/2/3 252/2/3
f 255/4/3 252/4/3 254/4/3
f 256/2/3 253/2/3 255/2/3
f 257/5/3 255/5/3 254/5/3
f 257/5/3 256/5/3 255/5/3
f 258/5/3 256/5/3 257/5/3
f 261/6/3 260/6/3 259/6/3
f 262/6/3 260/6/3 261/6/3
f 265/6/3 264/6/3 263/6/3
f 266/6/3 264/6/3 265/6/3
f 271/3/3 268/3/3 267/3/3
f 272/3/3 268/3/3 271/3/3
f 273/6/3 270/6/3 269/6/3
f 274/6/3 270/6/3 273/6/3
f 279/3/3 276/3/3 275/3/3
f 280/3/3 276/3/3 279/3/3
f 281/6/3 278/6/3 277/6/3
f 282/6/3 278/6/3 281/6/3
f 285/5/3 284/5/3 283/5/3
f 286/5/3 284/5/3 285/5/3
f 289/6/3 288/6/3 287/6/3
f 290/6/3 288/6/3 289/6/3
f 291/6/4 292/6/4 293/6/4
f 293/6/4 292/6/4 294/6/4
f 295/6/4 296/6/4 297/6/4
f 297/6/4 296/6/4 298/6/4
f 299/6/4 300/6/4 301/6/4
f 301/6/4 300/6/4 302/6/4
f 303/3/4 304/3/4 307/3/4
f 307/3/4 304/3/4 308/3/4
f 305/6/4 306/6/4 309/6/4
f 309/6/4 306/6/4 310/6/4
f 311/3/4 312/3/4 315/3/4
f 315/3/4 312/3/4 316/3/4
f 313/6/4 314/6/4 317/6/4
f 317/6/4 314/6/4 318/6/4
f 319/6/4 320/6/4 321/6/4
f 321/6/4 320/6/4 322/6/4
f 323/6/4 324/6/4 325/6/4
f 325/6/4 324/6/4 326/6/4
f 327/2/4 328/2/4 329/2/4
f 327/2/4 329/2/4 331/2/4
f 329/2/4 330/2/4 331/2/4
f 331/2/4 330/2/4 332/2/4
f 333/3/4 334/3/4 337/3/4
f 337/3/4 334/3/4 338/3/4
f 335/6/4 336/6/4 339/6/4
f 339/6/4 336/6/4 340/6/4
f 340/5/4 341/5/4 342/5/4
f 342/5/4 341/5/4 343/5/4
f 343/5/4 341/5/4 344/5/4
f 343/3/4 344/3/4 346/3/4
f 344/5/4 345/5/4 347/5/4
f 346/3/4 344/3/4 347/3/4
f 347/5/4 345/5/4 349/5/4
f 349/5/4 345/5/4 350/5/4
f 348/5/4 349/5/4 354/5/4
f 354/5/4 349/5/4 355/5/4
f 351/3/4 352/3/4 356/3/4
f 356/3/4 352/3/4 357/3/4
f 353/6/4 354/6/4 358/6/4
f 358/6/4 354/6/4 359/6/4
f 360/2/4 361/2/4 362/2/4
f 362/2/4 361/2/4 363/2/4
f 364/6/4 365/6/4 366/6/4
f 366/6/4 365/6/4 367/6/4
f 372/3/5 369/3/5 368/3/5
f 373/3/5 369/3/5 372/3/5
f 374/3/5 371/3/5 370/3/5
f 375/3/5 371/3/5 374/3/5
f 380/3/5 377/3/5 376/3/5
f 381/3/5 377/3/5 380/3/5
f 382/3/5 379/3/5 378/3/5
f 383/3/5 379/3/5 382/3/5
f 386/6/5 385/6/5 384/6/5
f 387/6/5 385/6/5 386/6/5
f 388/6/5 386/6/5 384/6/5
f 389/6/5 386/6/5 388/6/5
f 390/6/5 385/6/5 387/6/5
f 391/6/5 385/6/5 390/6/5
f 396/6/5 393/6/5 392/6/5
f 397/6/5 393/6/5 396/6/5
f 398/6/5 395/6/5 394/6/5
f 399/6/5 395/6/5 398/6/5
f 404/6/5 401/6/5 400/6/5
f 405/6/5 403/6/5 402/6/5
f 406/6/5 404/6/5 400/6/5
f 406/6/5 405/6/5 404/6/5
f 407/6/5 403/6/5 405/6/5
f 407/6/5 405/6/5 406/6/5
f 410/2/5 409/2/5 408/2/5
f 411/2/5 409/2/5 410/2/5
f 412/2/5 411/2/5 410/2/5
f 413/2/5 411/2/5 412/2/5
f 414/2/5 413/2/5 412/2/5
f 415/2/5 413/2/5 414/2/5
f 416/2/5 413/2/5 415/2/5
f 417/2/5 413/2/5 416/2/5
f 418/5/5 415/5/5 414/5/5
f 419/2/5 416/2/5 415/2/5
f 419/5/5 415/5/5 418/5/5
f 420/5/5 417/5/5 416/5/5
f 420/2/5 416/2/5 419/2/5
f 421/5/5 417/5/5 420/5/5
f 422/2/5 419/2/5 418/2/5
f 422/2/5 420/2/5 419/2/5
f 422/2/5 421/2/5 420/2/5
f 423/2/5 421/2/5 422/2/5
f 424/2/5 423/2/5 422/2/5
f 425/2/5 423/2/5 424/2/5
f 426/2/5 425/2/5 424/2/5
f 427/2/5 425/2/5 426/2/5
f 430/3/5 429/3/5 428/3/5
f 431/3/5 429/3/5 430/3/5
f 434/5/5 433/5/5 432/5/5
f 435/5/5 433/5/5 434/5/5
f 436/6/6 437/6/6 440/6/6
f 438/6/6 439/6/6 441/6/6
f 436/6/6 440/6/6 442/6/6
f 441/6/6 439/6/6 443/6/6
f 436/6/6 442/6/6 444/6/6
f 444/6/6 442/6/6 445/6/6
f 443/6/6 439/6/6 446/6/6
f 446/6/6 439/6/6 447/6/6
f 448/6/6 449/6/6 454/6/6
f 454/6/6 449/6/6 455/6/6
f 450/6/6 451/6/6 456/6/6
f 456/6/6 451/6/6 457/6/6
f 452/6/6 453/6/6 458/6/6
f 458/6/6 453/6/6 459/6/6
f 460/6/6 461/6/6 464/6/6
f 464/6/6 461/6/6 465/6/6
f 462/6/6 463/6/6 466/6/6
f 466/6/6 463/6/6 467/6/6
f 468/6/6 469/6/6 472/6/6
f 472/6/6 469/6/6 473/6/6
f 470/6/6 471/6/6 474/6/6
f 474/6/6 471/6/6 475/6/6
f 476/6/6 477/6/6 480/6/6
f 478/6/6 479/6/6 481/6/6
f 476/6/6 480/6/6 482/6/6
f 480/6/6 481/6/6 482/6/6
f 481/6/6 479/6/6 483/6/6
f 482/6/6 481/6/6 483/6/6
f 484/6/6 485/6/6 488/6/6
f 488/6/6 485/6/6 489/6/6
f 486/6/6 487/6/6 490/6/6
f 490/6/6 487/6/6 491/6/6
f 492/6/6 493/6/6 496/6/6
f 496/6/6 493/6/6 497/6/6
f 494/6/6 495/6/6 498/6/6
f 498/6/6 495/6/6 499/6/6
f 500/6/6 501/6/6 504/6/6
f 502/6/6 503/6/6 507/6/6
f 500/6/6 504/6/6 508/6/6
f 508/6/6 504/6/6 509/6/6
f 505/2/6 506/2/6 510/2/6
f 510/2/6 506/2/6 511/2/6
f 507/6/6 503/6/6 512/6/6
f 512/6/6 503/6/6 513/6/6
f 510/2/6 511/2/6 514/2/6
f 511/2/6 512/2/6 514/2/6
f 509/2/6 510/2/6 514/2/6
f 514/2/6 512/2/6 515/2/6
f 516/6/6 517/6/6 521/6/6
f 521/6/6 517/6/6 522/6/6
f 518/6/6 519/6/6 523/6/6
f 523/6/6 519/6/6 524/6/6
f 520/6/6 521/6/6 526/6/6
f 521/2/6 522/2/6 527/2/6
f 526/6/6 521/6/6 527/6/6
f 522/2/6 523/2/6 527/2/6
f 523/2/6 524/2/6 527/2/6
f 524/6/6 525/6/6 528/6/6
f 527/2/6 524/2/6 528/2/6
f 528/6/6 525/6/6 529/6/6
f 527/2/6 528/2/6 530/2/6
f 530/2/6 528/2/6 531/2/6
f 531/2/6 528/2/6 532/2/6
f 532/2/6 528/2/6 533/2/6
f 534/5/6 535/5/6 538/5/6
f 535/2/6 536/2/6 538/2/6
f 536/5/6 537/5/6 539/5/6
f 538/2/6 536/2/6 539/2/6
f 534/5/6 538/5/6 540/5/6
f 540/5/6 538/5/6 541/5/6
f 539/5/6 537/5/6 542/5/6
f 542/5/6 537/5/6 543/5/6
f 544/5/6 545/5/6 546/5/6
f 546/5/6 545/5/6 547/5/6
